<?xml version="1.0" standalone="no"?>
<!DOCTYPE svg PUBLIC "-//W3C//DTD SVG 1.1//EN" "http://www.w3.org/Graphics/SVG/1.1/DTD/svg11.dtd" >
<svg xmlns="http://www.w3.org/2000/svg" xmlns:xlink="http://www.w3.org/1999/xlink" version="1.1">
<metadata>
Created by FontForge 20170731 at Thu Jan 27 10:25:36 2022
 By Aleksey,,,
</metadata>
<defs>
<font id="NormalidadWide-WideBold" horiz-adv-x="1495" >
  <font-face 
    font-family="Normalidad Wide Bold"
    font-weight="700"
    font-stretch="normal"
    units-per-em="2048"
    panose-1="2 11 8 5 2 1 2 2 3 3"
    ascent="1638"
    descent="-410"
    x-height="1044"
    cap-height="1413"
    bbox="-219 -586 2537 2253"
    underline-thickness="81"
    underline-position="-255"
    unicode-range="U+000D-2013"
  />
<missing-glyph horiz-adv-x="1024" 
 />
    <glyph glyph-name=".notdef" horiz-adv-x="1024" 
 />
    <glyph glyph-name=".null" horiz-adv-x="0" 
 />
    <glyph glyph-name="nonmarkingreturn" horiz-adv-x="682" 
 />
    <glyph glyph-name="NULL" horiz-adv-x="0" 
 />
    <glyph glyph-name="NULL" horiz-adv-x="0" 
 />
    <glyph glyph-name="CR" unicode="&#xd;" horiz-adv-x="512" 
 />
    <glyph glyph-name="space" unicode=" " horiz-adv-x="471" 
 />
    <glyph glyph-name="exclam" unicode="!" horiz-adv-x="663" 
d="M119 1413h426l-66 -928h-295zM121 154q0 96 55 139q52 43 156 43q103 0 155 -43q54 -45 54 -139q0 -93 -54 -138q-51 -45 -155 -45q-105 0 -156 45q-55 43 -55 138z" />
    <glyph glyph-name="comma" unicode="," horiz-adv-x="587" 
d="M139 -145q81 0 119 24q37 24 37 78v14h-12q-99 0 -150 45q-53 47 -53 142q0 86 53 133q51 45 156 45q106 0 157 -45q54 -48 54 -150v-147q0 -171 -84 -246q-83 -74 -277 -74v181z" />
    <glyph glyph-name="hyphen" unicode="-" horiz-adv-x="970" 
d="M113 694h745v-317h-745v317z" />
    <glyph glyph-name="period" unicode="." horiz-adv-x="583" 
d="M82 154q0 96 55 139q52 43 156 43t156 -43q53 -44 53 -139q0 -94 -53 -138q-51 -45 -156 -45t-156 45q-55 43 -55 138z" />
    <glyph glyph-name="zero" unicode="0" horiz-adv-x="1697" 
d="M98 713q0 197 54 342q54 141 151 225q91 82 236 125q136 37 311 37t311 -37q141 -41 238 -125q97 -87 149 -225q54 -145 54 -342q0 -201 -54 -346q-52 -142 -149 -230q-95 -85 -238 -127q-133 -39 -311 -39t-311 39q-146 43 -236 127q-98 85 -151 230q-54 145 -54 346z
M1210 635v153q0 186 -84 273q-84 84 -276 84q-197 0 -279 -82q-84 -84 -84 -275v-153q0 -202 84 -283q81 -81 279 -84q194 0 276 82q84 84 84 285z" />
    <glyph glyph-name="one" unicode="1" horiz-adv-x="942" 
d="M57 1184l340 229h387v-1413h-387v1079l-340 -233v338z" />
    <glyph glyph-name="two" unicode="2" horiz-adv-x="1509" 
d="M94 147q0 271 146 396q149 124 317 180q114 39 317 100q144 43 144 160v33q0 76 -64 106q-69 29 -188 29q-142 0 -201 -39q-61 -40 -76 -143h-391q18 268 197 370q180 103 473 103q308 0 475 -99q164 -102 164 -339q0 -207 -133 -302q-129 -91 -299 -145
q-54 -17 -156.5 -48.5t-150.5 -47.5q-145 -47 -166 -154h899v-307h-1307v147z" />
    <glyph glyph-name="three" unicode="3" horiz-adv-x="1540" 
d="M70 414h397q15 -83 90 -117q75 -35 219 -35q151 0 223 35q68 35 68 111v38q0 74 -72 109q-73 31 -213 31h-172v274h166q126 0 182 33q58 30 58 96v39q0 69 -62 96t-178 27t-186 -27q-71 -27 -86 -110h-398q18 240 199 334q178 94 469 94q295 0 459 -92q162 -94 162 -291
q0 -116 -66 -197q-62 -79 -192 -121q147 -35 229 -114t82 -215q0 -224 -170 -332q-171 -109 -502 -109q-332 0 -514 105q-180 101 -192 338z" />
    <glyph glyph-name="four" unicode="4" horiz-adv-x="1619" 
d="M47 559l729 854h539v-817h248v-287h-248v-309h-385v309h-883v250zM446 596h484v565z" />
    <glyph glyph-name="five" unicode="5" horiz-adv-x="1497" 
d="M74 403h397q15 -70 88 -104q70 -33 203 -33q130 0 201 41q69 40 69 139v46q0 98 -69 141q-70 43 -203 43q-110 0 -187 -25q-74 -24 -122 -69l-326 73l65 758h7h1134v-301h-844l-26 -301q60 50 160 80q106 29 223 29q292 0 434 -115q141 -117 141 -340q0 -244 -162 -369
t-495 -125q-323 0 -494 107q-173 103 -194 325z" />
    <glyph glyph-name="six" unicode="6" horiz-adv-x="1611" 
d="M98 621q0 447 193 634t551 187q310 0 475 -109q160 -109 178 -293h-385q-21 52 -82 82q-66 29 -194 29q-174 0 -252 -84q-80 -86 -95 -317q66 72 185 114q110 39 266 39q285 0 438 -102q154 -103 154 -336q0 -244 -174 -369t-527 -125q-372 0 -553 158q-178 156 -178 492
zM1141 438v39q0 100 -74 141q-74 39 -240 39q-163 0 -239 -43q-78 -47 -78 -155q0 -110 76 -156q74 -47 241 -47q166 0 240 41t74 141z" />
    <glyph glyph-name="seven" unicode="7" horiz-adv-x="1312" 
d="M51 1100v313h1215v-270l-660 -1143h-393l641 1100h-803z" />
    <glyph glyph-name="eight" unicode="8" horiz-adv-x="1624" 
d="M92 399q0 143 88 234q84 90 256 125q-156 30 -223 112q-68 80 -68 197q0 105 52 178q51 73 137 115q84 41 211 63q130 19 268 19q136 0 266 -19q130 -22 213 -63q86 -42 140 -115q49 -73 49 -178q0 -115 -66 -199q-67 -82 -221 -112q165 -34 254 -123q86 -92 86 -234
q0 -237 -186 -331q-192 -97 -535 -97q-345 0 -534 97q-187 94 -187 331zM1096 993v29q0 78 -66 113q-60 32 -217 32t-217 -32q-66 -35 -66 -111v-31q0 -71 66 -106q65 -35 217 -35q149 0 217 35q66 35 66 106zM1149 408v38q0 87 -82 127q-81 37 -254 37q-171 0 -252 -37
q-84 -41 -84 -127v-38q0 -87 86 -125q81 -37 250 -37q166 0 250 37q86 38 86 125z" />
    <glyph glyph-name="nine" unicode="9" horiz-adv-x="1609" 
d="M1511 797q0 -449 -192 -635q-193 -187 -551 -187q-313 0 -473 109q-162 107 -180 293h385q21 -53 82 -80q64 -31 194 -31q174 0 254 86q77 83 92 316q-68 -74 -184 -115q-110 -39 -266 -39q-286 0 -439 102t-153 336q0 244 174 369t526 125q372 0 553 -158
q178 -156 178 -491zM469 979v-39q0 -99 76 -139q74 -41 237 -41q166 0 240 45q78 44 78 153t-74 156q-77 47 -244 47q-165 0 -239 -41t-74 -141z" />
    <glyph glyph-name="colon" unicode=":" horiz-adv-x="641" 
d="M111 154q0 96 55 139q52 43 156 43q103 0 155 -43q53 -44 53 -139q0 -94 -53 -138q-51 -45 -155 -45q-105 0 -156 45q-55 43 -55 138zM111 803q0 96 55 139q52 43 156 43q103 0 155 -43q53 -44 53 -139q0 -93 -53 -137q-51 -45 -155 -45q-105 0 -156 45q-55 43 -55 137z
" />
    <glyph glyph-name="semicolon" unicode=";" horiz-adv-x="643" 
d="M111 803q0 96 55 139q52 43 156 43q103 0 155 -43q53 -44 53 -139q0 -93 -53 -137q-51 -45 -155 -45q-105 0 -156 45q-55 43 -55 137zM170 -145q82 0 119 24t37 78v14h-13q-98 0 -149 45q-53 47 -53 142q0 86 53 133q51 45 155 45q107 0 158 -45q53 -47 53 -150v-147
q0 -171 -84 -246q-83 -74 -276 -74v181z" />
    <glyph glyph-name="question" unicode="?" horiz-adv-x="1497" 
d="M1032 1006v32q0 64 -63 90q-64 27 -217 27q-129 0 -213 -35q-86 -36 -95 -139h-389q3 126 58 219q53 89 143 141q91 54 217 78q138 23 281 23q331 0 503 -96q168 -98 168 -304q0 -155 -86 -223q-81 -67 -188 -106q-150 -58 -190 -74q-87 -38 -87 -129v-31h-342v33
q0 158 78 233q76 73 172 111q107 39 172 62q78 24 78 88zM500 154q0 96 55 139q52 43 156 43q103 0 155 -43q54 -45 54 -139q0 -93 -54 -138q-51 -45 -155 -45q-105 0 -156 45q-55 43 -55 138z" />
    <glyph glyph-name="A" unicode="A" horiz-adv-x="1744" 
d="M608 1413h531l608 -1413h-401l-134 313h-720l-134 -313h-360zM610 592h484l-242 569z" />
    <glyph glyph-name="B" unicode="B" horiz-adv-x="1671" 
d="M145 1413h961q213 0 328 -86q114 -86 114 -256q0 -105 -49 -190q-52 -88 -180 -131q146 -38 209 -125q63 -86 63 -211q0 -200 -114 -308q-115 -106 -351 -106h-981v1413zM1163 987v39q0 66 -43 100q-47 35 -127 35h-467v-317h467q81 0 127 37q43 37 43 106zM1206 406v53
q0 67 -47 108q-49 37 -141 37h-492v-352h492q91 0 139 39q49 40 49 115z" />
    <glyph glyph-name="C" unicode="C" horiz-adv-x="1765" 
d="M84 705q0 209 57 346q56 142 162 229q103 84 258 125q151 37 346 37q353 0 563 -115q209 -119 236 -403h-389q-21 134 -127 178q-104 43 -283 43q-95 0 -174 -15t-137 -55q-60 -41 -88 -108q-33 -67 -33 -179v-163q0 -215 119 -285q123 -72 313 -72q173 0 277 43
q105 41 135 166h389q-35 -275 -240 -389q-208 -117 -561 -117q-195 0 -346 37t-258 121q-106 81 -162 227q-57 137 -57 349z" />
    <glyph glyph-name="D" unicode="D" horiz-adv-x="1816" 
d="M145 1413h848q178 0 318 -35q139 -38 231 -118q90 -81 141 -220q50 -136 50 -333q0 -198 -50 -334q-49 -134 -141 -217q-98 -86 -231 -119q-136 -37 -318 -37h-848v1413zM967 313q183 0 280 72q94 70 94 260v133q0 180 -94 250q-97 72 -280 72h-437v-787h437z" />
    <glyph glyph-name="E" unicode="E" horiz-adv-x="1527" 
d="M145 1413h1289v-295h-904v-254h697v-284h-697v-285h912v-295h-1297v1413z" />
    <glyph glyph-name="F" unicode="F" horiz-adv-x="1454" 
d="M145 1413h1266v-313h-881v-269h703v-307h-703v-524h-385v1413z" />
    <glyph glyph-name="G" unicode="G" horiz-adv-x="1818" 
d="M84 705q0 208 57 348q56 143 162 227q104 84 260 125q151 37 348 37q353 0 562 -111q205 -114 245 -385h-389q-30 116 -133 160q-106 41 -285 41q-206 0 -321 -74q-115 -77 -115 -285v-167q0 -211 113 -281q115 -74 321 -74q216 0 326 58q110 60 125 190h-442v256h817
v-156q0 -173 -58 -292q-60 -126 -166 -201q-113 -80 -260 -113q-151 -37 -340 -37q-197 0 -348 37q-153 37 -260 121q-106 81 -162 227q-57 137 -57 349z" />
    <glyph glyph-name="H" unicode="H" horiz-adv-x="1810" 
d="M145 1413h385v-530h750v530h385v-1413h-385v569h-750v-569h-385v1413z" />
    <glyph glyph-name="I" unicode="I" horiz-adv-x="677" 
d="M145 1413h385v-1413h-385v1413z" />
    <glyph glyph-name="J" unicode="J" horiz-adv-x="966" 
d="M33 303h266q79 0 113 43q32 40 32 115v952h385v-1055q0 -173 -88 -264q-88 -94 -295 -94h-413v303z" />
    <glyph glyph-name="K" unicode="K" horiz-adv-x="1669" 
d="M145 1413h385v-536h162l516 536h455l-645 -672l684 -741h-490l-526 563h-156v-563h-385v1413z" />
    <glyph glyph-name="L" unicode="L" horiz-adv-x="1421" 
d="M145 1413h385v-1100h861v-313h-1246v1413z" />
    <glyph glyph-name="M" unicode="M" horiz-adv-x="2179" 
d="M868 180l-374 926v-1106h-349v1413h586l359 -883l356 883h588v-1413h-385v1108l-375 -928h-406z" />
    <glyph glyph-name="N" unicode="N" horiz-adv-x="1837" 
d="M1165 0l-665 1030v-1030h-355v1413h529l663 -1026v1026h355v-1413h-527z" />
    <glyph glyph-name="O" unicode="O" horiz-adv-x="1931" 
d="M84 717q0 205 59 344q61 143 170 225q113 84 277 121q166 35 377 35q207 0 376 -35q161 -37 277 -121q111 -85 170 -225q57 -134 57 -344q0 -215 -57 -355q-58 -143 -170 -229q-112 -87 -277 -125q-164 -37 -376 -37q-216 0 -377 37q-168 38 -277 125q-111 83 -170 229
q-59 145 -59 355zM1458 635v149q0 202 -123 281q-127 80 -368 80q-242 0 -369 -80q-125 -79 -125 -281v-149q0 -213 125 -289q128 -78 369 -78q240 0 368 78q123 76 123 289z" />
    <glyph glyph-name="P" unicode="P" horiz-adv-x="1677" 
d="M145 1413h965q263 0 389 -129q125 -128 125 -356q0 -235 -125 -363q-126 -129 -389 -129h-580v-436h-385v1413zM1233 897v57q0 68 -41 115q-42 45 -137 45h-525v-379h525q95 0 137 45q41 44 41 117z" />
    <glyph glyph-name="Q" unicode="Q" horiz-adv-x="1931" 
d="M84 717q0 205 59 344q61 143 170 225q113 84 277 121q166 35 377 35q207 0 376 -35q161 -37 277 -121q111 -85 170 -225q57 -134 57 -344q0 -191 -47 -324q-45 -131 -137 -223l178 -195l-266 -206l-221 241q-83 -21 -180 -30q-99 -9 -207 -9q-216 0 -377 37
q-168 38 -277 125q-111 83 -170 229q-59 145 -59 355zM1458 635v149q0 202 -123 281q-127 80 -368 80q-242 0 -369 -80q-125 -79 -125 -281v-149q0 -213 125 -289q128 -78 369 -78q240 0 368 78q123 76 123 289z" />
    <glyph glyph-name="R" unicode="R" horiz-adv-x="1718" 
d="M145 1413h961q247 0 385 -117q135 -120 135 -338q0 -160 -72 -270q-71 -109 -202 -158l313 -530h-426l-289 489h-420v-489h-385v1413zM1235 934v41q0 68 -41 112q-44 41 -145 41h-519v-352h519q101 0 143 45q43 43 43 113z" />
    <glyph glyph-name="S" unicode="S" horiz-adv-x="1662" 
d="M70 440h391q21 -112 112 -149q90 -37 271 -37q183 0 276 35q90 35 90 125q0 116 -174 131q-117 10 -385 37q-209 21 -383 100q-176 77 -176 315q0 236 195 342q195 103 536 103q345 0 535 -105q188 -105 209 -344h-391q-14 98 -107 133q-88 33 -246 33q-181 0 -266 -31
q-86 -35 -86 -124q0 -108 176 -123q103 -9 383 -37q205 -21 385 -99q174 -76 174 -305q0 -250 -184 -358q-185 -111 -561 -111q-386 0 -570 111q-183 110 -204 358z" />
    <glyph glyph-name="T" unicode="T" horiz-adv-x="1572" 
d="M594 1100h-561v313h1507v-313h-561v-1100h-385v1100z" />
    <glyph glyph-name="U" unicode="U" horiz-adv-x="1767" 
d="M129 594v819h385v-805q0 -205 98 -272q95 -68 291 -68t291 68q96 69 96 272v805h348v-819q0 -331 -184 -475q-189 -148 -551 -148q-374 0 -575 148q-199 144 -199 475z" />
    <glyph glyph-name="V" unicode="V" horiz-adv-x="1722" 
d="M0 1413h412l475 -1128l477 1128h360l-604 -1413h-522z" />
    <glyph glyph-name="W" unicode="W" horiz-adv-x="2289" 
d="M29 1413h385l241 -1053l285 1053h467l272 -1051l250 1051h334l-340 -1413h-502l-274 1051l-285 -1051h-504z" />
    <glyph glyph-name="X" unicode="X" horiz-adv-x="1669" 
d="M1231 0l-410 475l-411 -475h-424l618 709l-610 704h461l393 -455l391 455h424l-600 -686l629 -727h-461z" />
    <glyph glyph-name="Y" unicode="Y" horiz-adv-x="1685" 
d="M668 565l-684 848h438l455 -571l415 571h389l-628 -850v-563h-385v565z" />
    <glyph glyph-name="Z" unicode="Z" horiz-adv-x="1554" 
d="M86 313l887 791h-879v309h1368v-313l-887 -791h895v-309h-1384v313z" />
    <glyph glyph-name="a" unicode="a" horiz-adv-x="1433" 
d="M63 289q0 156 113 241q116 84 363 93l413 14v35q0 93 -59 131q-59 35 -176 35q-115 0 -170 -27q-56 -26 -72 -90h-371q21 173 172 262q153 90 441 90q298 0 450 -96q152 -100 152 -305v-672h-354v160q-58 -87 -172 -137q-113 -52 -293 -52q-221 0 -330 86
q-107 82 -107 232zM434 313q0 -59 45 -82q45 -26 148 -26q146 0 235 51q90 53 90 160v37l-325 -13q-97 -3 -148 -26q-45 -23 -45 -82v-19z" />
    <glyph glyph-name="b" unicode="b" horiz-adv-x="1548" 
d="M127 1495h369v-598q66 91 174 133q107 43 260 43q255 0 399 -129q146 -134 146 -424q0 -289 -146 -420q-144 -129 -399 -129q-161 0 -268 45q-113 46 -177 144v-160h-358v1495zM1102 444v156q0 122 -76 174q-76 49 -225 49q-157 0 -230 -49q-75 -51 -75 -174v-156
q0 -127 75 -176q73 -49 228 -49q151 0 227 49t76 176z" />
    <glyph glyph-name="c" unicode="c" horiz-adv-x="1390" 
d="M74 522q0 304 157 428q156 123 486 123q270 0 436 -84q159 -85 180 -289h-370q-15 60 -66 93q-53 30 -182 30q-141 0 -203 -45q-66 -48 -66 -168v-170q0 -127 68 -174t201 -47q129 0 182 35q56 37 70 92h372q-27 -185 -178 -280t-446 -95q-161 0 -281 27q-125 28 -201 90
q-78 63 -118 170q-41 109 -41 264z" />
    <glyph glyph-name="d" unicode="d" horiz-adv-x="1548" 
d="M72 518q0 295 149 426q147 129 408 129q147 0 254 -43q103 -42 170 -133v598h368v-1495h-360v162q-68 -100 -170 -144q-109 -47 -262 -47q-258 0 -408 129q-149 128 -149 418zM1053 444v156q0 121 -74 174q-76 49 -229 49q-152 0 -228 -49q-76 -52 -76 -176v-156
q0 -125 76 -174t228 -49q151 0 227 49t76 176z" />
    <glyph glyph-name="e" unicode="e" horiz-adv-x="1423" 
d="M70 520q0 292 166 424q166 129 477 129q305 0 473 -119q166 -120 166 -405v-66h-918v-37q0 -130 72 -184q71 -53 207 -53q128 0 190 33q64 34 84 102h363q-41 -194 -201 -283q-166 -90 -436 -90q-315 0 -477 125q-166 126 -166 424zM713 842q-127 0 -201 -41
q-75 -41 -78 -139h559q-3 98 -71 139t-209 41z" />
    <glyph glyph-name="f" unicode="f" horiz-adv-x="964" 
d="M49 1044h141v60q0 188 89 291q87 100 337 100h324v-268h-252q-72 0 -100 -31q-29 -32 -29 -100v-52h381v-268h-381v-776h-369v776h-141v268z" />
    <glyph glyph-name="g" unicode="g" horiz-adv-x="1550" 
d="M117 -86h379q35 -60 98 -86q64 -25 178 -25q154 0 219 56q66 57 66 221v78q-65 -83 -168 -123q-104 -39 -252 -39q-263 0 -412 125q-149 122 -149 405q0 290 149 418q147 129 412 129q151 0 258 -43q109 -47 172 -139v153h363v-958q0 -281 -168 -403q-171 -121 -496 -121
q-306 0 -461 94q-158 96 -188 258zM1057 469v129q0 125 -72 176q-70 49 -231 49q-164 0 -232 -51q-73 -52 -73 -176v-133q0 -119 73 -168q71 -51 232 -51q163 0 231 51q72 51 72 174z" />
    <glyph glyph-name="h" unicode="h" 
d="M1012 0v637q0 104 -66 145q-62 39 -188 39q-118 0 -189 -41q-73 -43 -73 -143v-637h-369v1495h369v-610q57 97 172 143q110 45 256 45q219 0 340 -92q116 -94 116 -307v-674h-368z" />
    <glyph glyph-name="i" unicode="i" horiz-adv-x="620" 
d="M127 1044h369v-1044h-369v1044zM106 1358q0 81 56 125q53 41 149 41q99 0 152 -41q53 -44 53 -125q0 -84 -53 -125q-52 -43 -152 -43q-97 0 -149 43q-56 41 -56 125z" />
    <glyph glyph-name="j" unicode="j" horiz-adv-x="620" 
d="M-111 -141h105q74 0 104 35q29 40 29 106v1044h369v-1091q0 -185 -78 -275q-76 -88 -285 -88h-244v269zM109 1358q0 82 55 125q53 41 149 41q99 0 152 -41q53 -44 53 -125q0 -84 -53 -125q-52 -43 -152 -43q-97 0 -149 43q-55 40 -55 125z" />
    <glyph glyph-name="k" unicode="k" horiz-adv-x="1409" 
d="M975 1044h409l-452 -495l506 -549h-453l-362 389h-127v-389h-369v1495h369v-838h125z" />
    <glyph glyph-name="l" unicode="l" horiz-adv-x="620" 
d="M127 1495h369v-1495h-369v1495z" />
    <glyph glyph-name="m" unicode="m" horiz-adv-x="2213" 
d="M928 0v639q0 103 -54 145q-55 37 -157 37q-104 0 -160 -39q-61 -40 -61 -145v-637h-369v1044h358v-172q45 99 154 152q104 49 240 49q139 0 239 -47q97 -49 144 -160q51 105 161 156q108 51 258 51q202 0 312 -96q104 -94 104 -309v-668h-368v639q0 103 -54 145
q-55 37 -159 37q-102 0 -158 -39q-62 -41 -62 -147v-635h-368z" />
    <glyph glyph-name="n" unicode="n" 
d="M1012 0v637q0 104 -66 145q-62 39 -188 39q-118 0 -189 -41q-73 -43 -73 -143v-637h-369v1044h358v-180q52 106 170 158q117 51 269 51q219 0 340 -92q116 -94 116 -307v-674h-368z" />
    <glyph glyph-name="o" unicode="o" horiz-adv-x="1497" 
d="M72 522q0 157 43 264q42 104 129 170q81 63 211 91q121 26 293 26q170 0 294 -26q129 -28 213 -91q85 -67 127 -170q43 -107 43 -264q0 -159 -43 -266q-42 -103 -127 -170q-82 -62 -213 -90q-134 -25 -294 -25q-162 0 -293 25q-132 28 -211 90q-87 66 -129 170
q-43 107 -43 266zM1053 451v141q0 135 -76 184q-77 47 -229 47q-151 0 -228 -47q-76 -49 -76 -184v-141q0 -134 76 -183t228 -49q153 0 229 49t76 183z" />
    <glyph glyph-name="p" unicode="p" horiz-adv-x="1548" 
d="M127 1044h358v-161q64 98 179 145q110 45 274 45q249 0 393 -129q144 -132 144 -424q0 -285 -142 -418q-143 -131 -395 -131q-154 0 -264 43q-113 40 -178 129v-553h-369v1454zM1102 444v156q0 125 -76 174t-227 49q-155 0 -228 -49q-75 -51 -75 -174v-156
q0 -127 75 -176q73 -49 226 -49t229 49t76 176z" />
    <glyph glyph-name="q" unicode="q" horiz-adv-x="1542" 
d="M72 518q0 293 151 426q150 129 414 129q149 0 256 -43q108 -46 168 -139v153h358v-1454h-368v555q-64 -88 -168 -131t-246 -43q-264 0 -414 129q-151 130 -151 418zM1051 444v156q0 121 -74 174q-76 49 -229 49q-150 0 -226 -49q-78 -54 -78 -176v-156q0 -124 78 -174
q76 -49 228 -49q151 0 227 49q74 50 74 176z" />
    <glyph glyph-name="r" unicode="r" horiz-adv-x="1050" 
d="M127 1044h358v-217q41 103 127 160q83 57 232 57h170v-303h-230q-160 0 -223 -51q-65 -53 -65 -170v-520h-369v1044z" />
    <glyph glyph-name="s" unicode="s" horiz-adv-x="1368" 
d="M59 334h373q13 -80 80 -107q64 -30 184 -30q133 0 191 24q57 20 57 78q0 87 -135 96q-90 6 -297 25q-160 12 -297 74q-135 58 -135 245q0 176 160 256q162 78 432 78q285 0 442 -80q153 -79 168 -262h-373q-12 70 -71 94q-67 23 -166 23q-110 0 -168 -21q-60 -22 -60 -73
q0 -77 136 -86q169 -11 297 -23q157 -14 297 -78q135 -65 135 -250t-156 -264q-157 -80 -457 -80q-301 0 -456 82q-160 80 -181 279z" />
    <glyph glyph-name="t" unicode="t" horiz-adv-x="956" 
d="M178 367v409h-139v268h139v312h369v-312h354v-268h-354v-366q0 -74 39 -107q38 -35 127 -35h188v-268h-352q-198 0 -283 88q-88 85 -88 279z" />
    <glyph glyph-name="u" unicode="u" 
d="M117 377v667h368v-638q0 -104 64 -144q62 -39 188 -39q112 0 189 41q75 40 75 146v634h369v-1044h-360v176q-52 -104 -170 -153q-119 -52 -269 -52q-211 0 -333 90q-121 89 -121 316z" />
    <glyph glyph-name="v" unicode="v" horiz-adv-x="1366" 
d="M469 0l-469 1044h375l330 -751l323 751h336l-465 -1044h-430z" />
    <glyph glyph-name="w" unicode="w" horiz-adv-x="1945" 
d="M334 0l-320 1044h346l218 -735l217 735h401l219 -722l213 722h303l-319 -1044h-418l-227 752l-224 -752h-409z" />
    <glyph glyph-name="x" unicode="x" horiz-adv-x="1341" 
d="M938 0l-281 326l-292 -326h-377l475 524l-459 520h418l262 -299l274 299h375l-456 -497l479 -547h-418z" />
    <glyph glyph-name="y" unicode="y" horiz-adv-x="1359" 
d="M168 -147h139q93 0 135 22q40 24 78 107l6 14l-536 1048h383l332 -677l325 677h334l-539 -1128q-57 -108 -90 -154q-45 -63 -96 -102q-53 -38 -119 -53q-77 -17 -158 -17h-194v263z" />
    <glyph glyph-name="z" unicode="z" horiz-adv-x="1265" 
d="M78 266l641 510h-631v268h1079v-268l-641 -508h676v-268h-1124v266z" />
    <glyph glyph-name="uni00A0" unicode="&#xa0;" horiz-adv-x="471" 
 />
    <glyph glyph-name="Agrave" unicode="&#xc0;" horiz-adv-x="1744" 
d="M608 1413h531l608 -1413h-401l-134 313h-720l-134 -313h-360zM610 592h484l-242 569zM696 1552l-385 340h406l321 -340h-342z" />
    <glyph glyph-name="Aacute" unicode="&#xc1;" horiz-adv-x="1744" 
d="M608 1413h531l608 -1413h-401l-134 313h-720l-134 -313h-360zM610 592h484l-242 569zM696 1552l324 340h395l-391 -340h-328z" />
    <glyph glyph-name="Acircumflex" unicode="&#xc2;" horiz-adv-x="1744" 
d="M608 1413h531l608 -1413h-401l-134 313h-720l-134 -313h-360zM610 592h484l-242 569zM311 1552l379 340h359l381 -340h-367l-201 164l-198 -164h-353z" />
    <glyph glyph-name="Atilde" unicode="&#xc3;" horiz-adv-x="1744" 
d="M608 1413h531l608 -1413h-401l-134 313h-720l-134 -313h-360zM610 592h484l-242 569zM664 1896q67 0 120 -16q43 -16 88 -39q68 -38 70 -39q34 -18 70 -18q33 0 55 28q18 27 18 76h238q0 -164 -63 -250q-66 -90 -189 -90q-70 0 -125 19q-50 17 -92 39q-14 7 -37.5 20
t-34.5 19q-34 18 -65 18q-37 0 -58 -27q-20 -26 -20 -80h-238q0 162 64 250q66 90 199 90z" />
    <glyph glyph-name="Adieresis" unicode="&#xc4;" horiz-adv-x="1744" 
d="M608 1413h531l608 -1413h-401l-134 313h-720l-134 -313h-360zM610 592h484l-242 569zM393 1704q0 83 47 127q46 43 140 43q93 0 139 -43q45 -42 45 -127t-45 -127q-46 -43 -139 -43q-94 0 -140 43q-47 44 -47 127zM967 1704q0 83 47 127q46 43 137 43q95 0 141 -43
q45 -42 45 -127t-45 -127q-46 -43 -141 -43q-91 0 -137 43q-47 44 -47 127z" />
    <glyph glyph-name="Aring" unicode="&#xc5;" horiz-adv-x="1744" 
d="M608 1413h531l608 -1413h-401l-134 313h-720l-134 -313h-360zM610 592h484l-242 569zM502 1722q0 99 80 152q79 49 282 49t285 -49q80 -53 80 -152q0 -101 -80 -151q-82 -49 -285 -49t-282 49q-80 50 -80 151zM866 1669q98 0 123 14q27 12 27 39q0 26 -27 41
q-29 13 -123 13q-96 0 -125 -13q-26 -14 -26 -41t26 -39q25 -14 125 -14z" />
    <glyph glyph-name="AE" unicode="&#xc6;" horiz-adv-x="2623" 
d="M1092 1413h1437v-295h-903v-254h696v-284h-696v-285h911v-295h-1296v330h-635l-266 -330h-401zM838 616h403v498z" />
    <glyph glyph-name="Ccedilla" unicode="&#xc7;" horiz-adv-x="1763" 
d="M82 705q0 209 57 346q56 142 162 229q103 84 258 125q151 37 346 37q353 0 563 -115q209 -119 236 -403h-389q-21 134 -127 178q-104 43 -283 43q-95 0 -174 -15t-137 -55q-60 -41 -88 -108q-33 -67 -33 -179v-163q0 -215 119 -285q123 -72 313 -72q173 0 277 43
q105 41 135 166h389q-35 -275 -240 -389q-208 -117 -561 -117q-195 0 -346 37t-258 121q-106 81 -162 227q-57 137 -57 349zM721 -455v174q90 0 121 2q46 3 67 9q23 6 29 16q6 9 6 27q0 32 -37 41q-45 10 -174 10v180h236v-67q118 -9 196 -43q80 -35 80 -144
q0 -100 -90 -153q-91 -52 -256 -52h-178z" />
    <glyph glyph-name="Egrave" unicode="&#xc8;" horiz-adv-x="1527" 
d="M145 1413h1289v-295h-904v-254h697v-284h-697v-285h912v-295h-1297v1413zM668 1552l-385 340h405l322 -340h-342z" />
    <glyph glyph-name="Eacute" unicode="&#xc9;" horiz-adv-x="1527" 
d="M145 1413h1289v-295h-904v-254h697v-284h-697v-285h912v-295h-1297v1413zM610 1552l324 340h395l-391 -340h-328z" />
    <glyph glyph-name="Ecircumflex" unicode="&#xca;" horiz-adv-x="1527" 
d="M145 1413h1289v-295h-904v-254h697v-284h-697v-285h912v-295h-1297v1413zM238 1552l378 340h359l381 -340h-367l-201 164l-198 -164h-352z" />
    <glyph glyph-name="Edieresis" unicode="&#xcb;" horiz-adv-x="1527" 
d="M145 1413h1289v-295h-904v-254h697v-284h-697v-285h912v-295h-1297v1413zM322 1704q0 83 47 127q46 43 139 43t139 -43q45 -42 45 -127t-45 -127q-46 -43 -139 -43t-139 43q-47 44 -47 127zM895 1704q0 83 47 127q46 43 137 43q96 0 142 -43q45 -42 45 -127t-45 -127
q-46 -43 -142 -43q-91 0 -137 43q-47 44 -47 127z" />
    <glyph glyph-name="Igrave" unicode="&#xcc;" horiz-adv-x="677" 
d="M145 1413h385v-1413h-385v1413zM168 1552l-385 340h405l322 -340h-342z" />
    <glyph glyph-name="Iacute" unicode="&#xcd;" horiz-adv-x="677" 
d="M145 1413h385v-1413h-385v1413zM168 1552l324 340h395l-391 -340h-328z" />
    <glyph glyph-name="Icircumflex" unicode="&#xce;" horiz-adv-x="677" 
d="M145 1413h385v-1413h-385v1413zM-219 1552l379 340h358l381 -340h-367l-200 164l-199 -164h-352z" />
    <glyph glyph-name="Idieresis" unicode="&#xcf;" horiz-adv-x="677" 
d="M145 1413h385v-1413h-385v1413zM-133 1704q0 85 45 127q46 43 141 43q94 0 140 -43q45 -42 45 -127t-45 -127q-46 -43 -140 -43q-95 0 -141 43q-45 42 -45 127zM440 1704q0 83 47 127q46 43 138 43q95 0 141 -43q45 -42 45 -127t-45 -127q-46 -43 -141 -43q-92 0 -138 43
q-47 44 -47 127z" />
    <glyph glyph-name="Ntilde" unicode="&#xd1;" horiz-adv-x="1837" 
d="M1165 0l-665 1030v-1030h-355v1413h529l663 -1026v1026h355v-1413h-527zM727 1896q68 0 121 -16q43 -16 88 -39q68 -38 70 -39q34 -18 69 -18q33 0 55 28q19 28 19 76h237q0 -164 -63 -250q-66 -90 -188 -90q-70 0 -125 19q-50 17 -92 39q-14 7 -37.5 20t-34.5 19
q-35 18 -66 18q-36 0 -57 -27t-21 -80h-237q0 164 63 250q66 90 199 90z" />
    <glyph glyph-name="Ograve" unicode="&#xd2;" horiz-adv-x="1931" 
d="M84 717q0 205 59 344q61 143 170 225q113 84 277 121q166 35 377 35q207 0 376 -35q161 -37 277 -121q111 -85 170 -225q57 -134 57 -344q0 -215 -57 -355q-58 -143 -170 -229q-112 -87 -277 -125q-164 -37 -376 -37q-216 0 -377 37q-168 38 -277 125q-111 83 -170 229
q-59 145 -59 355zM1458 635v149q0 202 -123 281q-127 80 -368 80q-242 0 -369 -80q-125 -79 -125 -281v-149q0 -213 125 -289q128 -78 369 -78q240 0 368 78q123 76 123 289zM815 1552l-385 340h406l321 -340h-342z" />
    <glyph glyph-name="Oacute" unicode="&#xd3;" horiz-adv-x="1931" 
d="M84 717q0 205 59 344q61 143 170 225q113 84 277 121q166 35 377 35q207 0 376 -35q161 -37 277 -121q111 -85 170 -225q57 -134 57 -344q0 -215 -57 -355q-58 -143 -170 -229q-112 -87 -277 -125q-164 -37 -376 -37q-216 0 -377 37q-168 38 -277 125q-111 83 -170 229
q-59 145 -59 355zM1458 635v149q0 202 -123 281q-127 80 -368 80q-242 0 -369 -80q-125 -79 -125 -281v-149q0 -213 125 -289q128 -78 369 -78q240 0 368 78q123 76 123 289zM786 1552l324 340h395l-391 -340h-328z" />
    <glyph glyph-name="Ocircumflex" unicode="&#xd4;" horiz-adv-x="1931" 
d="M84 717q0 205 59 344q61 143 170 225q113 84 277 121q166 35 377 35q207 0 376 -35q161 -37 277 -121q111 -85 170 -225q57 -134 57 -344q0 -215 -57 -355q-58 -143 -170 -229q-112 -87 -277 -125q-164 -37 -376 -37q-216 0 -377 37q-168 38 -277 125q-111 83 -170 229
q-59 145 -59 355zM1458 635v149q0 202 -123 281q-127 80 -368 80q-242 0 -369 -80q-125 -79 -125 -281v-149q0 -213 125 -289q128 -78 369 -78q240 0 368 78q123 76 123 289zM408 1552l378 340h359l381 -340h-367l-201 164l-198 -164h-352z" />
    <glyph glyph-name="Otilde" unicode="&#xd5;" horiz-adv-x="1931" 
d="M84 717q0 205 59 344q61 143 170 225q113 84 277 121q166 35 377 35q207 0 376 -35q161 -37 277 -121q111 -85 170 -225q57 -134 57 -344q0 -215 -57 -355q-58 -143 -170 -229q-112 -87 -277 -125q-164 -37 -376 -37q-216 0 -377 37q-168 38 -277 125q-111 83 -170 229
q-59 145 -59 355zM1458 635v149q0 202 -123 281q-127 80 -368 80q-242 0 -369 -80q-125 -79 -125 -281v-149q0 -213 125 -289q128 -78 369 -78q240 0 368 78q123 76 123 289zM764 1901q65 0 121 -17q43 -16 88 -39q9 -5 23 -13.5t25 -15t21 -10.5q34 -18 70 -18q32 0 55 29
q19 29 19 75h237q0 -164 -63 -250q-66 -90 -189 -90q-69 0 -124 19q-53 18 -93 39q-14 7 -37 20t-34 19q-35 18 -66 18q-36 0 -57 -27t-21 -79h-237q0 163 63 249q66 91 199 91z" />
    <glyph glyph-name="Odieresis" unicode="&#xd6;" horiz-adv-x="1931" 
d="M84 717q0 205 59 344q61 143 170 225q113 84 277 121q166 35 377 35q207 0 376 -35q161 -37 277 -121q111 -85 170 -225q57 -134 57 -344q0 -215 -57 -355q-58 -143 -170 -229q-112 -87 -277 -125q-164 -37 -376 -37q-216 0 -377 37q-168 38 -277 125q-111 83 -170 229
q-59 145 -59 355zM1458 635v149q0 202 -123 281q-127 80 -368 80q-242 0 -369 -80q-125 -79 -125 -281v-149q0 -213 125 -289q128 -78 369 -78q240 0 368 78q123 76 123 289zM494 1704q0 83 47 127q46 43 139 43t139 -43q45 -42 45 -127t-45 -127q-46 -43 -139 -43t-139 43
q-47 44 -47 127zM1067 1704q0 83 47 127q46 43 137 43q96 0 142 -43q45 -42 45 -127t-45 -127q-46 -43 -142 -43q-91 0 -137 43q-47 44 -47 127z" />
    <glyph glyph-name="Ugrave" unicode="&#xd9;" horiz-adv-x="1767" 
d="M129 594v819h385v-805q0 -205 98 -272q95 -68 291 -68t291 68q96 69 96 272v805h348v-819q0 -331 -184 -475q-189 -148 -551 -148q-374 0 -575 148q-199 144 -199 475zM764 1552l-385 340h405l322 -340h-342z" />
    <glyph glyph-name="Uacute" unicode="&#xda;" horiz-adv-x="1767" 
d="M129 594v819h385v-805q0 -205 98 -272q95 -68 291 -68t291 68q96 69 96 272v805h348v-819q0 -331 -184 -475q-189 -148 -551 -148q-374 0 -575 148q-199 144 -199 475zM735 1552l324 340h395l-391 -340h-328z" />
    <glyph glyph-name="Ucircumflex" unicode="&#xdb;" horiz-adv-x="1767" 
d="M129 594v819h385v-805q0 -205 98 -272q95 -68 291 -68t291 68q96 69 96 272v805h348v-819q0 -331 -184 -475q-189 -148 -551 -148q-374 0 -575 148q-199 144 -199 475zM326 1552l379 340h358l381 -340h-367l-200 164l-199 -164h-352z" />
    <glyph glyph-name="Udieresis" unicode="&#xdc;" horiz-adv-x="1767" 
d="M129 594v819h385v-805q0 -205 98 -272q95 -68 291 -68t291 68q96 69 96 272v805h348v-819q0 -331 -184 -475q-189 -148 -551 -148q-374 0 -575 148q-199 144 -199 475zM418 1704q0 83 47 127q46 43 139 43t139 -43q45 -42 45 -127t-45 -127q-46 -43 -139 -43t-139 43
q-47 44 -47 127zM991 1704q0 83 47 127q46 43 138 43q95 0 141 -43q45 -42 45 -127t-45 -127q-46 -43 -141 -43q-92 0 -138 43q-47 44 -47 127z" />
    <glyph glyph-name="Yacute" unicode="&#xdd;" horiz-adv-x="1685" 
d="M668 565l-684 848h438l455 -571l415 571h389l-628 -850v-563h-385v565zM690 1552l324 340h395l-391 -340h-328z" />
    <glyph glyph-name="germandbls" unicode="&#xdf;" horiz-adv-x="1581" 
d="M651 268h238q150 0 203 39q55 40 55 129v41q0 75 -53 119q-56 41 -197 41h-250v262h166q142 0 195 35t53 117v34q0 86 -57 125q-59 41 -216 41q-160 0 -225 -53q-67 -52 -67 -194v-1004h-369v1044q0 144 53 236q52 90 144 145q89 53 211 74q120 21 253 21q315 0 480 -103
q162 -104 162 -311q0 -99 -39 -178q-40 -82 -177 -123q142 -27 222 -119q77 -92 77 -258q0 -211 -135 -319q-139 -109 -399 -109h-328v268z" />
    <glyph glyph-name="agrave" unicode="&#xe0;" horiz-adv-x="1433" 
d="M63 289q0 156 113 241q116 84 363 93l413 14v35q0 93 -59 131q-59 35 -176 35q-115 0 -170 -27q-56 -26 -72 -90h-371q21 173 172 262q153 90 441 90q298 0 450 -96q152 -100 152 -305v-672h-354v160q-58 -87 -172 -137q-113 -52 -293 -52q-221 0 -330 86
q-107 82 -107 232zM434 313q0 -59 45 -82q45 -26 148 -26q146 0 235 51q90 53 90 160v37l-325 -13q-97 -3 -148 -26q-45 -23 -45 -82v-19zM242 1571h387l289 -367h-318z" />
    <glyph glyph-name="aacute" unicode="&#xe1;" horiz-adv-x="1433" 
d="M63 289q0 156 113 241q116 84 363 93l413 14v35q0 93 -59 131q-59 35 -176 35q-115 0 -170 -27q-56 -26 -72 -90h-371q21 173 172 262q153 90 441 90q298 0 450 -96q152 -100 152 -305v-672h-354v160q-58 -87 -172 -137q-113 -52 -293 -52q-221 0 -330 86
q-107 82 -107 232zM434 313q0 -59 45 -82q45 -26 148 -26q146 0 235 51q90 53 90 160v37l-325 -13q-97 -3 -148 -26q-45 -23 -45 -82v-19zM551 1204l289 367h377l-359 -367h-307z" />
    <glyph glyph-name="acircumflex" unicode="&#xe2;" horiz-adv-x="1433" 
d="M63 289q0 156 113 241q116 84 363 93l413 14v35q0 93 -59 131q-59 35 -176 35q-115 0 -170 -27q-56 -26 -72 -90h-371q21 173 172 262q153 90 441 90q298 0 450 -96q152 -100 152 -305v-672h-354v160q-58 -87 -172 -137q-113 -52 -293 -52q-221 0 -330 86
q-107 82 -107 232zM434 313q0 -59 45 -82q45 -26 148 -26q146 0 235 51q90 53 90 160v37l-325 -13q-97 -3 -148 -26q-45 -23 -45 -82v-19zM207 1202l332 367h342l331 -367h-335l-175 182l-174 -182h-321z" />
    <glyph glyph-name="atilde" unicode="&#xe3;" horiz-adv-x="1433" 
d="M63 289q0 156 113 241q116 84 363 93l413 14v35q0 93 -59 131q-59 35 -176 35q-115 0 -170 -27q-56 -26 -72 -90h-371q21 173 172 262q153 90 441 90q298 0 450 -96q152 -100 152 -305v-672h-354v160q-58 -87 -172 -137q-113 -52 -293 -52q-221 0 -330 86
q-107 82 -107 232zM434 313q0 -59 45 -82q45 -26 148 -26q146 0 235 51q90 53 90 160v37l-325 -13q-97 -3 -148 -26q-45 -23 -45 -82v-19zM532 1579q71 0 115 -20q38 -17 80 -50q10 -8 66 -47q28 -22 63 -22q34 0 55 37q19 36 19 92h227q0 -183 -63 -275q-64 -98 -189 -98
q-65 0 -119 23q-47 20 -84 49q-26 17 -65 47q-31 22 -62 22q-38 0 -57 -32q-20 -33 -20 -99h-228q0 174 64 275q64 98 198 98z" />
    <glyph glyph-name="adieresis" unicode="&#xe4;" horiz-adv-x="1433" 
d="M63 289q0 156 113 241q116 84 363 93l413 14v35q0 93 -59 131q-59 35 -176 35q-115 0 -170 -27q-56 -26 -72 -90h-371q21 173 172 262q153 90 441 90q298 0 450 -96q152 -100 152 -305v-672h-354v160q-58 -87 -172 -137q-113 -52 -293 -52q-221 0 -330 86
q-107 82 -107 232zM434 313q0 -59 45 -82q45 -26 148 -26q146 0 235 51q90 53 90 160v37l-325 -13q-97 -3 -148 -26q-45 -23 -45 -82v-19zM246 1391q0 83 47 127q46 43 139 43t139 -43q45 -42 45 -127t-45 -127q-46 -43 -139 -43t-139 43q-47 44 -47 127zM803 1391
q0 83 47 127q46 43 139 43t139 -43t46 -127t-46 -127t-139 -43t-139 43q-47 44 -47 127z" />
    <glyph glyph-name="aring" unicode="&#xe5;" horiz-adv-x="1433" 
d="M63 289q0 156 113 241q116 84 363 93l413 14v35q0 93 -59 131q-59 35 -176 35q-115 0 -170 -27q-56 -26 -72 -90h-371q21 173 172 262q153 90 441 90q298 0 450 -96q152 -100 152 -305v-672h-354v160q-58 -87 -172 -137q-113 -52 -293 -52q-221 0 -330 86
q-107 82 -107 232zM434 313q0 -59 45 -82q45 -26 148 -26q146 0 235 51q90 53 90 160v37l-325 -13q-97 -3 -148 -26q-45 -23 -45 -82v-19zM383 1389q0 100 80 159q80 56 254 56q178 0 258 -56q80 -59 80 -159q0 -104 -80 -160q-79 -58 -258 -58q-175 0 -254 58
q-80 56 -80 160zM850 1389q0 33 -27 51q-29 16 -104 16q-74 0 -103 -16q-28 -19 -28 -51q0 -33 28 -52q27 -18 103 -18q77 0 104 18t27 52z" />
    <glyph glyph-name="ae" unicode="&#xe6;" horiz-adv-x="2306" 
d="M63 307q0 161 111 250q107 88 365 88h415v31q0 89 -59 127q-59 35 -176 35q-115 0 -170 -27q-56 -26 -72 -90h-371q21 172 173 262q153 90 438 90q162 0 272 -39q110 -40 174 -116q69 75 185 116q110 39 262 39q290 0 458 -121q166 -123 166 -415v-66h-919v-25
q0 -131 71 -184t207 -53q129 0 191 33q64 34 84 102h362q-41 -194 -200 -283q-162 -90 -437 -90q-179 0 -301 52q-123 52 -186 167q-66 -96 -199 -157q-139 -62 -362 -62q-249 0 -365 90q-117 89 -117 246zM1593 842q-129 0 -202 -43q-76 -46 -76 -148h559q-3 102 -70 148
q-67 43 -211 43zM641 205q139 0 225 51q88 52 88 160v51h-325q-102 0 -150 -31q-45 -33 -45 -100v-19q0 -59 49 -86q45 -26 158 -26z" />
    <glyph glyph-name="ccedilla" unicode="&#xe7;" horiz-adv-x="1390" 
d="M74 522q0 304 157 428q156 123 486 123q270 0 436 -84q159 -85 180 -289h-370q-15 60 -66 93q-53 30 -182 30q-141 0 -203 -45q-66 -48 -66 -168v-170q0 -127 68 -174t201 -47q129 0 182 35q56 37 70 92h372q-27 -185 -178 -280t-446 -95q-161 0 -281 27q-125 28 -201 90
q-78 63 -118 170q-41 109 -41 264zM526 -459v174q90 0 121 2q47 3 68 9t28 16t7 27q0 32 -37 41q-45 10 -174 10v180h235v-68q119 -9 197 -43q80 -35 80 -143q0 -101 -90 -154q-89 -51 -256 -51h-179z" />
    <glyph glyph-name="egrave" unicode="&#xe8;" horiz-adv-x="1423" 
d="M70 520q0 292 166 424q166 129 477 129q305 0 473 -119q166 -120 166 -405v-66h-918v-37q0 -130 72 -184q71 -53 207 -53q128 0 190 33q64 34 84 102h363q-41 -194 -201 -283q-166 -90 -436 -90q-315 0 -477 125q-166 126 -166 424zM713 842q-127 0 -201 -41
q-75 -41 -78 -139h559q-3 98 -71 139t-209 41zM217 1571h387l289 -367h-318z" />
    <glyph glyph-name="eacute" unicode="&#xe9;" horiz-adv-x="1423" 
d="M70 520q0 292 166 424q166 129 477 129q305 0 473 -119q166 -120 166 -405v-66h-918v-37q0 -130 72 -184q71 -53 207 -53q128 0 190 33q64 34 84 102h363q-41 -194 -201 -283q-166 -90 -436 -90q-315 0 -477 125q-166 126 -166 424zM713 842q-127 0 -201 -41
q-75 -41 -78 -139h559q-3 98 -71 139t-209 41zM530 1204l289 367h377l-358 -367h-308z" />
    <glyph glyph-name="ecircumflex" unicode="&#xea;" horiz-adv-x="1423" 
d="M70 520q0 292 166 424q166 129 477 129q305 0 473 -119q166 -120 166 -405v-66h-918v-37q0 -130 72 -184q71 -53 207 -53q128 0 190 33q64 34 84 102h363q-41 -194 -201 -283q-166 -90 -436 -90q-315 0 -477 125q-166 126 -166 424zM713 842q-127 0 -201 -41
q-75 -41 -78 -139h559q-3 98 -71 139t-209 41zM209 1204l332 367h342l331 -367h-335l-174 182l-175 -182h-321z" />
    <glyph glyph-name="edieresis" unicode="&#xeb;" horiz-adv-x="1423" 
d="M70 520q0 292 166 424q166 129 477 129q305 0 473 -119q166 -120 166 -405v-66h-918v-37q0 -130 72 -184q71 -53 207 -53q128 0 190 33q64 34 84 102h363q-41 -194 -201 -283q-166 -90 -436 -90q-315 0 -477 125q-166 126 -166 424zM713 842q-127 0 -201 -41
q-75 -41 -78 -139h559q-3 98 -71 139t-209 41zM248 1391q0 83 47 127q46 43 139 43t139 -43q45 -42 45 -127t-45 -127q-46 -43 -139 -43t-139 43q-47 44 -47 127zM805 1391q0 83 47 127q46 43 139 43t139 -43t46 -127t-46 -127t-139 -43t-139 43q-47 44 -47 127z" />
    <glyph glyph-name="igrave" unicode="&#xec;" horiz-adv-x="620" 
d="M127 1044h369v-1044h-369v1044zM-203 1571h387l289 -367h-317z" />
    <glyph glyph-name="iacute" unicode="&#xed;" horiz-adv-x="620" 
d="M127 1044h369v-1044h-369v1044zM158 1204l288 367h377l-358 -367h-307z" />
    <glyph glyph-name="icircumflex" unicode="&#xee;" horiz-adv-x="620" 
d="M127 1044h369v-1044h-369v1044zM-190 1204l331 367h342l332 -367h-336l-174 182l-174 -182h-321z" />
    <glyph glyph-name="idieresis" unicode="&#xef;" horiz-adv-x="620" 
d="M127 1044h369v-1044h-369v1044zM-152 1391q0 84 46 127t141 43q93 0 139 -43q45 -42 45 -127t-45 -127q-46 -43 -139 -43q-95 0 -141 43t-46 127zM406 1391q0 83 47 127q46 43 139 43t139 -43q45 -42 45 -127t-45 -127q-46 -43 -139 -43t-139 43q-47 44 -47 127z" />
    <glyph glyph-name="ntilde" unicode="&#xf1;" 
d="M1012 0v637q0 104 -66 145q-62 39 -188 39q-118 0 -189 -41q-73 -43 -73 -143v-637h-369v1044h358v-180q52 106 170 158q117 51 269 51q219 0 340 -92q116 -94 116 -307v-674h-368zM573 1579q71 0 115 -20q38 -17 80 -50q10 -8 66 -47q28 -22 63 -22q34 0 55 37
q19 36 19 92h227q0 -183 -63 -275q-64 -98 -189 -98q-65 0 -119 23q-47 20 -84 49q-26 17 -65 47q-31 22 -62 22q-38 0 -57 -32q-20 -33 -20 -99h-228q0 174 64 275q64 98 198 98z" />
    <glyph glyph-name="ograve" unicode="&#xf2;" horiz-adv-x="1497" 
d="M72 522q0 157 43 264q42 104 129 170q81 63 211 91q121 26 293 26q170 0 294 -26q129 -28 213 -91q85 -67 127 -170q43 -107 43 -264q0 -159 -43 -266q-42 -103 -127 -170q-82 -62 -213 -90q-134 -25 -294 -25q-162 0 -293 25q-132 28 -211 90q-87 66 -129 170
q-43 107 -43 266zM1053 451v141q0 135 -76 184q-77 47 -229 47q-151 0 -228 -47q-76 -49 -76 -184v-141q0 -134 76 -183t228 -49q153 0 229 49t76 183zM236 1571h387l288 -367h-317z" />
    <glyph glyph-name="oacute" unicode="&#xf3;" horiz-adv-x="1497" 
d="M72 522q0 157 43 264q42 104 129 170q81 63 211 91q121 26 293 26q170 0 294 -26q129 -28 213 -91q85 -67 127 -170q43 -107 43 -264q0 -159 -43 -266q-42 -103 -127 -170q-82 -62 -213 -90q-134 -25 -294 -25q-162 0 -293 25q-132 28 -211 90q-87 66 -129 170
q-43 107 -43 266zM1053 451v141q0 135 -76 184q-77 47 -229 47q-151 0 -228 -47q-76 -49 -76 -184v-141q0 -134 76 -183t228 -49q153 0 229 49t76 183zM580 1204l288 367h377l-358 -367h-307z" />
    <glyph glyph-name="ocircumflex" unicode="&#xf4;" horiz-adv-x="1497" 
d="M72 522q0 157 43 264q42 104 129 170q81 63 211 91q121 26 293 26q170 0 294 -26q129 -28 213 -91q85 -67 127 -170q43 -107 43 -264q0 -159 -43 -266q-42 -103 -127 -170q-82 -62 -213 -90q-134 -25 -294 -25q-162 0 -293 25q-132 28 -211 90q-87 66 -129 170
q-43 107 -43 266zM1053 451v141q0 135 -76 184q-77 47 -229 47q-151 0 -228 -47q-76 -49 -76 -184v-141q0 -134 76 -183t228 -49q153 0 229 49t76 183zM248 1204l332 367h342l331 -367h-335l-175 182l-174 -182h-321z" />
    <glyph glyph-name="otilde" unicode="&#xf5;" horiz-adv-x="1497" 
d="M72 522q0 157 43 264q42 104 129 170q81 63 211 91q121 26 293 26q170 0 294 -26q129 -28 213 -91q85 -67 127 -170q43 -107 43 -264q0 -159 -43 -266q-42 -103 -127 -170q-82 -62 -213 -90q-134 -25 -294 -25q-162 0 -293 25q-132 28 -211 90q-87 66 -129 170
q-43 107 -43 266zM1053 451v141q0 135 -76 184q-77 47 -229 47q-151 0 -228 -47q-76 -49 -76 -184v-141q0 -134 76 -183t228 -49q153 0 229 49t76 183zM567 1579q71 0 115 -20q38 -17 80 -50q18 -14 65 -47q28 -22 64 -22q34 0 55 37q19 36 19 92h227q0 -181 -64 -275
q-64 -98 -188 -98q-65 0 -119 23q-47 20 -84 49q-26 17 -65 47q-31 22 -62 22q-38 0 -57 -32q-21 -35 -21 -99h-227q0 174 64 275q64 98 198 98z" />
    <glyph glyph-name="odieresis" unicode="&#xf6;" horiz-adv-x="1497" 
d="M72 522q0 157 43 264q42 104 129 170q81 63 211 91q121 26 293 26q170 0 294 -26q129 -28 213 -91q85 -67 127 -170q43 -107 43 -264q0 -159 -43 -266q-42 -103 -127 -170q-82 -62 -213 -90q-134 -25 -294 -25q-162 0 -293 25q-132 28 -211 90q-87 66 -129 170
q-43 107 -43 266zM1053 451v141q0 135 -76 184q-77 47 -229 47q-151 0 -228 -47q-76 -49 -76 -184v-141q0 -134 76 -183t228 -49q153 0 229 49t76 183zM285 1391q0 83 47 127q46 43 139 43t139 -43q45 -42 45 -127t-45 -127q-46 -43 -139 -43t-139 43q-47 44 -47 127z
M842 1391q0 83 47 127q46 43 139 43t139 -43q45 -42 45 -127t-45 -127q-46 -43 -139 -43t-139 43q-47 44 -47 127z" />
    <glyph glyph-name="ugrave" unicode="&#xf9;" 
d="M117 377v667h368v-638q0 -104 64 -144q62 -39 188 -39q112 0 189 41q75 40 75 146v634h369v-1044h-360v176q-52 -104 -170 -153q-119 -52 -269 -52q-211 0 -333 90q-121 89 -121 316zM242 1571h387l289 -367h-318z" />
    <glyph glyph-name="uacute" unicode="&#xfa;" 
d="M117 377v667h368v-638q0 -104 64 -144q62 -39 188 -39q112 0 189 41q75 40 75 146v634h369v-1044h-360v176q-52 -104 -170 -153q-119 -52 -269 -52q-211 0 -333 90q-121 89 -121 316zM586 1204l288 367h377l-358 -367h-307z" />
    <glyph glyph-name="ucircumflex" unicode="&#xfb;" 
d="M117 377v667h368v-638q0 -104 64 -144q62 -39 188 -39q112 0 189 41q75 40 75 146v634h369v-1044h-360v176q-52 -104 -170 -153q-119 -52 -269 -52q-211 0 -333 90q-121 89 -121 316zM242 1204l331 367h342l332 -367h-336l-174 182l-174 -182h-321z" />
    <glyph glyph-name="udieresis" unicode="&#xfc;" 
d="M117 377v667h368v-638q0 -104 64 -144q62 -39 188 -39q112 0 189 41q75 40 75 146v634h369v-1044h-360v176q-52 -104 -170 -153q-119 -52 -269 -52q-211 0 -333 90q-121 89 -121 316zM281 1391q0 83 47 127q46 43 139 43t139 -43q45 -42 45 -127t-45 -127
q-46 -43 -139 -43t-139 43q-47 44 -47 127zM838 1391q0 83 47 127q46 43 139 43t139 -43q45 -42 45 -127t-45 -127q-46 -43 -139 -43t-139 43q-47 44 -47 127z" />
    <glyph glyph-name="yacute" unicode="&#xfd;" horiz-adv-x="1359" 
d="M168 -147h139q93 0 135 22q40 24 78 107l6 14l-536 1048h383l332 -677l325 677h334l-539 -1128q-57 -108 -90 -154q-45 -63 -96 -102q-53 -38 -119 -53q-77 -17 -158 -17h-194v263zM541 1204l288 367h377l-358 -367h-307z" />
    <glyph glyph-name="ydieresis" unicode="&#xff;" horiz-adv-x="1359" 
d="M168 -147h139q93 0 135 22q40 24 78 107l6 14l-536 1048h383l332 -677l325 677h334l-539 -1128q-57 -108 -90 -154q-45 -63 -96 -102q-53 -38 -119 -53q-77 -17 -158 -17h-194v263zM229 1391q0 83 47 127q46 43 140 43q93 0 139 -43q45 -42 45 -127t-45 -127
q-46 -43 -139 -43q-94 0 -140 43q-47 44 -47 127zM786 1391q0 82 48 127q46 43 139 43t139 -43q45 -42 45 -127t-45 -127q-46 -43 -139 -43t-139 43q-48 45 -48 127z" />
    <glyph glyph-name="Amacron" unicode="&#x100;" horiz-adv-x="1744" 
d="M608 1413h531l608 -1413h-401l-134 313h-720l-134 -313h-360zM610 592h484l-242 569zM465 1608v229h805v-229h-805z" />
    <glyph glyph-name="amacron" unicode="&#x101;" horiz-adv-x="1433" 
d="M63 289q0 156 113 241q116 84 363 93l413 14v35q0 93 -59 131q-59 35 -176 35q-115 0 -170 -27q-56 -26 -72 -90h-371q21 173 172 262q153 90 441 90q298 0 450 -96q152 -100 152 -305v-672h-354v160q-58 -87 -172 -137q-113 -52 -293 -52q-221 0 -330 86
q-107 82 -107 232zM434 313q0 -59 45 -82q45 -26 148 -26q146 0 235 51q90 53 90 160v37l-325 -13q-97 -3 -148 -26q-45 -23 -45 -82v-19zM322 1278v217h792v-217h-792z" />
    <glyph glyph-name="Abreve" unicode="&#x102;" horiz-adv-x="1744" 
d="M608 1413h531l608 -1413h-401l-134 313h-720l-134 -313h-360zM610 592h484l-242 569zM399 1892h279q6 -74 51 -108q42 -33 137 -33q96 0 140 33q45 34 51 108h278q-6 -179 -121 -268q-116 -90 -348 -90q-230 0 -346 90q-118 89 -121 268z" />
    <glyph glyph-name="abreve" unicode="&#x103;" horiz-adv-x="1433" 
d="M63 289q0 156 113 241q116 84 363 93l413 14v35q0 93 -59 131q-59 35 -176 35q-115 0 -170 -27q-56 -26 -72 -90h-371q21 173 172 262q153 90 441 90q298 0 450 -96q152 -100 152 -305v-672h-354v160q-58 -87 -172 -137q-113 -52 -293 -52q-221 0 -330 86
q-107 82 -107 232zM434 313q0 -59 45 -82q45 -26 148 -26q146 0 235 51q90 53 90 160v37l-325 -13q-97 -3 -148 -26q-45 -23 -45 -82v-19zM272 1571h271q3 -85 45 -127q39 -39 131 -39t131 39q40 40 43 127h270q0 -191 -108 -285q-113 -96 -336 -96t-336 96
q-111 94 -111 285z" />
    <glyph glyph-name="Aogonek" unicode="&#x104;" horiz-adv-x="1744" 
d="M608 1413h531l608 -1413h-143q-76 -9 -111 -39q-33 -26 -33 -61q0 -42 39 -62q42 -22 154 -22v-236h-131q-171 0 -265 55q-96 59 -96 168q0 84 43 142q39 56 125 92l-117 276h-720l-134 -313h-360zM610 592h484l-242 569z" />
    <glyph glyph-name="aogonek" unicode="&#x105;" horiz-adv-x="1433" 
d="M63 289q0 156 113 241q116 84 363 93l413 14v35q0 93 -59 131q-59 35 -176 35q-115 0 -170 -27q-56 -26 -72 -90h-371q21 173 172 262q153 90 441 90q298 0 450 -96q152 -100 152 -305v-672h-121q-77 -6 -115 -35q-32 -25 -32 -65q0 -42 39 -62q42 -22 149 -22v-236h-125
q-166 0 -264 55t-98 166q0 89 57 146q56 60 156 80v133q-58 -87 -172 -137q-113 -52 -293 -52q-221 0 -330 86q-107 82 -107 232zM434 313q0 -59 45 -82q45 -26 148 -26q146 0 235 51q90 53 90 160v37l-325 -13q-97 -3 -148 -26q-45 -23 -45 -82v-19z" />
    <glyph glyph-name="Cacute" unicode="&#x106;" horiz-adv-x="1765" 
d="M84 705q0 209 57 346q56 142 162 229q103 84 258 125q151 37 346 37q353 0 563 -115q209 -119 236 -403h-389q-21 134 -127 178q-104 43 -283 43q-95 0 -174 -15t-137 -55q-60 -41 -88 -108q-33 -67 -33 -179v-163q0 -215 119 -285q123 -72 313 -72q173 0 277 43
q105 41 135 166h389q-35 -275 -240 -389q-208 -117 -561 -117q-195 0 -346 37t-258 121q-106 81 -162 227q-57 137 -57 349zM727 1552l324 340h395l-391 -340h-328z" />
    <glyph glyph-name="cacute" unicode="&#x107;" horiz-adv-x="1390" 
d="M74 522q0 304 157 428q156 123 486 123q270 0 436 -84q159 -85 180 -289h-370q-15 60 -66 93q-53 30 -182 30q-141 0 -203 -45q-66 -48 -66 -168v-170q0 -127 68 -174t201 -47q129 0 182 35q56 37 70 92h372q-27 -185 -178 -280t-446 -95q-161 0 -281 27q-125 28 -201 90
q-78 63 -118 170q-41 109 -41 264zM528 1204l289 367h377l-358 -367h-308z" />
    <glyph glyph-name="Ccircumflex" unicode="&#x108;" horiz-adv-x="1765" 
d="M84 705q0 209 57 346q56 142 162 229q103 84 258 125q151 37 346 37q353 0 563 -115q209 -119 236 -403h-389q-21 134 -127 178q-104 43 -283 43q-95 0 -174 -15t-137 -55q-60 -41 -88 -108q-33 -67 -33 -179v-163q0 -215 119 -285q123 -72 313 -72q173 0 277 43
q105 41 135 166h389q-35 -275 -240 -389q-208 -117 -561 -117q-195 0 -346 37t-258 121q-106 81 -162 227q-57 137 -57 349zM350 1552l379 340h358l381 -340h-366l-201 164l-199 -164h-352z" />
    <glyph glyph-name="ccircumflex" unicode="&#x109;" horiz-adv-x="1390" 
d="M74 522q0 304 157 428q156 123 486 123q270 0 436 -84q159 -85 180 -289h-370q-15 60 -66 93q-53 30 -182 30q-141 0 -203 -45q-66 -48 -66 -168v-170q0 -127 68 -174t201 -47q129 0 182 35q56 37 70 92h372q-27 -185 -178 -280t-446 -95q-161 0 -281 27q-125 28 -201 90
q-78 63 -118 170q-41 109 -41 264zM203 1202l332 367h342l331 -367h-336l-174 182l-174 -182h-321z" />
    <glyph glyph-name="Cdotaccent" unicode="&#x10a;" horiz-adv-x="1765" 
d="M84 705q0 209 57 346q56 142 162 229q103 84 258 125q151 37 346 37q353 0 563 -115q209 -119 236 -403h-389q-21 134 -127 178q-104 43 -283 43q-95 0 -174 -15t-137 -55q-60 -41 -88 -108q-33 -67 -33 -179v-163q0 -215 119 -285q123 -72 313 -72q173 0 277 43
q105 41 135 166h389q-35 -275 -240 -389q-208 -117 -561 -117q-195 0 -346 37t-258 121q-106 81 -162 227q-57 137 -57 349zM711 1722q0 84 49 127q50 41 149 41q100 0 150 -41q47 -44 47 -127q0 -86 -47 -127q-49 -43 -150 -43q-100 0 -149 43q-49 40 -49 127z" />
    <glyph glyph-name="cdotaccent" unicode="&#x10b;" horiz-adv-x="1390" 
d="M74 522q0 304 157 428q156 123 486 123q270 0 436 -84q159 -85 180 -289h-370q-15 60 -66 93q-53 30 -182 30q-141 0 -203 -45q-66 -48 -66 -168v-170q0 -127 68 -174t201 -47q129 0 182 35q56 37 70 92h372q-27 -185 -178 -280t-446 -95q-161 0 -281 27q-125 28 -201 90
q-78 63 -118 170q-41 109 -41 264zM504 1366q0 82 55 125q53 41 150 41q98 0 151 -41q53 -44 53 -125q0 -84 -53 -125q-52 -43 -151 -43q-98 0 -150 43q-55 40 -55 125z" />
    <glyph glyph-name="Ccaron" unicode="&#x10c;" horiz-adv-x="1765" 
d="M84 705q0 209 57 346q56 142 162 229q103 84 258 125q151 37 346 37q353 0 563 -115q209 -119 236 -403h-389q-21 134 -127 178q-104 43 -283 43q-95 0 -174 -15t-137 -55q-60 -41 -88 -108q-33 -67 -33 -179v-163q0 -215 119 -285q123 -72 313 -72q173 0 277 43
q105 41 135 166h389q-35 -275 -240 -389q-208 -117 -561 -117q-195 0 -346 37t-258 121q-106 81 -162 227q-57 137 -57 349zM346 1892h367l198 -163l199 163h354l-381 -340h-356z" />
    <glyph glyph-name="ccaron" unicode="&#x10d;" horiz-adv-x="1390" 
d="M74 522q0 304 157 428q156 123 486 123q270 0 436 -84q159 -85 180 -289h-370q-15 60 -66 93q-53 30 -182 30q-141 0 -203 -45q-66 -48 -66 -168v-170q0 -127 68 -174t201 -47q129 0 182 35q56 37 70 92h372q-27 -185 -178 -280t-446 -95q-161 0 -281 27q-125 28 -201 90
q-78 63 -118 170q-41 109 -41 264zM205 1571h336l174 -185l174 185h321l-331 -367h-342z" />
    <glyph glyph-name="Emacron" unicode="&#x112;" horiz-adv-x="1527" 
d="M145 1413h1289v-295h-904v-254h697v-284h-697v-285h912v-295h-1297v1413zM393 1608v229h805v-229h-805z" />
    <glyph glyph-name="emacron" unicode="&#x113;" horiz-adv-x="1423" 
d="M70 520q0 292 166 424q166 129 477 129q305 0 473 -119q166 -120 166 -405v-66h-918v-37q0 -130 72 -184q71 -53 207 -53q128 0 190 33q64 34 84 102h363q-41 -194 -201 -283q-166 -90 -436 -90q-315 0 -477 125q-166 126 -166 424zM713 842q-127 0 -201 -41
q-75 -41 -78 -139h559q-3 98 -71 139t-209 41zM315 1278v217h793v-217h-793z" />
    <glyph glyph-name="Ebreve" unicode="&#x114;" horiz-adv-x="1527" 
d="M145 1413h1289v-295h-904v-254h697v-284h-697v-285h912v-295h-1297v1413zM328 1892h278q6 -74 51 -108q42 -33 138 -33q95 0 139 33q45 34 51 108h279q-6 -179 -121 -268q-116 -90 -348 -90q-230 0 -346 90q-118 89 -121 268z" />
    <glyph glyph-name="ebreve" unicode="&#x115;" horiz-adv-x="1423" 
d="M70 520q0 292 166 424q166 129 477 129q305 0 473 -119q166 -120 166 -405v-66h-918v-37q0 -130 72 -184q71 -53 207 -53q128 0 190 33q64 34 84 102h363q-41 -194 -201 -283q-166 -90 -436 -90q-315 0 -477 125q-166 126 -166 424zM713 842q-127 0 -201 -41
q-75 -41 -78 -139h559q-3 98 -71 139t-209 41zM266 1571h271q3 -85 45 -127q39 -39 131 -39t131 39q40 40 43 127h270q0 -191 -108 -285q-113 -96 -336 -96t-336 96q-111 94 -111 285z" />
    <glyph glyph-name="Edotaccent" unicode="&#x116;" horiz-adv-x="1527" 
d="M145 1413h1289v-295h-904v-254h697v-284h-697v-285h912v-295h-1297v1413zM604 1722q0 84 49 127q50 41 150 41q99 0 149 -41q47 -44 47 -127q0 -86 -47 -127q-49 -43 -149 -43q-101 0 -150 43q-49 40 -49 127z" />
    <glyph glyph-name="edotaccent" unicode="&#x117;" horiz-adv-x="1423" 
d="M70 520q0 292 166 424q166 129 477 129q305 0 473 -119q166 -120 166 -405v-66h-918v-37q0 -130 72 -184q71 -53 207 -53q128 0 190 33q64 34 84 102h363q-41 -194 -201 -283q-166 -90 -436 -90q-315 0 -477 125q-166 126 -166 424zM713 842q-127 0 -201 -41
q-75 -41 -78 -139h559q-3 98 -71 139t-209 41zM508 1366q0 82 55 125q53 41 150 41q98 0 151 -41q54 -45 54 -125q0 -83 -54 -125q-52 -43 -151 -43q-98 0 -150 43q-55 40 -55 125z" />
    <glyph glyph-name="Eogonek" unicode="&#x118;" horiz-adv-x="1527" 
d="M1319 -420q-164 0 -264 53q-99 55 -99 162q0 74 50 127q51 54 145 78h-1006v1413h1289v-295h-904v-254h697v-284h-697v-285h912v-295q-95 -6 -142 -35q-45 -26 -45 -63q0 -44 39 -64q42 -22 148 -22v-236h-123z" />
    <glyph glyph-name="eogonek" unicode="&#x119;" horiz-adv-x="1423" 
d="M70 520q0 292 166 424q166 129 477 129q305 0 473 -119q166 -120 166 -405v-66h-918v-37q0 -130 72 -184q71 -53 207 -53q128 0 190 33q64 34 84 102h363q-24 -100 -80 -172q-58 -70 -150 -117q-14 -8 -28 -14q-12 -7 -29 -14q-63 -29 -123 -66q-49 -27 -49 -67
q0 -37 41 -58q39 -20 151 -20v-236h-116q-174 0 -275 55q-100 54 -100 164q0 56 31 101q28 43 88 71q-313 0 -475 125q-166 126 -166 424zM713 842q-127 0 -201 -41q-75 -41 -78 -139h559q-3 98 -71 139t-209 41z" />
    <glyph glyph-name="Ecaron" unicode="&#x11a;" horiz-adv-x="1527" 
d="M145 1413h1289v-295h-904v-254h697v-284h-697v-285h912v-295h-1297v1413zM238 1892h366l199 -163l198 163h355l-381 -340h-357z" />
    <glyph glyph-name="ecaron" unicode="&#x11b;" horiz-adv-x="1423" 
d="M70 520q0 292 166 424q166 129 477 129q305 0 473 -119q166 -120 166 -405v-66h-918v-37q0 -130 72 -184q71 -53 207 -53q128 0 190 33q64 34 84 102h363q-41 -194 -201 -283q-166 -90 -436 -90q-315 0 -477 125q-166 126 -166 424zM713 842q-127 0 -201 -41
q-75 -41 -78 -139h559q-3 98 -71 139t-209 41zM209 1571h336l174 -185l174 185h321l-331 -367h-342z" />
    <glyph glyph-name="Gcircumflex" unicode="&#x11c;" horiz-adv-x="1818" 
d="M84 705q0 208 57 348q56 143 162 227q104 84 260 125q151 37 348 37q353 0 562 -111q205 -114 245 -385h-389q-30 116 -133 160q-106 41 -285 41q-206 0 -321 -74q-115 -77 -115 -285v-167q0 -211 113 -281q115 -74 321 -74q216 0 326 58q110 60 125 190h-442v256h817
v-156q0 -173 -58 -292q-60 -126 -166 -201q-113 -80 -260 -113q-151 -37 -340 -37q-197 0 -348 37q-153 37 -260 121q-106 81 -162 227q-57 137 -57 349zM352 1552l379 340h359l380 -340h-366l-201 164l-198 -164h-353z" />
    <glyph glyph-name="gcircumflex" unicode="&#x11d;" horiz-adv-x="1550" 
d="M117 -86h379q35 -60 98 -86q64 -25 178 -25q154 0 219 56q66 57 66 221v78q-65 -83 -168 -123q-104 -39 -252 -39q-263 0 -412 125q-149 122 -149 405q0 290 149 418q147 129 412 129q151 0 258 -43q109 -47 172 -139v153h363v-958q0 -281 -168 -403q-171 -121 -496 -121
q-306 0 -461 94q-158 96 -188 258zM1057 469v129q0 125 -72 176q-70 49 -231 49q-164 0 -232 -51q-73 -52 -73 -176v-133q0 -119 73 -168q71 -51 232 -51q163 0 231 51q72 51 72 174zM258 1204l332 367h342l332 -367h-336l-174 182l-174 -182h-322z" />
    <glyph glyph-name="Gbreve" unicode="&#x11e;" horiz-adv-x="1818" 
d="M84 705q0 208 57 348q56 143 162 227q104 84 260 125q151 37 348 37q353 0 562 -111q205 -114 245 -385h-389q-30 116 -133 160q-106 41 -285 41q-206 0 -321 -74q-115 -77 -115 -285v-167q0 -211 113 -281q115 -74 321 -74q216 0 326 58q110 60 125 190h-442v256h817
v-156q0 -173 -58 -292q-60 -126 -166 -201q-113 -80 -260 -113q-151 -37 -340 -37q-197 0 -348 37q-153 37 -260 121q-106 81 -162 227q-57 137 -57 349zM442 1892h279q6 -74 51 -108q42 -33 137 -33q96 0 140 33q45 34 51 108h278q-6 -179 -121 -268q-116 -90 -348 -90
q-230 0 -346 90q-118 89 -121 268z" />
    <glyph glyph-name="gbreve" unicode="&#x11f;" horiz-adv-x="1550" 
d="M117 -86h379q35 -60 98 -86q64 -25 178 -25q154 0 219 56q66 57 66 221v78q-65 -83 -168 -123q-104 -39 -252 -39q-263 0 -412 125q-149 122 -149 405q0 290 149 418q147 129 412 129q151 0 258 -43q109 -47 172 -139v153h363v-958q0 -281 -168 -403q-171 -121 -496 -121
q-306 0 -461 94q-158 96 -188 258zM1057 469v129q0 125 -72 176q-70 49 -231 49q-164 0 -232 -51q-73 -52 -73 -176v-133q0 -119 73 -168q71 -51 232 -51q163 0 231 51q72 51 72 174zM313 1571h271q3 -85 45 -127q39 -39 131 -39t131 39q40 40 43 127h270q0 -191 -108 -285
q-113 -96 -336 -96t-336 96q-111 94 -111 285z" />
    <glyph glyph-name="Gdotaccent" unicode="&#x120;" horiz-adv-x="1818" 
d="M84 705q0 208 57 348q56 143 162 227q104 84 260 125q151 37 348 37q353 0 562 -111q205 -114 245 -385h-389q-30 116 -133 160q-106 41 -285 41q-206 0 -321 -74q-115 -77 -115 -285v-167q0 -211 113 -281q115 -74 321 -74q216 0 326 58q110 60 125 190h-442v256h817
v-156q0 -173 -58 -292q-60 -126 -166 -201q-113 -80 -260 -113q-151 -37 -340 -37q-197 0 -348 37q-153 37 -260 121q-106 81 -162 227q-57 137 -57 349zM715 1722q0 84 49 127q50 41 149 41q100 0 150 -41q47 -44 47 -127q0 -86 -47 -127q-49 -43 -150 -43q-100 0 -149 43
q-49 40 -49 127z" />
    <glyph glyph-name="gdotaccent" unicode="&#x121;" horiz-adv-x="1550" 
d="M117 -86h379q35 -60 98 -86q64 -25 178 -25q154 0 219 56q66 57 66 221v78q-65 -83 -168 -123q-104 -39 -252 -39q-263 0 -412 125q-149 122 -149 405q0 290 149 418q147 129 412 129q151 0 258 -43q109 -47 172 -139v153h363v-958q0 -281 -168 -403q-171 -121 -496 -121
q-306 0 -461 94q-158 96 -188 258zM1057 469v129q0 125 -72 176q-70 49 -231 49q-164 0 -232 -51q-73 -52 -73 -176v-133q0 -119 73 -168q71 -51 232 -51q163 0 231 51q72 51 72 174zM557 1366q0 82 55 125q53 41 150 41q98 0 151 -41q54 -45 54 -125q0 -83 -54 -125
q-52 -43 -151 -43q-98 0 -150 43q-55 40 -55 125z" />
    <glyph glyph-name="uni0122" unicode="&#x122;" horiz-adv-x="1818" 
d="M84 705q0 208 57 348q56 143 162 227q104 84 260 125q151 37 348 37q353 0 562 -111q205 -114 245 -385h-389q-30 116 -133 160q-106 41 -285 41q-206 0 -321 -74q-115 -77 -115 -285v-167q0 -211 113 -281q115 -74 321 -74q216 0 326 58q110 60 125 190h-442v256h817
v-156q0 -173 -58 -292q-60 -126 -166 -201q-113 -80 -260 -113q-151 -37 -340 -37q-197 0 -348 37q-153 37 -260 121q-106 81 -162 227q-57 137 -57 349zM766 -440q79 0 119 16q37 18 37 57h-13q-93 0 -149 29q-53 30 -53 102t53 107q52 37 155 37q105 0 158 -41t53 -135
v-45q0 -145 -84 -211q-83 -62 -276 -62v146z" />
    <glyph glyph-name="uni0123" unicode="&#x123;" horiz-adv-x="1550" 
d="M117 -86h379q35 -60 98 -86q64 -25 178 -25q154 0 219 56q66 57 66 221v78q-65 -83 -168 -123q-104 -39 -252 -39q-263 0 -412 125q-149 122 -149 405q0 290 149 418q147 129 412 129q151 0 258 -43q109 -47 172 -139v153h363v-958q0 -281 -168 -403q-171 -121 -496 -121
q-306 0 -461 94q-158 96 -188 258zM1057 469v129q0 125 -72 176q-70 49 -231 49q-164 0 -232 -51q-73 -52 -73 -176v-133q0 -119 73 -168q71 -51 232 -51q163 0 231 51q72 51 72 174zM911 1530q-75 0 -118 -17q-37 -18 -37 -57h12q94 0 150 -29q53 -30 53 -102t-51 -106
q-52 -37 -158 -37q-105 0 -158 41t-53 135v45q0 145 84 211q82 61 276 61v-145z" />
    <glyph glyph-name="Hcircumflex" unicode="&#x124;" horiz-adv-x="1810" 
d="M145 1413h385v-530h750v530h385v-1413h-385v569h-750v-569h-385v1413zM346 1552l379 340h358l381 -340h-366l-201 164l-199 -164h-352z" />
    <glyph glyph-name="hcircumflex" unicode="&#x125;" 
d="M1012 0v637q0 104 -66 145q-62 39 -188 39q-118 0 -189 -41q-73 -43 -73 -143v-637h-369v1495h369v-610q57 97 172 143q110 45 256 45q219 0 340 -92q116 -94 116 -307v-674h-368zM207 1573l379 340h358l381 -340h-367l-200 164l-199 -164h-352z" />
    <glyph glyph-name="Itilde" unicode="&#x128;" horiz-adv-x="677" 
d="M145 1413h385v-1413h-385v1413zM141 1896q68 0 121 -16q43 -16 88 -39q68 -38 70 -39q35 -18 69 -18t56 28q18 27 18 76h238q0 -162 -64 -250q-66 -90 -188 -90q-70 0 -125 19q-50 17 -92 39q-14 7 -37.5 20t-34.5 19q-34 18 -65 18q-37 0 -58 -27q-20 -26 -20 -80h-238
q0 162 64 250q66 90 198 90z" />
    <glyph glyph-name="itilde" unicode="&#x129;" horiz-adv-x="620" 
d="M127 1044h369v-1044h-369v1044zM131 1579q71 0 115 -20q38 -17 80 -50q18 -14 65 -47q28 -22 64 -22q34 0 55 37q18 35 18 92h228q0 -181 -64 -275q-64 -98 -188 -98q-65 0 -119 23q-47 20 -84 49q-26 17 -65 47q-31 22 -62 22q-38 0 -57 -32q-21 -35 -21 -99h-227
q0 175 63 275q64 98 199 98z" />
    <glyph glyph-name="Imacron" unicode="&#x12a;" horiz-adv-x="677" 
d="M145 1413h385v-1413h-385v1413zM-66 1608v229h805v-229h-805z" />
    <glyph glyph-name="imacron" unicode="&#x12b;" horiz-adv-x="620" 
d="M127 1044h369v-1044h-369v1044zM-86 1278v217h793v-217h-793z" />
    <glyph glyph-name="Ibreve" unicode="&#x12c;" horiz-adv-x="677" 
d="M145 1413h385v-1413h-385v1413zM-129 1892h279q6 -74 51 -108q42 -33 137 -33t139 33q45 34 51 108h279q-6 -179 -121 -268q-116 -90 -348 -90q-229 0 -348 90q-116 90 -119 268z" />
    <glyph glyph-name="ibreve" unicode="&#x12d;" horiz-adv-x="620" 
d="M127 1044h369v-1044h-369v1044zM-135 1571h270q3 -85 45 -127q39 -39 131 -39t131 39q40 40 43 127h271q0 -190 -109 -285q-113 -96 -336 -96t-336 96q-110 94 -110 285z" />
    <glyph glyph-name="Iogonek" unicode="&#x12e;" horiz-adv-x="677" 
d="M461 -420q-183 0 -289 53q-106 54 -106 177q0 57 28 108q24 44 82 82h-31v1413h385v-1413q-88 -9 -127 -37q-38 -25 -38 -61q0 -40 47 -64q49 -22 178 -22v-236h-129z" />
    <glyph glyph-name="iogonek" unicode="&#x12f;" horiz-adv-x="622" 
d="M106 1358q0 81 56 125q53 41 149 41q99 0 152 -41q53 -44 53 -125q0 -84 -53 -125q-52 -43 -152 -43q-97 0 -149 43q-56 41 -56 125zM422 -420q-166 0 -264 55q-101 55 -101 164q0 69 33 119q35 53 94 82h-57v1044h369v-1044q-74 -12 -107 -41q-33 -26 -33 -59
q0 -41 41 -62q42 -22 150 -22v-236h-125z" />
    <glyph glyph-name="Idotaccent" unicode="&#x130;" horiz-adv-x="677" 
d="M145 1413h385v-1413h-385v1413zM141 1722q0 84 49 127q50 41 150 41q99 0 149 -41q48 -45 48 -127q0 -85 -48 -127q-49 -43 -149 -43q-101 0 -150 43q-49 40 -49 127z" />
    <glyph glyph-name="dotlessi" unicode="&#x131;" horiz-adv-x="620" 
d="M127 1044h369v-1044h-369v1044z" />
    <glyph glyph-name="uni0136" unicode="&#x136;" horiz-adv-x="1669" 
d="M145 1413h385v-536h162l516 536h455l-645 -672l684 -741h-490l-526 563h-156v-563h-385v1413zM694 -440q79 0 119 16q37 18 37 57h-12q-94 0 -150 29q-53 30 -53 102t53 107q52 37 156 37t157 -41q54 -42 54 -135v-45q0 -145 -84 -211q-83 -62 -277 -62v146z" />
    <glyph glyph-name="uni0137" unicode="&#x137;" horiz-adv-x="1409" 
d="M975 1044h409l-452 -495l506 -549h-453l-362 389h-127v-389h-369v1495h369v-838h125zM565 -440q79 0 119 16q37 18 37 57h-12q-94 0 -150 29q-53 30 -53 102t53 107q52 37 156 37t157 -41q54 -42 54 -135v-45q0 -145 -84 -211q-83 -62 -277 -62v146z" />
    <glyph glyph-name="Lacute" unicode="&#x139;" horiz-adv-x="1421" 
d="M145 1413h385v-1100h861v-313h-1246v1413zM166 1552l323 340h396l-391 -340h-328z" />
    <glyph glyph-name="lacute" unicode="&#x13a;" horiz-adv-x="620" 
d="M127 1495h369v-1495h-369v1495zM145 1624l324 340h395l-391 -340h-328z" />
    <glyph glyph-name="uni013B" unicode="&#x13b;" horiz-adv-x="1421" 
d="M145 1413h385v-1100h861v-313h-1246v1413zM623 -440q78 0 118 16q37 18 37 57h-12q-94 0 -150 29q-53 30 -53 102t53 107q52 37 156 37q105 0 158 -41t53 -135v-45q0 -145 -84 -211q-83 -62 -276 -62v146z" />
    <glyph glyph-name="uni013C" unicode="&#x13c;" horiz-adv-x="620" 
d="M127 1495h369v-1495h-369v1495zM158 -440q78 0 118 16q37 18 37 57h-12q-93 0 -149 29q-54 31 -54 102q0 72 54 107q52 37 155 37q105 0 158 -41t53 -135v-45q0 -145 -84 -211q-83 -62 -276 -62v146z" />
    <glyph glyph-name="Nacute" unicode="&#x143;" horiz-adv-x="1837" 
d="M1165 0l-665 1030v-1030h-355v1413h529l663 -1026v1026h355v-1413h-527zM760 1552l323 340h396l-392 -340h-327z" />
    <glyph glyph-name="nacute" unicode="&#x144;" 
d="M1012 0v637q0 104 -66 145q-62 39 -188 39q-118 0 -189 -41q-73 -43 -73 -143v-637h-369v1044h358v-180q52 106 170 158q117 51 269 51q219 0 340 -92q116 -94 116 -307v-674h-368zM590 1204l289 367h376l-358 -367h-307z" />
    <glyph glyph-name="uni0145" unicode="&#x145;" horiz-adv-x="1837" 
d="M1165 0l-665 1030v-1030h-355v1413h529l663 -1026v1026h355v-1413h-527zM764 -440q79 0 119 16q37 18 37 57h-13q-93 0 -149 29q-53 30 -53 102t53 107q52 37 155 37q105 0 158 -41t53 -135v-45q0 -145 -84 -211q-83 -62 -276 -62v146z" />
    <glyph glyph-name="uni0146" unicode="&#x146;" 
d="M1012 0v637q0 104 -66 145q-62 39 -188 39q-118 0 -189 -41q-73 -43 -73 -143v-637h-369v1044h358v-180q52 106 170 158q117 51 269 51q219 0 340 -92q116 -94 116 -307v-674h-368zM608 -440q79 0 119 16q37 18 37 57h-12q-94 0 -150 29q-53 30 -53 102t53 107
q52 37 156 37t157 -41q54 -42 54 -135v-45q0 -145 -84 -211q-83 -62 -277 -62v146z" />
    <glyph glyph-name="Ncaron" unicode="&#x147;" horiz-adv-x="1837" 
d="M1165 0l-665 1030v-1030h-355v1413h529l663 -1026v1026h355v-1413h-527zM371 1892h366l199 -163l199 163h354l-381 -340h-356z" />
    <glyph glyph-name="ncaron" unicode="&#x148;" 
d="M1012 0v637q0 104 -66 145q-62 39 -188 39q-118 0 -189 -41q-73 -43 -73 -143v-637h-369v1044h358v-180q52 106 170 158q117 51 269 51q219 0 340 -92q116 -94 116 -307v-674h-368zM260 1571h336l174 -185l174 185h322l-332 -367h-342z" />
    <glyph glyph-name="Omacron" unicode="&#x14c;" horiz-adv-x="1931" 
d="M84 717q0 205 59 344q61 143 170 225q113 84 277 121q166 35 377 35q207 0 376 -35q161 -37 277 -121q111 -85 170 -225q57 -134 57 -344q0 -215 -57 -355q-58 -143 -170 -229q-112 -87 -277 -125q-164 -37 -376 -37q-216 0 -377 37q-168 38 -277 125q-111 83 -170 229
q-59 145 -59 355zM1458 635v149q0 202 -123 281q-127 80 -368 80q-242 0 -369 -80q-125 -79 -125 -281v-149q0 -213 125 -289q128 -78 369 -78q240 0 368 78q123 76 123 289zM557 1608v229h805v-229h-805z" />
    <glyph glyph-name="omacron" unicode="&#x14d;" horiz-adv-x="1497" 
d="M72 522q0 157 43 264q42 104 129 170q81 63 211 91q121 26 293 26q170 0 294 -26q129 -28 213 -91q85 -67 127 -170q43 -107 43 -264q0 -159 -43 -266q-42 -103 -127 -170q-82 -62 -213 -90q-134 -25 -294 -25q-162 0 -293 25q-132 28 -211 90q-87 66 -129 170
q-43 107 -43 266zM1053 451v141q0 135 -76 184q-77 47 -229 47q-151 0 -228 -47q-76 -49 -76 -184v-141q0 -134 76 -183t228 -49q153 0 229 49t76 183zM352 1278v217h793v-217h-793z" />
    <glyph glyph-name="Obreve" unicode="&#x14e;" horiz-adv-x="1931" 
d="M84 717q0 205 59 344q61 143 170 225q113 84 277 121q166 35 377 35q207 0 376 -35q161 -37 277 -121q111 -85 170 -225q57 -134 57 -344q0 -215 -57 -355q-58 -143 -170 -229q-112 -87 -277 -125q-164 -37 -376 -37q-216 0 -377 37q-168 38 -277 125q-111 83 -170 229
q-59 145 -59 355zM1458 635v149q0 202 -123 281q-127 80 -368 80q-242 0 -369 -80q-125 -79 -125 -281v-149q0 -213 125 -289q128 -78 369 -78q240 0 368 78q123 76 123 289zM498 1892h278q6 -74 51 -108q42 -33 138 -33q95 0 139 33q45 34 51 108h279q-6 -179 -121 -268
q-116 -90 -348 -90q-231 0 -347 90q-117 88 -120 268z" />
    <glyph glyph-name="obreve" unicode="&#x14f;" horiz-adv-x="1497" 
d="M72 522q0 157 43 264q42 104 129 170q81 63 211 91q121 26 293 26q170 0 294 -26q129 -28 213 -91q85 -67 127 -170q43 -107 43 -264q0 -159 -43 -266q-42 -103 -127 -170q-82 -62 -213 -90q-134 -25 -294 -25q-162 0 -293 25q-132 28 -211 90q-87 66 -129 170
q-43 107 -43 266zM1053 451v141q0 135 -76 184q-77 47 -229 47q-151 0 -228 -47q-76 -49 -76 -184v-141q0 -134 76 -183t228 -49q153 0 229 49t76 183zM303 1571h270q3 -85 45 -127q39 -39 132 -39q92 0 131 39q40 40 43 127h270q0 -190 -109 -285q-113 -96 -335 -96
q-223 0 -336 96q-111 94 -111 285z" />
    <glyph glyph-name="Ohungarumlaut" unicode="&#x150;" horiz-adv-x="1931" 
d="M84 717q0 205 59 344q61 143 170 225q113 84 277 121q166 35 377 35q207 0 376 -35q161 -37 277 -121q111 -85 170 -225q57 -134 57 -344q0 -215 -57 -355q-58 -143 -170 -229q-112 -87 -277 -125q-164 -37 -376 -37q-216 0 -377 37q-168 38 -277 125q-111 83 -170 229
q-59 145 -59 355zM1458 635v149q0 202 -123 281q-127 80 -368 80q-242 0 -369 -80q-125 -79 -125 -281v-149q0 -213 125 -289q128 -78 369 -78q240 0 368 78q123 76 123 289zM596 1552l174 340h342l-240 -340h-276zM1026 1552l246 340h358l-313 -340h-291z" />
    <glyph glyph-name="ohungarumlaut" unicode="&#x151;" horiz-adv-x="1497" 
d="M72 522q0 157 43 264q42 104 129 170q81 63 211 91q121 26 293 26q170 0 294 -26q129 -28 213 -91q85 -67 127 -170q43 -107 43 -264q0 -159 -43 -266q-42 -103 -127 -170q-82 -62 -213 -90q-134 -25 -294 -25q-162 0 -293 25q-132 28 -211 90q-87 66 -129 170
q-43 107 -43 266zM1053 451v141q0 135 -76 184q-77 47 -229 47q-151 0 -228 -47q-76 -49 -76 -184v-141q0 -134 76 -183t228 -49q153 0 229 49t76 183zM401 1204l170 367h324l-231 -367h-263zM803 1204l241 367h342l-305 -367h-278z" />
    <glyph glyph-name="Racute" unicode="&#x154;" horiz-adv-x="1718" 
d="M145 1413h961q247 0 385 -117q135 -120 135 -338q0 -160 -72 -270q-71 -109 -202 -158l313 -530h-426l-289 489h-420v-489h-385v1413zM1235 934v41q0 68 -41 112q-44 41 -145 41h-519v-352h519q101 0 143 45q43 43 43 113zM637 1552l324 340h395l-391 -340h-328z" />
    <glyph glyph-name="racute" unicode="&#x155;" horiz-adv-x="1050" 
d="M127 1044h358v-217q41 103 127 160q83 57 232 57h170v-303h-230q-160 0 -223 -51q-65 -53 -65 -170v-520h-369v1044zM426 1204l289 367h377l-359 -367h-307z" />
    <glyph glyph-name="uni0156" unicode="&#x156;" horiz-adv-x="1718" 
d="M145 1413h961q247 0 385 -117q135 -120 135 -338q0 -160 -72 -270q-71 -109 -202 -158l313 -530h-426l-289 489h-420v-489h-385v1413zM1235 934v41q0 68 -41 112q-44 41 -145 41h-519v-352h519q101 0 143 45q43 43 43 113zM705 -440q78 0 118 16q37 18 37 57h-12
q-94 0 -150 29q-53 30 -53 102t53 107q52 37 156 37q105 0 158 -41t53 -135v-45q0 -145 -84 -211q-83 -62 -276 -62v146z" />
    <glyph glyph-name="uni0157" unicode="&#x157;" horiz-adv-x="1050" 
d="M127 1044h358v-217q41 103 127 160q83 57 232 57h170v-303h-230q-160 0 -223 -51q-65 -53 -65 -170v-520h-369v1044zM156 -440q78 0 118 16q37 18 37 57h-12q-93 0 -149 29q-54 31 -54 102q0 72 54 107q52 37 155 37q105 0 158 -41t53 -135v-45q0 -145 -84 -211
q-83 -62 -276 -62v146z" />
    <glyph glyph-name="Rcaron" unicode="&#x158;" horiz-adv-x="1718" 
d="M145 1413h961q247 0 385 -117q135 -120 135 -338q0 -160 -72 -270q-71 -109 -202 -158l313 -530h-426l-289 489h-420v-489h-385v1413zM1235 934v41q0 68 -41 112q-44 41 -145 41h-519v-352h519q101 0 143 45q43 43 43 113zM262 1892h367l198 -163l199 163h354l-381 -340
h-356z" />
    <glyph glyph-name="rcaron" unicode="&#x159;" horiz-adv-x="1050" 
d="M127 1044h358v-217q41 103 127 160q83 57 232 57h170v-303h-230q-160 0 -223 -51q-65 -53 -65 -170v-520h-369v1044zM80 1571h336l174 -185l174 185h321l-331 -367h-342z" />
    <glyph glyph-name="Sacute" unicode="&#x15a;" horiz-adv-x="1662" 
d="M70 440h391q21 -112 112 -149q90 -37 271 -37q183 0 276 35q90 35 90 125q0 116 -174 131q-117 10 -385 37q-209 21 -383 100q-176 77 -176 315q0 236 195 342q195 103 536 103q345 0 535 -105q188 -105 209 -344h-391q-14 98 -107 133q-88 33 -246 33q-181 0 -266 -31
q-86 -35 -86 -124q0 -108 176 -123q103 -9 383 -37q205 -21 385 -99q174 -76 174 -305q0 -250 -184 -358q-185 -111 -561 -111q-386 0 -570 111q-183 110 -204 358zM657 1552l324 340h395l-391 -340h-328z" />
    <glyph glyph-name="sacute" unicode="&#x15b;" horiz-adv-x="1368" 
d="M59 334h373q13 -80 80 -107q64 -30 184 -30q133 0 191 24q57 20 57 78q0 87 -135 96q-90 6 -297 25q-160 12 -297 74q-135 58 -135 245q0 176 160 256q162 78 432 78q285 0 442 -80q153 -79 168 -262h-373q-12 70 -71 94q-67 23 -166 23q-110 0 -168 -21q-60 -22 -60 -73
q0 -77 136 -86q169 -11 297 -23q157 -14 297 -78q135 -65 135 -250t-156 -264q-157 -80 -457 -80q-301 0 -456 82q-160 80 -181 279zM498 1204l288 367h377l-358 -367h-307z" />
    <glyph glyph-name="Scircumflex" unicode="&#x15c;" horiz-adv-x="1662" 
d="M70 440h391q21 -112 112 -149q90 -37 271 -37q183 0 276 35q90 35 90 125q0 116 -174 131q-117 10 -385 37q-209 21 -383 100q-176 77 -176 315q0 236 195 342q195 103 536 103q345 0 535 -105q188 -105 209 -344h-391q-14 98 -107 133q-88 33 -246 33q-181 0 -266 -31
q-86 -35 -86 -124q0 -108 176 -123q103 -9 383 -37q205 -21 385 -99q174 -76 174 -305q0 -250 -184 -358q-185 -111 -561 -111q-386 0 -570 111q-183 110 -204 358zM272 1552l379 340h359l381 -340h-367l-201 164l-198 -164h-353z" />
    <glyph glyph-name="scircumflex" unicode="&#x15d;" horiz-adv-x="1368" 
d="M59 334h373q13 -80 80 -107q64 -30 184 -30q133 0 191 24q57 20 57 78q0 87 -135 96q-90 6 -297 25q-160 12 -297 74q-135 58 -135 245q0 176 160 256q162 78 432 78q285 0 442 -80q153 -79 168 -262h-373q-12 70 -71 94q-67 23 -166 23q-110 0 -168 -21q-60 -22 -60 -73
q0 -77 136 -86q169 -11 297 -23q157 -14 297 -78q135 -65 135 -250t-156 -264q-157 -80 -457 -80q-301 0 -456 82q-160 80 -181 279zM182 1204l332 367h342l332 -367h-336l-174 182l-174 -182h-322z" />
    <glyph glyph-name="Scedilla" unicode="&#x15e;" horiz-adv-x="1662" 
d="M70 440h391q21 -112 112 -149q90 -37 271 -37q183 0 276 35q90 35 90 125q0 116 -174 131q-117 10 -385 37q-209 21 -383 100q-176 77 -176 315q0 236 195 342q195 103 536 103q345 0 535 -105q188 -105 209 -344h-391q-14 98 -107 133q-88 33 -246 33q-181 0 -266 -31
q-86 -35 -86 -124q0 -108 176 -123q103 -9 383 -37q205 -21 385 -99q174 -76 174 -305q0 -250 -184 -358q-185 -111 -561 -111q-386 0 -570 111q-183 110 -204 358zM657 -455v174q90 0 121 2q47 3 68 9t28 16q7 11 7 27q0 32 -37 41q-45 10 -174 10v180h235v-67
q119 -9 197 -43q80 -35 80 -144q0 -100 -90 -153q-91 -52 -256 -52h-179z" />
    <glyph glyph-name="scedilla" unicode="&#x15f;" horiz-adv-x="1368" 
d="M59 334h373q13 -80 80 -107q64 -30 184 -30q133 0 191 24q57 20 57 78q0 87 -135 96q-90 6 -297 25q-160 12 -297 74q-135 58 -135 245q0 176 160 256q162 78 432 78q285 0 442 -80q153 -79 168 -262h-373q-12 70 -71 94q-67 23 -166 23q-110 0 -168 -21q-60 -22 -60 -73
q0 -77 136 -86q169 -11 297 -23q157 -14 297 -78q135 -65 135 -250t-156 -264q-157 -80 -457 -80q-301 0 -456 82q-160 80 -181 279zM506 -459v174q90 0 121 2q46 3 67 9q23 6 29 16q6 9 6 27q0 32 -37 41q-45 10 -174 10v180h236v-68q118 -9 196 -43q80 -35 80 -143
q0 -101 -90 -154q-89 -51 -256 -51h-178z" />
    <glyph glyph-name="Scaron" unicode="&#x160;" horiz-adv-x="1662" 
d="M70 440h391q21 -112 112 -149q90 -37 271 -37q183 0 276 35q90 35 90 125q0 116 -174 131q-117 10 -385 37q-209 21 -383 100q-176 77 -176 315q0 236 195 342q195 103 536 103q345 0 535 -105q188 -105 209 -344h-391q-14 98 -107 133q-88 33 -246 33q-181 0 -266 -31
q-86 -35 -86 -124q0 -108 176 -123q103 -9 383 -37q205 -21 385 -99q174 -76 174 -305q0 -250 -184 -358q-185 -111 -561 -111q-386 0 -570 111q-183 110 -204 358zM272 1892h367l199 -163l198 163h355l-381 -340h-357z" />
    <glyph glyph-name="scaron" unicode="&#x161;" horiz-adv-x="1368" 
d="M59 334h373q13 -80 80 -107q64 -30 184 -30q133 0 191 24q57 20 57 78q0 87 -135 96q-90 6 -297 25q-160 12 -297 74q-135 58 -135 245q0 176 160 256q162 78 432 78q285 0 442 -80q153 -79 168 -262h-373q-12 70 -71 94q-67 23 -166 23q-110 0 -168 -21q-60 -22 -60 -73
q0 -77 136 -86q169 -11 297 -23q157 -14 297 -78q135 -65 135 -250t-156 -264q-157 -80 -457 -80q-301 0 -456 82q-160 80 -181 279zM182 1571h336l174 -185l174 185h322l-332 -367h-342z" />
    <glyph glyph-name="uni0162" unicode="&#x162;" horiz-adv-x="1572" 
d="M594 1100h-561v313h1507v-313h-561v-1100h-385v1100zM635 -440q79 0 119 16q37 18 37 57h-13q-93 0 -149 29q-54 31 -54 102q0 72 54 107q52 37 155 37q105 0 158 -41t53 -135v-45q0 -145 -84 -211q-83 -62 -276 -62v146z" />
    <glyph glyph-name="uni0163" unicode="&#x163;" horiz-adv-x="956" 
d="M178 367v409h-139v268h139v312h369v-312h354v-268h-354v-366q0 -74 39 -107q38 -35 127 -35h188v-268h-352q-198 0 -283 88q-88 85 -88 279zM395 -440q79 0 119 16q37 18 37 57h-12q-94 0 -150 29q-53 30 -53 102t53 107q52 37 156 37t157 -41q54 -42 54 -135v-45
q0 -145 -84 -211q-83 -62 -277 -62v146z" />
    <glyph glyph-name="Utilde" unicode="&#x168;" horiz-adv-x="1767" 
d="M129 594v819h385v-805q0 -205 98 -272q95 -68 291 -68t291 68q96 69 96 272v805h348v-819q0 -331 -184 -475q-189 -148 -551 -148q-374 0 -575 148q-199 144 -199 475zM694 1896q68 0 121 -16q43 -16 88 -39q68 -38 70 -39q35 -18 69 -18t56 28q18 27 18 76h238
q0 -162 -64 -250q-66 -90 -188 -90q-70 0 -125 19q-50 17 -92 39q-14 7 -37.5 20t-34.5 19q-35 18 -65 18q-37 0 -58 -27q-20 -26 -20 -80h-238q0 162 64 250q66 90 198 90z" />
    <glyph glyph-name="utilde" unicode="&#x169;" 
d="M117 377v667h368v-638q0 -104 64 -144q62 -39 188 -39q112 0 189 41q75 40 75 146v634h369v-1044h-360v176q-52 -104 -170 -153q-119 -52 -269 -52q-211 0 -333 90q-121 89 -121 316zM563 1579q71 0 115 -20q38 -17 80 -50q18 -14 65 -47q28 -22 64 -22q34 0 55 37
q19 36 19 92h227q0 -181 -64 -275q-64 -98 -188 -98q-65 0 -119 23q-47 20 -84 49q-26 17 -65 47q-31 22 -62 22q-38 0 -57 -32q-21 -35 -21 -99h-227q0 174 64 275q64 98 198 98z" />
    <glyph glyph-name="Umacron" unicode="&#x16a;" horiz-adv-x="1767" 
d="M129 594v819h385v-805q0 -205 98 -272q95 -68 291 -68t291 68q96 69 96 272v805h348v-819q0 -331 -184 -475q-189 -148 -551 -148q-374 0 -575 148q-199 144 -199 475zM489 1608v229h805v-229h-805z" />
    <glyph glyph-name="umacron" unicode="&#x16b;" 
d="M117 377v667h368v-638q0 -104 64 -144q62 -39 188 -39q112 0 189 41q75 40 75 146v634h369v-1044h-360v176q-52 -104 -170 -153q-119 -52 -269 -52q-211 0 -333 90q-121 89 -121 316zM350 1278v217h793v-217h-793z" />
    <glyph glyph-name="Ubreve" unicode="&#x16c;" horiz-adv-x="1767" 
d="M129 594v819h385v-805q0 -205 98 -272q95 -68 291 -68t291 68q96 69 96 272v805h348v-819q0 -331 -184 -475q-189 -148 -551 -148q-374 0 -575 148q-199 144 -199 475zM432 1892h279q6 -74 51 -108q42 -33 137 -33t139 33q46 34 52 108h278q-6 -179 -121 -268
q-116 -90 -348 -90q-230 0 -346 90q-118 89 -121 268z" />
    <glyph glyph-name="ubreve" unicode="&#x16d;" 
d="M117 377v667h368v-638q0 -104 64 -144q62 -39 188 -39q112 0 189 41q75 40 75 146v634h369v-1044h-360v176q-52 -104 -170 -153q-119 -52 -269 -52q-211 0 -333 90q-121 89 -121 316zM299 1571h270q3 -85 45 -127q39 -39 131 -39q93 0 132 39q40 40 43 127h270
q0 -190 -109 -285q-113 -96 -336 -96q-222 0 -335 96q-111 94 -111 285z" />
    <glyph glyph-name="Uring" unicode="&#x16e;" horiz-adv-x="1767" 
d="M129 594v819h385v-805q0 -205 98 -272q95 -68 291 -68t291 68q96 69 96 272v805h348v-819q0 -331 -184 -475q-189 -148 -551 -148q-374 0 -575 148q-199 144 -199 475zM537 1722q0 100 79 152q79 49 283 49q203 0 285 -49q80 -53 80 -152q0 -101 -80 -151
q-82 -49 -285 -49q-204 0 -283 49t-79 151zM901 1669q98 0 123 14q27 12 27 39q0 26 -27 41q-29 13 -123 13q-96 0 -125 -13q-26 -14 -26 -41t26 -39q25 -14 125 -14z" />
    <glyph glyph-name="uring" unicode="&#x16f;" 
d="M117 377v667h368v-638q0 -104 64 -144q62 -39 188 -39q112 0 189 41q75 40 75 146v634h369v-1044h-360v176q-52 -104 -170 -153q-119 -52 -269 -52q-211 0 -333 90q-121 89 -121 316zM408 1389q0 101 79 159q80 56 254 56q178 0 258 -56q80 -59 80 -159q0 -104 -80 -160
q-79 -58 -258 -58q-175 0 -254 58q-79 55 -79 160zM874 1389q0 34 -26 51q-29 16 -105 16q-73 0 -102 -16q-29 -19 -29 -51q0 -33 29 -52q27 -18 102 -18q78 0 105 18q26 17 26 52z" />
    <glyph glyph-name="Uhungarumlaut" unicode="&#x170;" horiz-adv-x="1767" 
d="M129 594v819h385v-805q0 -205 98 -272q95 -68 291 -68t291 68q96 69 96 272v805h348v-819q0 -331 -184 -475q-189 -148 -551 -148q-374 0 -575 148q-199 144 -199 475zM522 1552l174 340h342l-239 -340h-277zM952 1552l246 340h358l-313 -340h-291z" />
    <glyph glyph-name="uhungarumlaut" unicode="&#x171;" 
d="M117 377v667h368v-638q0 -104 64 -144q62 -39 188 -39q112 0 189 41q75 40 75 146v634h369v-1044h-360v176q-52 -104 -170 -153q-119 -52 -269 -52q-211 0 -333 90q-121 89 -121 316zM393 1204l170 367h324l-232 -367h-262zM795 1204l241 367h342l-305 -367h-278z" />
    <glyph glyph-name="Uogonek" unicode="&#x172;" horiz-adv-x="1767" 
d="M129 594v819h385v-805q0 -205 98 -272q95 -68 291 -68t291 68q96 69 96 272v805h348v-819q0 -260 -112 -401q-116 -146 -334 -195q-98 -28 -137 -51q-43 -24 -43 -64q0 -33 41 -51q43 -16 151 -16v-236h-131q-168 0 -262 55q-98 55 -98 164q0 55 28 103q26 44 78 71
q-337 15 -512 162q-178 147 -178 459z" />
    <glyph glyph-name="uogonek" unicode="&#x173;" 
d="M117 377v667h368v-638q0 -104 64 -144q62 -39 188 -39q112 0 189 41q75 40 75 146v634h369v-1044h-121q-68 -6 -106 -35q-35 -27 -35 -67q0 -42 39 -62t149 -20v-236h-125q-166 0 -264 55t-98 164q0 89 55 144q49 55 146 77v156q-52 -104 -170 -153q-119 -52 -269 -52
q-211 0 -333 90q-121 89 -121 316z" />
    <glyph glyph-name="Wcircumflex" unicode="&#x174;" horiz-adv-x="2289" 
d="M29 1413h385l241 -1053l285 1053h467l272 -1051l250 1051h334l-340 -1413h-502l-274 1051l-285 -1051h-504zM596 1552l379 340h358l381 -340h-366l-201 164l-199 -164h-352z" />
    <glyph glyph-name="wcircumflex" unicode="&#x175;" horiz-adv-x="1945" 
d="M334 0l-320 1044h346l218 -735l217 735h401l219 -722l213 722h303l-319 -1044h-418l-227 752l-224 -752h-409zM471 1204l332 367h342l332 -367h-336l-174 182l-174 -182h-322z" />
    <glyph glyph-name="Ycircumflex" unicode="&#x176;" horiz-adv-x="1685" 
d="M668 565l-684 848h438l455 -571l415 571h389l-628 -850v-563h-385v565zM293 1552l379 340h358l381 -340h-367l-200 164l-199 -164h-352z" />
    <glyph glyph-name="ycircumflex" unicode="&#x177;" horiz-adv-x="1359" 
d="M168 -147h139q93 0 135 22q40 24 78 107l6 14l-536 1048h383l332 -677l325 677h334l-539 -1128q-57 -108 -90 -154q-45 -63 -96 -102q-53 -38 -119 -53q-77 -17 -158 -17h-194v263zM193 1204l331 367h342l332 -367h-336l-174 182l-174 -182h-321z" />
    <glyph glyph-name="Ydieresis" unicode="&#x178;" horiz-adv-x="1685" 
d="M668 565l-684 848h438l455 -571l415 571h389l-628 -850v-563h-385v565zM375 1704q0 83 47 127q46 43 139 43t139 -43q45 -42 45 -127t-45 -127q-46 -43 -139 -43t-139 43q-47 44 -47 127zM948 1704q0 83 47 127q46 43 138 43q95 0 141 -43q45 -42 45 -127t-45 -127
q-46 -43 -141 -43q-92 0 -138 43q-47 44 -47 127z" />
    <glyph glyph-name="Zacute" unicode="&#x179;" horiz-adv-x="1554" 
d="M86 313l887 791h-879v309h1368v-313l-887 -791h895v-309h-1384v313zM602 1552l324 340h395l-391 -340h-328z" />
    <glyph glyph-name="zacute" unicode="&#x17a;" horiz-adv-x="1265" 
d="M78 266l641 510h-631v268h1079v-268l-641 -508h676v-268h-1124v266zM467 1204l289 367h377l-359 -367h-307z" />
    <glyph glyph-name="Zdotaccent" unicode="&#x17b;" horiz-adv-x="1554" 
d="M86 313l887 791h-879v309h1368v-313l-887 -791h895v-309h-1384v313zM600 1722q0 84 49 127q50 41 150 41q99 0 149 -41q47 -44 47 -127q0 -86 -47 -127q-49 -43 -149 -43q-101 0 -150 43q-49 40 -49 127z" />
    <glyph glyph-name="zdotaccent" unicode="&#x17c;" horiz-adv-x="1265" 
d="M78 266l641 510h-631v268h1079v-268l-641 -508h676v-268h-1124v266zM444 1366q0 81 56 125q53 41 149 41q99 0 152 -41q53 -44 53 -125q0 -84 -53 -125q-52 -43 -152 -43q-97 0 -149 43q-56 41 -56 125z" />
    <glyph glyph-name="Zcaron" unicode="&#x17d;" horiz-adv-x="1554" 
d="M86 313l887 791h-879v309h1368v-313l-887 -791h895v-309h-1384v313zM238 1892h366l199 -163l198 163h355l-381 -340h-357z" />
    <glyph glyph-name="zcaron" unicode="&#x17e;" horiz-adv-x="1265" 
d="M78 266l641 510h-631v268h1079v-268l-641 -508h676v-268h-1124v266zM145 1571h336l174 -185l174 185h322l-332 -367h-342z" />
    <glyph glyph-name="Aringacute" unicode="&#x1fa;" horiz-adv-x="1744" 
d="M608 1413h531l608 -1413h-401l-134 313h-720l-134 -313h-360zM610 592h484l-242 569zM506 1669q0 99 80 152q79 49 282 49t285 -49q80 -53 80 -152q0 -101 -80 -151q-83 -50 -285 -50t-282 50t-80 151zM870 1616q98 0 123 14q27 12 27 39q0 26 -27 41q-27 12 -123 12
q-98 0 -125 -12q-26 -14 -26 -41t26 -39q25 -14 125 -14zM696 1913l324 340h395l-391 -340h-328z" />
    <glyph glyph-name="aringacute" unicode="&#x1fb;" horiz-adv-x="1433" 
d="M63 289q0 156 113 241q116 84 363 93l413 14v35q0 93 -59 131q-59 35 -176 35q-115 0 -170 -27q-56 -26 -72 -90h-371q21 173 172 262q153 90 441 90q298 0 450 -96q152 -100 152 -305v-672h-354v160q-58 -87 -172 -137q-113 -52 -293 -52q-221 0 -330 86
q-107 82 -107 232zM434 313q0 -59 45 -82q45 -26 148 -26q146 0 235 51q90 53 90 160v37l-325 -13q-97 -3 -148 -26q-45 -23 -45 -82v-19zM539 1690l323 340h395l-391 -340h-327zM371 1386q0 101 80 160q80 56 254 56q178 0 258 -56q79 -58 79 -160q0 -104 -79 -159
q-79 -58 -258 -58q-175 0 -254 58q-80 56 -80 159zM838 1386q0 34 -27 52q-29 16 -104 16q-74 0 -103 -16q-29 -19 -29 -52q0 -32 29 -51q27 -18 103 -18q77 0 104 18t27 51z" />
    <glyph glyph-name="uni0218" unicode="&#x218;" horiz-adv-x="1662" 
d="M70 440h391q21 -112 112 -149q90 -37 271 -37q183 0 276 35q90 35 90 125q0 116 -174 131q-117 10 -385 37q-209 21 -383 100q-176 77 -176 315q0 236 195 342q195 103 536 103q345 0 535 -105q188 -105 209 -344h-391q-14 98 -107 133q-88 33 -246 33q-181 0 -266 -31
q-86 -35 -86 -124q0 -108 176 -123q103 -9 383 -37q205 -21 385 -99q174 -76 174 -305q0 -250 -184 -358q-185 -111 -561 -111q-386 0 -570 111q-183 110 -204 358zM684 -440q79 0 119 16q37 18 37 57h-13q-93 0 -149 29q-53 30 -53 102t53 107q52 37 156 37t157 -41
t53 -135v-45q0 -146 -83 -211q-83 -62 -277 -62v146z" />
    <glyph glyph-name="uni0219" unicode="&#x219;" horiz-adv-x="1368" 
d="M59 334h373q13 -80 80 -107q64 -30 184 -30q133 0 191 24q57 20 57 78q0 87 -135 96q-90 6 -297 25q-160 12 -297 74q-135 58 -135 245q0 176 160 256q162 78 432 78q285 0 442 -80q153 -79 168 -262h-373q-12 70 -71 94q-67 23 -166 23q-110 0 -168 -21q-60 -22 -60 -73
q0 -77 136 -86q169 -11 297 -23q157 -14 297 -78q135 -65 135 -250t-156 -264q-157 -80 -457 -80q-301 0 -456 82q-160 80 -181 279zM535 -440q78 0 118 16q37 18 37 57h-12q-94 0 -150 29q-53 30 -53 102t53 107q52 37 156 37q105 0 158 -41t53 -135v-45q0 -145 -84 -211
q-83 -62 -276 -62v146z" />
    <glyph glyph-name="uni0401" unicode="&#x401;" horiz-adv-x="1527" 
d="M145 1413h1289v-295h-904v-254h697v-284h-697v-285h912v-295h-1297v1413zM322 1704q0 83 47 127q46 43 139 43t139 -43q45 -42 45 -127t-45 -127q-46 -43 -139 -43t-139 43q-47 44 -47 127zM895 1704q0 83 47 127q46 43 137 43q96 0 142 -43q45 -42 45 -127t-45 -127
q-46 -43 -142 -43q-91 0 -137 43q-47 44 -47 127z" />
    <glyph glyph-name="uni0403" unicode="&#x403;" horiz-adv-x="1376" 
d="M522 1552l324 340h395l-391 -340h-328zM145 1413h1201v-313h-816v-1100h-385v1413z" />
    <glyph glyph-name="uni040E" unicode="&#x40e;" horiz-adv-x="1689" 
d="M481 0l211 360l-688 1053h424l465 -713l418 713h379l-832 -1413h-377zM410 1874h307q6 -82 47 -117t123 -35t123 35q42 36 45 117h309q-6 -180 -123 -268q-119 -90 -354 -90q-236 0 -355 90q-119 88 -122 268z" />
    <glyph glyph-name="uni0410" unicode="&#x410;" horiz-adv-x="1744" 
d="M608 1413h531l608 -1413h-401l-134 313h-720l-134 -313h-360zM610 592h484l-242 569z" />
    <glyph glyph-name="uni0411" unicode="&#x411;" horiz-adv-x="1654" 
d="M145 1413h1346v-293h-965v-241h588q245 0 361 -113q114 -114 114 -317q0 -208 -114 -328q-118 -121 -361 -121h-969v1413zM1204 420v47q0 66 -43 106q-42 39 -133 39h-502v-336h502q87 0 133 37q43 37 43 107z" />
    <glyph glyph-name="uni0412" unicode="&#x412;" horiz-adv-x="1671" 
d="M145 1413h961q213 0 328 -86q114 -86 114 -256q0 -105 -49 -190q-52 -88 -180 -131q146 -38 209 -125q63 -86 63 -211q0 -200 -114 -308q-115 -106 -351 -106h-981v1413zM1163 987v39q0 66 -43 100q-47 35 -127 35h-467v-317h467q81 0 127 37q43 37 43 106zM1206 406v53
q0 67 -47 108q-49 37 -141 37h-492v-352h492q91 0 139 39q49 40 49 115z" />
    <glyph glyph-name="uni0413" unicode="&#x413;" horiz-adv-x="1376" 
d="M145 1413h1201v-313h-816v-1100h-385v1413z" />
    <glyph glyph-name="uni0414" unicode="&#x414;" horiz-adv-x="1937" 
d="M35 -307v620h168q42 66 76 201q34 133 34 360v539h1379v-1100h196v-620h-360v307h-1133v-307h-360zM1307 1100h-633v-226q0 -226 -27 -358q-28 -140 -63 -203h723v787z" />
    <glyph glyph-name="uni0415" unicode="&#x415;" horiz-adv-x="1527" 
d="M145 1413h1289v-295h-904v-254h697v-284h-697v-285h912v-295h-1297v1413z" />
    <glyph glyph-name="uni0416" unicode="&#x416;" horiz-adv-x="2506" 
d="M1055 1413h385v-543h123l489 543h432l-598 -663l641 -750h-475l-483 557h-129v-557h-385v557h-129l-484 -557h-462l630 737l-612 676h446l490 -543h121v543z" />
    <glyph glyph-name="uni0417" unicode="&#x417;" horiz-adv-x="1679" 
d="M61 430h392q15 -98 118 -135q104 -37 285 -37q196 0 277 37q81 34 81 119v35q0 72 -63 106q-62 33 -180 33h-406v272h406q102 0 155 35q52 34 52 92v31q0 76 -74 106q-76 31 -258 31q-168 0 -264 -35q-99 -34 -117 -127h-391q21 236 221 344q200 105 551 105
q388 0 557 -99q166 -102 166 -288q0 -117 -72 -195q-68 -76 -201 -112q147 -30 228 -117q80 -86 80 -205q0 -225 -177 -340q-180 -115 -571 -115q-355 0 -565 109q-212 108 -230 350z" />
    <glyph glyph-name="uni0418" unicode="&#x418;" horiz-adv-x="1847" 
d="M1315 940l-756 -940h-414v1413h385v-940l756 940h414v-1413h-385v940z" />
    <glyph glyph-name="uni0419" unicode="&#x419;" horiz-adv-x="1847" 
d="M1315 940l-756 -940h-414v1413h385v-940l756 940h414v-1413h-385v940zM451 1874h307q6 -82 47 -117t123 -35t123 35q42 36 45 117h309q-6 -180 -123 -268q-119 -90 -354 -90q-236 0 -355 90q-119 88 -122 268z" />
    <glyph glyph-name="uni041A" unicode="&#x41a;" horiz-adv-x="1669" 
d="M145 1413h385v-536h162l516 536h455l-645 -672l684 -741h-490l-526 563h-156v-563h-385v1413z" />
    <glyph glyph-name="uni041B" unicode="&#x41b;" horiz-adv-x="1763" 
d="M39 338h39q134 0 174 117q37 115 37 372v586h1329v-1413h-385v1100h-586v-273q0 -236 -20 -385q-22 -163 -76 -256q-57 -96 -154 -141q-96 -45 -252 -45h-106v338z" />
    <glyph glyph-name="uni041C" unicode="&#x41c;" horiz-adv-x="2179" 
d="M868 180l-374 926v-1106h-349v1413h586l359 -883l356 883h588v-1413h-385v1108l-375 -928h-406z" />
    <glyph glyph-name="uni041D" unicode="&#x41d;" horiz-adv-x="1810" 
d="M145 1413h385v-530h750v530h385v-1413h-385v569h-750v-569h-385v1413z" />
    <glyph glyph-name="uni041E" unicode="&#x41e;" horiz-adv-x="1931" 
d="M84 717q0 205 59 344q61 143 170 225q113 84 277 121q166 35 377 35q207 0 376 -35q161 -37 277 -121q111 -85 170 -225q57 -134 57 -344q0 -215 -57 -355q-58 -143 -170 -229q-112 -87 -277 -125q-164 -37 -376 -37q-216 0 -377 37q-168 38 -277 125q-111 83 -170 229
q-59 145 -59 355zM1458 635v149q0 202 -123 281q-127 80 -368 80q-242 0 -369 -80q-125 -79 -125 -281v-149q0 -213 125 -289q128 -78 369 -78q240 0 368 78q123 76 123 289z" />
    <glyph glyph-name="uni041F" unicode="&#x41f;" horiz-adv-x="1775" 
d="M145 1413h1485v-1413h-385v1100h-715v-1100h-385v1413z" />
    <glyph glyph-name="uni0420" unicode="&#x420;" horiz-adv-x="1677" 
d="M145 1413h965q263 0 389 -129q125 -128 125 -356q0 -235 -125 -363q-126 -129 -389 -129h-580v-436h-385v1413zM1233 897v57q0 68 -41 115q-42 45 -137 45h-525v-379h525q95 0 137 45q41 44 41 117z" />
    <glyph glyph-name="uni0421" unicode="&#x421;" horiz-adv-x="1765" 
d="M84 705q0 209 57 346q56 142 162 229q103 84 258 125q151 37 346 37q353 0 563 -115q209 -119 236 -403h-389q-21 134 -127 178q-104 43 -283 43q-95 0 -174 -15t-137 -55q-60 -41 -88 -108q-33 -67 -33 -179v-163q0 -215 119 -285q123 -72 313 -72q173 0 277 43
q105 41 135 166h389q-35 -275 -240 -389q-208 -117 -561 -117q-195 0 -346 37t-258 121q-106 81 -162 227q-57 137 -57 349z" />
    <glyph glyph-name="uni0422" unicode="&#x422;" horiz-adv-x="1572" 
d="M594 1100h-561v313h1507v-313h-561v-1100h-385v1100z" />
    <glyph glyph-name="uni0423" unicode="&#x423;" horiz-adv-x="1689" 
d="M481 0l211 360l-688 1053h424l465 -713l418 713h379l-832 -1413h-377z" />
    <glyph glyph-name="uni0424" unicode="&#x424;" horiz-adv-x="2220" 
d="M918 188q-420 3 -635 123q-217 120 -217 432q0 162 55 269q51 105 160 170q105 63 266 90q152 23 371 26v144h385v-144q218 -3 370 -26q161 -27 266 -90q106 -65 160 -170q53 -109 53 -269q0 -312 -215 -432t-634 -123v-217h-385v217zM918 1012q-260 -3 -359 -54
q-102 -52 -102 -182v-67q0 -132 100 -181q94 -50 361 -53v537zM1763 709v67q0 133 -98 185q-96 48 -362 51v-537q268 3 362 53q98 49 98 181z" />
    <glyph glyph-name="uni0425" unicode="&#x425;" horiz-adv-x="1669" 
d="M1231 0l-410 475l-411 -475h-424l618 709l-610 704h461l393 -455l391 455h424l-600 -686l629 -727h-461z" />
    <glyph glyph-name="uni0426" unicode="&#x426;" horiz-adv-x="1873" 
d="M1460 -307v307h-1315v1413h385v-1100h715v1100h385v-1100h191v-620h-361z" />
    <glyph glyph-name="uni0427" unicode="&#x427;" horiz-adv-x="1716" 
d="M1186 494q-119 -9 -174 -11q-102 -6 -201 -6q-199 0 -342 31q-139 30 -223 96q-86 65 -123 166q-39 98 -39 242v401h385v-344q0 -176 96 -229q97 -54 293 -54q24 0 166 5q64 2 162 10v612h385v-1413h-385v494z" />
    <glyph glyph-name="uni0428" unicode="&#x428;" horiz-adv-x="2410" 
d="M145 1413h385v-1100h482v1100h387v-1100h481v1100h385v-1413h-2120v1413z" />
    <glyph glyph-name="uni0429" unicode="&#x429;" horiz-adv-x="2508" 
d="M145 1413h385v-1100h482v1100h387v-1100h481v1100h385v-1100h191v-620h-363v307h-1948v1413z" />
    <glyph glyph-name="uni042A" unicode="&#x42a;" horiz-adv-x="1921" 
d="M37 1413h741v-438h578q263 0 389 -129q125 -128 125 -361q0 -228 -125 -356q-126 -129 -389 -129h-963v1100h-356v313zM1479 457v63q0 68 -43 111q-47 41 -140 41h-518v-369h518q94 0 140 43q43 40 43 111z" />
    <glyph glyph-name="uni042B" unicode="&#x42b;" horiz-adv-x="2297" 
d="M145 1413h385v-438h578q263 0 389 -129q125 -128 125 -361q0 -228 -125 -356q-126 -129 -389 -129h-963v1413zM1231 457v63q0 68 -43 111q-47 41 -139 41h-519v-369h519q93 0 139 43q43 40 43 111zM1765 1413h385v-1413h-385v1413z" />
    <glyph glyph-name="uni042C" unicode="&#x42c;" horiz-adv-x="1675" 
d="M145 1413h385v-438h578q263 0 389 -129q125 -128 125 -361q0 -228 -125 -356q-126 -129 -389 -129h-963v1413zM1231 457v63q0 68 -43 111q-47 41 -139 41h-519v-369h519q93 0 139 43q43 40 43 111z" />
    <glyph glyph-name="uni042D" unicode="&#x42d;" horiz-adv-x="1763" 
d="M53 477h391q30 -122 138 -166q107 -43 274 -43q187 0 303 64q115 62 127 248h-663v274h663q-15 174 -129 233q-113 58 -297 58q-169 0 -276 -43q-108 -44 -135 -178h-390q30 286 242 403q210 115 559 115q185 0 340 -35q148 -37 258 -121q104 -82 164 -227
q57 -140 57 -354q0 -216 -57 -353q-60 -144 -166 -225q-110 -87 -258 -121q-155 -35 -340 -35q-352 0 -561 117q-209 116 -244 389z" />
    <glyph glyph-name="uni042E" unicode="&#x42e;" horiz-adv-x="2516" 
d="M145 1413h385v-530h220q47 314 260 436q212 123 575 123q206 0 363 -37q157 -38 266 -121q104 -82 164 -227q55 -143 55 -350q0 -209 -55 -349q-60 -145 -164 -227q-107 -85 -266 -123q-157 -37 -363 -37q-375 0 -592 135q-215 131 -250 474h-213v-580h-385v1413z
M2044 643v133q0 204 -117 287q-116 82 -342 82t-342 -82q-117 -83 -117 -287v-133q0 -218 117 -295q118 -80 342 -80t342 80q117 77 117 295z" />
    <glyph glyph-name="uni042F" unicode="&#x42f;" horiz-adv-x="1714" 
d="M1182 479h-416l-291 -479h-414l312 516q-139 47 -211 156q-74 109 -74 274q0 215 131 340q133 127 385 127h965v-1413h-387v479zM1182 1118h-520q-87 0 -136 -37q-49 -40 -49 -110v-45q0 -73 49 -113q46 -43 136 -43h520v348z" />
    <glyph glyph-name="uni0430" unicode="&#x430;" horiz-adv-x="1433" 
d="M63 289q0 156 113 241q116 84 363 93l413 14v35q0 93 -59 131q-59 35 -176 35q-115 0 -170 -27q-56 -26 -72 -90h-371q21 173 172 262q153 90 441 90q298 0 450 -96q152 -100 152 -305v-672h-354v160q-58 -87 -172 -137q-113 -52 -293 -52q-221 0 -330 86
q-107 82 -107 232zM434 313q0 -59 45 -82q45 -26 148 -26q146 0 235 51q90 53 90 160v37l-325 -13q-97 -3 -148 -26q-45 -23 -45 -82v-19z" />
    <glyph glyph-name="uni0431" unicode="&#x431;" horiz-adv-x="1517" 
d="M94 621q0 253 43 421q40 166 133 267q93 96 242 139q153 42 360 45q188 3 324 10q109 6 162 15v-295q-54 -9 -158 -15q-84 -5 -315 -8q-134 -3 -219 -18q-85 -14 -140 -60q-54 -48 -77 -121q-24 -77 -33 -192q65 105 190 164q119 55 301 55q261 0 400 -121
q137 -119 137 -401q0 -290 -168 -412q-170 -123 -506 -123q-165 0 -295 31q-129 31 -211 104q-86 74 -127 201q-43 125 -43 314zM1071 457v88q0 133 -70 182t-233 49q-160 0 -231 -47q-72 -51 -72 -184v-88q0 -136 72 -187q68 -51 231 -51q165 0 233 51q70 49 70 187z" />
    <glyph glyph-name="uni0432" unicode="&#x432;" horiz-adv-x="1435" 
d="M127 1044h799q220 0 311 -67q92 -68 92 -178q0 -87 -49 -154q-51 -69 -190 -96q152 -21 217 -92q61 -70 61 -164q0 -145 -92 -219t-293 -74h-856v1044zM961 717v24q0 40 -25 62t-88 22h-359v-196h359q66 0 90 24q23 26 23 64zM993 317v31q0 46 -30 70q-34 24 -97 24h-377
v-225h377q61 0 97 25q30 24 30 75z" />
    <glyph glyph-name="uni0433" unicode="&#x433;" horiz-adv-x="1118" 
d="M127 1044h960v-268h-591v-776h-369v1044z" />
    <glyph glyph-name="uni0434" unicode="&#x434;" horiz-adv-x="1601" 
d="M27 -287v553h133q39 65 57 174q19 111 19 256v348h1150v-776h175v-555h-344v287h-846v-287h-344zM1020 776h-449v-80q0 -144 -16 -256q-19 -111 -51 -172h516v508z" />
    <glyph glyph-name="uni0435" unicode="&#x435;" horiz-adv-x="1423" 
d="M70 520q0 292 166 424q166 129 477 129q305 0 473 -119q166 -120 166 -405v-66h-918v-37q0 -130 72 -184q71 -53 207 -53q128 0 190 33q64 34 84 102h363q-41 -194 -201 -283q-166 -90 -436 -90q-315 0 -477 125q-166 126 -166 424zM713 842q-127 0 -201 -41
q-75 -41 -78 -139h559q-3 98 -71 139t-209 41z" />
    <glyph glyph-name="uni0436" unicode="&#x436;" horiz-adv-x="2009" 
d="M819 1044h369v-389h102l301 389h383l-383 -493l426 -551h-418l-303 389h-108v-389h-369v389h-108l-305 -389h-414l420 539l-394 505h398l301 -389h102v389z" />
    <glyph glyph-name="uni0437" unicode="&#x437;" horiz-adv-x="1382" 
d="M43 328h373q12 -72 86 -99q71 -30 194 -30q137 0 193 26q55 24 55 82v25q0 52 -47 76q-49 22 -143 22h-246v211h233q94 0 138 23q41 21 41 69v21q0 50 -50 71q-52 19 -172 19q-125 0 -194 -29q-67 -28 -76 -92h-373q9 101 60 166q53 67 135 108q80 39 199 58
q114 18 245 18q128 0 246 -16q110 -18 188 -53q75 -37 119 -93q43 -55 43 -133q0 -79 -49 -137q-50 -59 -172 -86q122 -28 182 -90q62 -65 62 -160q0 -171 -152 -252q-149 -82 -465 -82q-306 0 -469 82t-184 275z" />
    <glyph glyph-name="uni0438" unicode="&#x438;" horiz-adv-x="1519" 
d="M127 1044h362v-655l500 655h406v-1044h-365v653l-500 -653h-403v1044z" />
    <glyph glyph-name="uni0439" unicode="&#x439;" horiz-adv-x="1519" 
d="M305 1571h289q0 -99 39 -141q38 -44 119 -44q77 0 118 44q37 43 37 141h291q-6 -191 -113 -285q-110 -96 -333 -96q-224 0 -334 96t-113 285zM127 1044h369v-671l495 671h404v-1044h-369v670l-498 -670h-401v1044z" />
    <glyph glyph-name="uni043A" unicode="&#x43a;" horiz-adv-x="1409" 
d="M127 1044h369v-387h125l354 387h409l-454 -495l508 -549h-453l-362 389h-127v-389h-369v1044z" />
    <glyph glyph-name="uni043B" unicode="&#x43b;" horiz-adv-x="1462" 
d="M41 0v305h33q102 0 129 64q28 64 28 239v436h1104v-1044h-368v776h-396v-176q0 -174 -20 -283q-21 -118 -72 -186q-52 -70 -137 -100q-91 -31 -219 -31h-82z" />
    <glyph glyph-name="uni043C" unicode="&#x43c;" horiz-adv-x="1859" 
d="M748 109l-291 686v-795h-330v1044h535l264 -618l264 618h543v-1044h-365v786l-291 -677h-329z" />
    <glyph glyph-name="uni043D" unicode="&#x43d;" horiz-adv-x="1497" 
d="M127 1044h369v-385h508v385h366v-1044h-366v391h-508v-391h-369v1044z" />
    <glyph glyph-name="uni043E" unicode="&#x43e;" horiz-adv-x="1497" 
d="M72 522q0 157 43 264q42 104 129 170q81 63 211 91q121 26 293 26q170 0 294 -26q129 -28 213 -91q85 -67 127 -170q43 -107 43 -264q0 -159 -43 -266q-42 -103 -127 -170q-82 -62 -213 -90q-134 -25 -294 -25q-162 0 -293 25q-132 28 -211 90q-87 66 -129 170
q-43 107 -43 266zM1053 451v141q0 135 -76 184q-77 47 -229 47q-151 0 -228 -47q-76 -49 -76 -184v-141q0 -134 76 -183t228 -49q153 0 229 49t76 183z" />
    <glyph glyph-name="uni043F" unicode="&#x43f;" horiz-adv-x="1470" 
d="M127 1044h1219v-1044h-369v776h-481v-776h-369v1044z" />
    <glyph glyph-name="uni0440" unicode="&#x440;" horiz-adv-x="1548" 
d="M127 1044h358v-161q64 98 179 145q110 45 274 45q249 0 393 -129q144 -132 144 -424q0 -285 -142 -418q-143 -131 -395 -131q-154 0 -264 43q-113 40 -178 129v-553h-369v1454zM1102 444v156q0 125 -76 174t-227 49q-155 0 -228 -49q-75 -51 -75 -174v-156
q0 -127 75 -176q73 -49 226 -49t229 49t76 176z" />
    <glyph glyph-name="uni0441" unicode="&#x441;" horiz-adv-x="1390" 
d="M74 522q0 304 157 428q156 123 486 123q270 0 436 -84q159 -85 180 -289h-370q-15 60 -66 93q-53 30 -182 30q-141 0 -203 -45q-66 -48 -66 -168v-170q0 -127 68 -174t201 -47q129 0 182 35q56 37 70 92h372q-27 -185 -178 -280t-446 -95q-161 0 -281 27q-125 28 -201 90
q-78 63 -118 170q-41 109 -41 264z" />
    <glyph glyph-name="uni0442" unicode="&#x442;" horiz-adv-x="1261" 
d="M446 776h-413v268h1196v-268h-414v-776h-369v776z" />
    <glyph glyph-name="uni0443" unicode="&#x443;" horiz-adv-x="1359" 
d="M168 -147h139q93 0 135 22q40 24 78 107l6 14l-536 1048h383l332 -677l325 677h334l-539 -1128q-57 -108 -90 -154q-45 -63 -96 -102q-53 -38 -119 -53q-77 -17 -158 -17h-194v263z" />
    <glyph glyph-name="uni0444" unicode="&#x444;" horiz-adv-x="1951" 
d="M791 -29q-353 0 -537 129q-184 126 -184 422q0 288 184 420q183 131 537 131v422h368v-422q356 0 539 -131q184 -132 184 -420q0 -296 -184 -422q-184 -129 -539 -129v-381h-368v381zM791 823q-183 0 -263 -45q-86 -47 -86 -180v-145q0 -117 84 -174q82 -58 265 -58v602z
M1509 453v145q0 133 -84 180q-80 45 -266 45v-602q184 0 266 58q84 57 84 174z" />
    <glyph glyph-name="uni0445" unicode="&#x445;" horiz-adv-x="1341" 
d="M938 0l-281 326l-292 -326h-377l475 524l-459 520h418l262 -299l274 299h375l-456 -497l479 -547h-418z" />
    <glyph glyph-name="uni0446" unicode="&#x446;" horiz-adv-x="1558" 
d="M1174 -287v287h-1049v1044h369v-776h481v776h368v-776h175v-555h-344z" />
    <glyph glyph-name="uni0447" unicode="&#x447;" horiz-adv-x="1406" 
d="M913 362q-65 -9 -143 -12q-82 -6 -158 -6q-289 0 -415 100q-131 101 -131 363v237h368v-219q0 -129 64 -172q61 -43 213 -43q30 0 108 4q31 2 94 11v419h369v-1044h-369v362z" />
    <glyph glyph-name="uni0448" unicode="&#x448;" horiz-adv-x="2058" 
d="M127 1044h369v-776h350v776h368v-776h351v776h368v-1044h-1806v1044z" />
    <glyph glyph-name="uni0449" unicode="&#x449;" horiz-adv-x="2146" 
d="M127 1044h369v-776h350v776h368v-776h351v776h368v-776h176v-555h-344v287h-1638v1044z" />
    <glyph glyph-name="uni044A" unicode="&#x44a;" horiz-adv-x="1585" 
d="M326 0v776h-291v268h659v-299h436q200 0 304 -94t104 -274q0 -185 -104 -279q-104 -98 -304 -98h-804zM1165 354v43q0 55 -32 80q-35 27 -99 27h-340v-262h340q63 0 99 28q32 25 32 84z" />
    <glyph glyph-name="uni044B" unicode="&#x44b;" horiz-adv-x="1943" 
d="M127 0v1044h369v-299h436q199 0 303 -94t104 -274q0 -185 -104 -279q-104 -98 -303 -98h-805zM967 354v43q0 54 -33 80q-34 27 -98 27h-340v-262h340q62 0 98 28q33 26 33 84zM1448 1044h369v-1044h-369v1044z" />
    <glyph glyph-name="uni044C" unicode="&#x44c;" horiz-adv-x="1384" 
d="M127 0v1044h369v-299h436q199 0 303 -94t104 -274q0 -185 -104 -279q-104 -98 -303 -98h-805zM967 354v43q0 54 -33 80q-34 27 -98 27h-340v-262h340q62 0 98 28q33 26 33 84z" />
    <glyph glyph-name="uni044D" unicode="&#x44d;" horiz-adv-x="1398" 
d="M43 348h375q15 -61 74 -96q56 -35 198 -35q147 0 211 49q66 51 66 156h-461v211h461q-3 104 -66 149q-62 45 -211 45q-145 0 -196 -32q-55 -34 -70 -93h-375q21 182 191 277q169 94 454 94q308 0 471 -123q164 -123 164 -428t-164 -428t-469 -123q-286 0 -456 95
t-197 282z" />
    <glyph glyph-name="uni044E" unicode="&#x44e;" horiz-adv-x="2043" 
d="M127 1044h369v-380h159q38 234 205 321q169 88 449 88q163 0 284 -26q126 -28 207 -91q84 -66 129 -170q43 -107 43 -264q0 -159 -43 -266q-46 -106 -129 -168q-79 -62 -207 -90q-126 -27 -284 -27q-285 0 -455 92q-168 91 -203 340h-155v-403h-369v1044zM1597 444v156
q0 131 -71 178q-71 45 -217 45q-149 0 -217 -45q-74 -47 -74 -178v-156q0 -131 74 -178q68 -45 217 -45q146 0 217 45q71 47 71 178z" />
    <glyph glyph-name="uni044F" unicode="&#x44f;" horiz-adv-x="1431" 
d="M936 326h-285l-198 -326h-394l238 389q-109 34 -168 111q-57 75 -57 190q0 171 110 262q112 92 328 92h795v-1044h-369v326zM936 807h-371q-58 0 -88 -27q-33 -26 -33 -75v-39q0 -48 33 -74q32 -29 88 -29h371v244z" />
    <glyph glyph-name="uni0451" unicode="&#x451;" horiz-adv-x="1423" 
d="M70 520q0 292 166 424q166 129 477 129q305 0 473 -119q166 -120 166 -405v-66h-918v-37q0 -130 72 -184q71 -53 207 -53q128 0 190 33q64 34 84 102h363q-41 -194 -201 -283q-166 -90 -436 -90q-315 0 -477 125q-166 126 -166 424zM713 842q-127 0 -201 -41
q-75 -41 -78 -139h559q-3 98 -71 139t-209 41zM248 1391q0 83 47 127q46 43 139 43t139 -43q45 -42 45 -127t-45 -127q-46 -43 -139 -43t-139 43q-47 44 -47 127zM805 1391q0 83 47 127q46 43 139 43t139 -43t46 -127t-46 -127t-139 -43t-139 43q-47 44 -47 127z" />
    <glyph glyph-name="uni0453" unicode="&#x453;" horiz-adv-x="1118" 
d="M127 1044h960v-268h-591v-776h-369v1044zM428 1204l289 367h377l-359 -367h-307z" />
    <glyph glyph-name="uni045E" unicode="&#x45e;" horiz-adv-x="1359" 
d="M168 -147h139q93 0 135 22q40 24 78 107l6 14l-536 1048h383l332 -677l325 677h334l-539 -1128q-57 -108 -90 -154q-45 -63 -96 -102q-53 -38 -119 -53q-77 -17 -158 -17h-194v263zM252 1571h289q0 -99 39 -141q38 -44 118 -44q78 0 119 44q37 43 37 141h289
q-3 -191 -111 -285q-110 -96 -334 -96q-223 0 -333 96t-113 285z" />
    <glyph glyph-name="uni0490" unicode="&#x490;" horiz-adv-x="1376" 
d="M145 1413h834v307h367v-620h-816v-1100h-385v1413z" />
    <glyph glyph-name="Wgrave" unicode="&#x1e80;" horiz-adv-x="2289" 
d="M29 1413h385l241 -1053l285 1053h467l272 -1051l250 1051h334l-340 -1413h-502l-274 1051l-285 -1051h-504zM1004 1552l-386 340h406l322 -340h-342z" />
    <glyph glyph-name="wgrave" unicode="&#x1e81;" horiz-adv-x="1945" 
d="M334 0l-320 1044h346l218 -735l217 735h401l219 -722l213 722h303l-319 -1044h-418l-227 752l-224 -752h-409zM471 1571h387l289 -367h-318z" />
    <glyph glyph-name="Wacute" unicode="&#x1e82;" horiz-adv-x="2289" 
d="M29 1413h385l241 -1053l285 1053h467l272 -1051l250 1051h334l-340 -1413h-502l-274 1051l-285 -1051h-504zM999 1552l324 340h395l-391 -340h-328z" />
    <glyph glyph-name="wacute" unicode="&#x1e83;" horiz-adv-x="1945" 
d="M334 0l-320 1044h346l218 -735l217 735h401l219 -722l213 722h303l-319 -1044h-418l-227 752l-224 -752h-409zM846 1204l289 367h376l-358 -367h-307z" />
    <glyph glyph-name="Wdieresis" unicode="&#x1e84;" horiz-adv-x="2289" 
d="M29 1413h385l241 -1053l285 1053h467l272 -1051l250 1051h334l-340 -1413h-502l-274 1051l-285 -1051h-504zM678 1704q0 83 47 127q46 43 139 43q94 0 140 -43q45 -42 45 -127t-45 -127q-46 -43 -140 -43q-93 0 -139 43q-47 44 -47 127zM1251 1704q0 83 47 127
q46 43 138 43q95 0 141 -43q45 -42 45 -127t-45 -127q-46 -43 -141 -43q-92 0 -138 43q-47 44 -47 127z" />
    <glyph glyph-name="wdieresis" unicode="&#x1e85;" horiz-adv-x="1945" 
d="M334 0l-320 1044h346l218 -735l217 735h401l219 -722l213 722h303l-319 -1044h-418l-227 752l-224 -752h-409zM510 1391q0 83 47 127q46 43 139 43q94 0 140 -43q45 -42 45 -127t-45 -127q-46 -43 -140 -43q-93 0 -139 43q-47 44 -47 127zM1067 1391q0 83 47 127
q46 43 139 43q94 0 140 -43q45 -42 45 -127t-45 -127q-46 -43 -140 -43q-93 0 -139 43q-47 44 -47 127z" />
    <glyph glyph-name="Ygrave" unicode="&#x1ef2;" horiz-adv-x="1685" 
d="M668 565l-684 848h438l455 -571l415 571h389l-628 -850v-563h-385v565zM715 1552l-385 340h405l322 -340h-342z" />
    <glyph glyph-name="ygrave" unicode="&#x1ef3;" horiz-adv-x="1359" 
d="M168 -147h139q93 0 135 22q40 24 78 107l6 14l-536 1048h383l332 -677l325 677h334l-539 -1128q-57 -108 -90 -154q-45 -63 -96 -102q-53 -38 -119 -53q-77 -17 -158 -17h-194v263zM195 1571h387l288 -367h-317z" />
    <glyph glyph-name="endash" unicode="&#x2013;" horiz-adv-x="1564" 
d="M113 664h1341v-271h-1341v271z" />
    <glyph glyph-name="Cacute.locl" horiz-adv-x="1765" 
d="M770 1552l117 340h350l-182 -340h-285zM84 705q0 209 57 346q56 142 162 229q103 84 258 125q151 37 346 37q353 0 563 -115q209 -119 236 -403h-389q-21 134 -127 178q-104 43 -283 43q-95 0 -174 -15t-137 -55q-60 -41 -88 -108q-33 -67 -33 -179v-163q0 -215 119 -285
q123 -72 313 -72q173 0 277 43q105 41 135 166h389q-35 -275 -240 -389q-208 -117 -561 -117q-195 0 -346 37t-258 121q-106 81 -162 227q-57 137 -57 349z" />
    <glyph glyph-name="Nacute.locl" horiz-adv-x="1837" 
d="M791 1552l116 340h350l-182 -340h-284zM1165 0l-665 1030v-1030h-355v1413h529l663 -1026v1026h355v-1413h-527z" />
    <glyph glyph-name="Oacute.locl" horiz-adv-x="1931" 
d="M84 717q0 205 59 344q61 143 170 225q113 84 277 121q166 35 377 35q207 0 376 -35q161 -37 277 -121q111 -85 170 -225q57 -134 57 -344q0 -215 -57 -355q-58 -143 -170 -229q-112 -87 -277 -125q-164 -37 -376 -37q-216 0 -377 37q-168 38 -277 125q-111 83 -170 229
q-59 145 -59 355zM1458 635v149q0 202 -123 281q-127 80 -368 80q-242 0 -369 -80q-125 -79 -125 -281v-149q0 -213 125 -289q128 -78 369 -78q240 0 368 78q123 76 123 289zM805 1552l117 340h350l-182 -340h-285z" />
    <glyph glyph-name="Sacute.locl" horiz-adv-x="1662" 
d="M70 440h391q21 -112 112 -149q90 -37 271 -37q183 0 276 35q90 35 90 125q0 116 -174 131q-117 10 -385 37q-209 21 -383 100q-176 77 -176 315q0 236 195 342q195 103 536 103q345 0 535 -105q188 -105 209 -344h-391q-14 98 -107 133q-88 33 -246 33q-181 0 -266 -31
q-86 -35 -86 -124q0 -108 176 -123q103 -9 383 -37q205 -21 385 -99q174 -76 174 -305q0 -250 -184 -358q-185 -111 -561 -111q-386 0 -570 111q-183 110 -204 358zM688 1552l117 340h350l-182 -340h-285z" />
    <glyph glyph-name="Zacute.locl" horiz-adv-x="1554" 
d="M86 313l887 791h-879v309h1368v-313l-887 -791h895v-309h-1384v313zM631 1552l117 340h350l-183 -340h-284z" />
    <glyph glyph-name="cacute.locl" horiz-adv-x="1390" 
d="M74 522q0 304 157 428q156 123 486 123q270 0 436 -84q159 -85 180 -289h-370q-15 60 -66 93q-53 30 -182 30q-141 0 -203 -45q-66 -48 -66 -168v-170q0 -127 68 -174t201 -47q129 0 182 35q56 37 70 92h372q-27 -185 -178 -280t-446 -95q-161 0 -281 27q-125 28 -201 90
q-78 63 -118 170q-41 109 -41 264zM580 1204l86 367h335l-155 -367h-266z" />
    <glyph glyph-name="glyph312" horiz-adv-x="688" 
d="M10 1204l289 367h377l-359 -367h-307z" />
    <glyph glyph-name="glyph313" horiz-adv-x="696" 
d="M10 1571h387l289 -367h-317z" />
    <glyph glyph-name="glyph314" horiz-adv-x="1005" 
d="M10 1204l170 367h324l-232 -367h-262zM412 1204l241 367h342l-305 -367h-278z" />
    <glyph glyph-name="glyph315" horiz-adv-x="1026" 
d="M10 1204l332 367h342l332 -367h-336l-174 182l-174 -182h-322z" />
    <glyph glyph-name="glyph316" horiz-adv-x="1026" 
d="M10 1571h336l174 -185l174 185h322l-332 -367h-342z" />
    <glyph glyph-name="glyph317" horiz-adv-x="931" 
d="M20 1571h271q3 -85 45 -127q39 -39 131 -39t131 39q40 40 43 127h270q0 -191 -108 -285q-113 -96 -336 -96t-336 96q-111 94 -111 285z" />
    <glyph glyph-name="glyph318" horiz-adv-x="915" 
d="M276 1579q71 0 115 -20q38 -17 80 -50q10 -8 66 -47q28 -22 63 -22q34 0 55 37q19 36 19 92h227q0 -183 -63 -275q-64 -98 -189 -98q-65 0 -119 23q-47 20 -84 49q-26 17 -65 47q-31 22 -62 22q-38 0 -57 -32q-20 -33 -20 -99h-228q0 174 64 275q64 98 198 98z" />
    <glyph glyph-name="glyph319" horiz-adv-x="919" 
d="M57 1278v217h793v-217h-793z" />
    <glyph glyph-name="glyph320" horiz-adv-x="980" 
d="M27 1386q0 83 47 127q46 43 139 43t139 -43q45 -42 45 -127q0 -84 -45 -126q-46 -43 -139 -43t-139 43q-47 44 -47 126zM584 1386q0 83 47 127q46 43 139 43t139 -43q45 -42 45 -127q0 -84 -45 -126q-46 -43 -139 -43t-139 43q-47 44 -47 126z" />
    <glyph glyph-name="glyph321" horiz-adv-x="598" 
d="M94 1358q0 81 56 125q53 41 149 41q99 0 152 -41q53 -44 53 -125q0 -84 -53 -125q-52 -43 -152 -43q-97 0 -149 43q-56 41 -56 125z" />
    <glyph glyph-name="glyph322" horiz-adv-x="722" 
d="M25 1389q0 101 79 159q80 56 254 56q178 0 258 -56q80 -59 80 -159q0 -104 -80 -160q-79 -58 -258 -58q-175 0 -254 58q-79 55 -79 160zM492 1389q0 33 -27 51q-29 16 -105 16q-73 0 -102 -16q-29 -19 -29 -51q0 -33 29 -52q27 -18 102 -18q78 0 105 18t27 52z" />
    <glyph glyph-name="glyph323" horiz-adv-x="1024" 
d="M367 -459v174q89 0 120 2q47 3 68 9q23 6 29 16q6 9 6 27q0 32 -37 41q-45 10 -174 10v180h235v-68q119 -9 197 -43q80 -35 80 -143q0 -101 -90 -154q-89 -51 -256 -51h-178z" />
    <glyph glyph-name="glyph324" horiz-adv-x="673" 
d="M190 -440q79 0 119 16q37 18 37 57h-12q-94 0 -150 29q-53 30 -53 102t53 107q52 37 156 37q105 0 158 -41t53 -135v-45q0 -145 -84 -211q-83 -62 -277 -62v146z" />
    <glyph glyph-name="glyph325" horiz-adv-x="931" 
d="M20 1571h289q0 -99 39 -141q38 -44 119 -44q78 0 119 44q37 43 37 141h288q-3 -191 -110 -285q-110 -96 -334 -96t-334 96t-113 285z" />
    <glyph glyph-name="glyph326" horiz-adv-x="620" 
d="M-111 -141h105q74 0 104 35q29 40 29 106v1044h369v-1091q0 -185 -78 -275q-76 -88 -285 -88h-244v269z" />
    <glyph glyph-name="glyph328" horiz-adv-x="491" 
d="M12 1552l117 340h350l-182 -340h-285z" />
    <glyph glyph-name="glyph329" horiz-adv-x="741" 
d="M12 1552l324 340h395l-391 -340h-328z" />
    <glyph glyph-name="glyph330" horiz-adv-x="751" 
d="M397 1552l-385 340h406l321 -340h-342z" />
    <glyph glyph-name="glyph331" horiz-adv-x="1056" 
d="M12 1552l174 340h342l-239 -340h-277zM442 1552l246 340h359l-314 -340h-291z" />
    <glyph glyph-name="glyph332" horiz-adv-x="1132" 
d="M8 1552l379 340h358l381 -340h-366l-201 164l-199 -164h-352z" />
    <glyph glyph-name="glyph333" horiz-adv-x="1132" 
d="M8 1892h367l198 -163l199 163h354l-381 -340h-356z" />
    <glyph glyph-name="glyph334" horiz-adv-x="989" 
d="M27 1892h278q6 -74 51 -108q42 -33 138 -33q95 0 139 33q45 34 51 108h279q-6 -179 -121 -268q-116 -90 -348 -90q-231 0 -347 90q-117 88 -120 268z" />
    <glyph glyph-name="glyph335" horiz-adv-x="948" 
d="M276 1896q68 0 121 -16q43 -16 88 -39q68 -38 70 -39q35 -18 70 -18q33 0 55 28q18 27 18 76h238q0 -162 -64 -250q-66 -90 -188 -90q-70 0 -125 19q-50 17 -92 39q-14 7 -37.5 20t-34.5 19q-35 18 -65 18q-37 0 -58 -27q-20 -26 -20 -80h-238q0 162 64 250q66 90 198 90
z" />
    <glyph glyph-name="glyph336" horiz-adv-x="860" 
d="M27 1608v229h804v-229h-804z" />
    <glyph glyph-name="glyph337" horiz-adv-x="1009" 
d="M33 1704q0 83 47 127q46 43 139 43t139 -43q45 -42 45 -127t-45 -127q-46 -43 -139 -43t-139 43q-47 44 -47 127zM606 1704q0 83 47 127q46 43 138 43q95 0 141 -43q45 -42 45 -127t-45 -127q-46 -43 -141 -43q-92 0 -138 43q-47 44 -47 127z" />
    <glyph glyph-name="glyph338" horiz-adv-x="444" 
d="M25 1722q0 84 49 127q50 41 149 41q100 0 150 -41q47 -44 47 -127q0 -86 -47 -127q-49 -43 -150 -43q-100 0 -149 43q-49 40 -49 127z" />
    <glyph glyph-name="glyph339" horiz-adv-x="763" 
d="M18 1722q0 99 80 152q79 49 283 49q203 0 285 -49q79 -52 79 -152q0 -102 -79 -151q-82 -49 -285 -49q-204 0 -283 49q-80 50 -80 151zM383 1669q98 0 123 14q26 12 26 39t-26 41q-29 13 -123 13q-96 0 -125 -13q-27 -15 -27 -41q0 -27 27 -39q25 -14 125 -14z" />
    <glyph glyph-name="glyph340" horiz-adv-x="1052" 
d="M45 1874h307q6 -82 47 -117t123 -35t123 35q42 36 45 117h309q-6 -180 -122 -268q-119 -90 -355 -90q-235 0 -354 90q-120 88 -123 268z" />
    <glyph glyph-name="glyph376" horiz-adv-x="442" 
d="M10 1204l86 367h336l-156 -367h-266z" />
    <glyph glyph-name="glyph377" horiz-adv-x="899" 
d="M539 1522q-77 0 -119 -17q-37 -18 -37 -57h12q94 0 150 -29q53 -30 53 -102q0 -73 -51 -107q-50 -36 -158 -36q-106 0 -158 40q-53 41 -53 136v45q0 145 84 211q82 61 277 61v-145z" />
    <glyph glyph-name="i.locl" horiz-adv-x="620" 
d="M127 1044h369v-1044h-369v1044zM106 1358q0 81 56 125q53 41 149 41q99 0 152 -41q53 -44 53 -125q0 -84 -53 -125q-52 -43 -152 -43q-97 0 -149 43q-56 41 -56 125z" />
    <glyph glyph-name="nacute.locl" 
d="M1012 0v637q0 104 -66 145q-62 39 -188 39q-118 0 -189 -41q-73 -43 -73 -143v-637h-369v1044h358v-180q52 106 170 158q117 51 269 51q219 0 340 -92q116 -94 116 -307v-674h-368zM631 1204l86 367h336l-156 -367h-266z" />
    <glyph glyph-name="oacute.locl" horiz-adv-x="1497" 
d="M72 522q0 157 43 264q42 104 129 170q81 63 211 91q121 26 293 26q170 0 294 -26q129 -28 213 -91q85 -67 127 -170q43 -107 43 -264q0 -159 -43 -266q-42 -103 -127 -170q-82 -62 -213 -90q-134 -25 -294 -25q-162 0 -293 25q-132 28 -211 90q-87 66 -129 170
q-43 107 -43 266zM1053 451v141q0 135 -76 184q-77 47 -229 47q-151 0 -228 -47q-76 -49 -76 -184v-141q0 -134 76 -183t228 -49q153 0 229 49t76 183zM616 1204l86 367h336l-155 -367h-267z" />
    <glyph glyph-name="sacute.locl" horiz-adv-x="1368" 
d="M59 334h373q13 -80 80 -107q64 -30 184 -30q133 0 191 24q57 20 57 78q0 87 -135 96q-90 6 -297 25q-160 12 -297 74q-135 58 -135 245q0 176 160 256q162 78 432 78q285 0 442 -80q153 -79 168 -262h-373q-12 70 -71 94q-67 23 -166 23q-110 0 -168 -21q-60 -22 -60 -73
q0 -77 136 -86q169 -11 297 -23q157 -14 297 -78q135 -65 135 -250t-156 -264q-157 -80 -457 -80q-301 0 -456 82q-160 80 -181 279zM549 1204l86 367h336l-156 -367h-266z" />
    <glyph glyph-name="uni0414.locl" horiz-adv-x="1982" 
d="M45 -307v620h178l514 1100h529l485 -1100h182v-620h-360v307h-1167v-307h-361zM596 313h756l-369 842z" />
    <glyph glyph-name="uni0416.locl" horiz-adv-x="2506" 
d="M1055 1413h385v-543h123l489 543h432l-598 -663l641 -750h-475l-483 557h-129v-557h-385v557h-129l-484 -557h-462l630 737l-612 676h446l490 -543h121v543z" />
    <glyph glyph-name="uni041A.locl" horiz-adv-x="1669" 
d="M145 1413h385v-536h162l516 536h455l-645 -672l684 -741h-490l-526 563h-156v-563h-385v1413z" />
    <glyph glyph-name="uni041B.locl" horiz-adv-x="1728" 
d="M604 1413h529l596 -1413h-414l-461 1108l-467 -1108h-387z" />
    <glyph glyph-name="uni0431.locl" horiz-adv-x="1492" 
d="M66 502q0 177 98 278q95 98 250 140q-136 31 -217 100q-84 69 -84 184q0 145 104 221q107 78 354 78q293 0 480 6q151 2 274 15v-273q-41 -9 -111 -12q-52 -4 -165 -8q-126 -4 -209 -4q-76 -2 -240 -2q-64 0 -98 -17q-33 -17 -33 -55v-8q0 -78 149 -90q162 -13 328 -45
q183 -35 328 -131q149 -98 149 -349v-20q0 -288 -170 -414q-171 -125 -508 -125q-339 0 -507 119q-172 120 -172 412zM1049 438v129q0 123 -72 170q-74 47 -232 47q-155 0 -229 -45q-76 -46 -76 -172v-129q0 -123 72 -170q70 -49 233 -49q162 0 232 49q72 47 72 170z" />
    <glyph glyph-name="uni0432.locl" horiz-adv-x="1472" 
d="M111 471v537q0 113 34 206q34 92 113 162q75 66 199 107q121 37 297 37q322 0 471 -107t149 -313q0 -123 -65 -209q-66 -90 -201 -117q144 -27 221 -119q76 -91 76 -233q0 -213 -162 -332t-487 -119q-331 0 -486 113q-159 114 -159 387zM1014 1042v33q0 88 -60 133
q-61 43 -204 43q-152 0 -209 -57q-62 -59 -62 -180v-148h283q125 0 190 41q62 41 62 135zM1030 399v43q0 102 -57 144q-59 41 -211 41h-283v-176q0 -119 62 -172q63 -54 211 -54q149 0 213 43q65 44 65 131z" />
    <glyph glyph-name="uni0433.locl" horiz-adv-x="1374" 
d="M59 317q0 183 138 244q139 63 299 78q207 19 299 25q135 9 135 90q0 51 -60 73q-58 21 -170 21q-98 0 -165 -23q-62 -24 -74 -92h-373q15 177 168 260q151 80 444 80q273 0 435 -78q159 -79 159 -247q0 -182 -135 -240q-137 -61 -299 -76q-53 -5 -153 -15t-146 -14
q-137 -12 -137 -96q0 -60 61 -84q56 -26 191 -26q122 0 182 32q65 30 80 117h373q-15 -205 -176 -289q-162 -84 -451 -84q-296 0 -461 80q-164 80 -164 264z" />
    <glyph glyph-name="uni0434.locl" horiz-adv-x="1550" 
d="M117 -86h379q35 -60 98 -86q64 -25 178 -25q154 0 219 56q66 57 66 221v78q-65 -83 -168 -123q-104 -39 -252 -39q-263 0 -412 125q-149 122 -149 405q0 290 149 418q147 129 412 129q151 0 258 -43q109 -47 172 -139v153h363v-958q0 -281 -168 -403q-171 -121 -496 -121
q-306 0 -461 94q-158 96 -188 258zM1057 469v129q0 125 -72 176q-70 49 -231 49q-164 0 -232 -51q-73 -52 -73 -176v-133q0 -119 73 -168q71 -51 232 -51q163 0 231 51q72 51 72 174z" />
    <glyph glyph-name="uni0436.locl" horiz-adv-x="2009" 
d="M819 1495h369v-840h102l301 389h383l-383 -493l426 -551h-420l-301 389h-108v-389h-369v389h-108l-305 -389h-414l418 537l-392 507h398l301 -389h102v840z" />
    <glyph glyph-name="uni0437.locl" horiz-adv-x="1343" 
d="M35 -16h368q21 -90 78 -129q56 -39 181 -39q130 0 188 43q59 47 59 145v39q0 79 -53 129q-53 47 -170 47h-242v252h232q119 0 164 39q47 38 47 106v50q0 85 -56 120q-56 33 -163 33q-118 0 -174 -33q-57 -33 -72 -112h-369q9 115 62 192q49 76 129 123q76 45 186 66
q108 18 232 18q131 0 237 -20q102 -20 188 -70q75 -46 123 -121q45 -74 45 -182q0 -117 -61 -199q-64 -81 -190 -116q147 -35 210 -125q64 -91 64 -215q0 -239 -164 -353q-165 -110 -450 -110q-298 0 -445 100q-149 101 -184 322z" />
    <glyph glyph-name="uni0438.locl" 
d="M117 377v667h368v-638q0 -104 64 -144q62 -39 188 -39q112 0 189 41q75 40 75 146v634h369v-1044h-360v176q-52 -104 -170 -153q-119 -52 -269 -52q-211 0 -333 90q-121 89 -121 316z" />
    <glyph glyph-name="uni0439.locl" 
d="M117 377v667h368v-638q0 -104 64 -144q62 -39 188 -39q112 0 189 41q75 40 75 146v634h369v-1044h-360v176q-52 -104 -170 -153q-119 -52 -269 -52q-211 0 -333 90q-121 89 -121 316zM297 1571h289q0 -99 39 -141q38 -44 118 -44q78 0 119 44q37 43 37 141h289
q-3 -191 -111 -285q-110 -96 -334 -96q-223 0 -333 96t-113 285z" />
    <glyph glyph-name="uni043A.locl" horiz-adv-x="1409" 
d="M975 1044h409l-452 -495l506 -549h-453l-362 389h-127v-389h-369v1495h369v-838h125z" />
    <glyph glyph-name="uni043B.locl" horiz-adv-x="1372" 
d="M6 0l463 1044h430l469 -1044h-379l-321 731l-316 -731h-346z" />
    <glyph glyph-name="uni043D.locl" horiz-adv-x="1497" 
d="M127 1044h369v-385h508v385h366v-1044h-366v391h-508v-391h-369v1044z" />
    <glyph glyph-name="uni043F.locl" 
d="M1012 0v637q0 104 -66 145q-62 39 -188 39q-118 0 -189 -41q-73 -43 -73 -143v-637h-369v1044h358v-180q52 106 170 158q117 51 269 51q219 0 340 -92q116 -94 116 -307v-674h-368z" />
    <glyph glyph-name="uni0442.locl" horiz-adv-x="2213" 
d="M928 0v639q0 103 -54 145q-55 37 -157 37q-104 0 -160 -39q-61 -40 -61 -145v-637h-369v1044h358v-172q45 99 154 152q104 49 240 49q139 0 239 -47q97 -49 144 -160q51 105 161 156q108 51 258 51q202 0 312 -96q104 -94 104 -309v-668h-368v639q0 103 -54 145
q-55 37 -159 37q-102 0 -158 -39q-62 -41 -62 -147v-635h-368z" />
    <glyph glyph-name="uni0446.locl" horiz-adv-x="1583" 
d="M117 377v667h368v-638q0 -104 64 -144q62 -39 188 -39q112 0 189 41q75 40 75 146v634h369v-776h172v-555h-344v287h-188v178q-52 -103 -170 -155q-119 -52 -269 -52q-211 0 -333 90q-121 89 -121 316z" />
    <glyph glyph-name="uni0447.locl" horiz-adv-x="1406" 
d="M913 362q-65 -9 -143 -12q-82 -6 -158 -6q-289 0 -415 100q-131 101 -131 363v237h368v-219q0 -129 64 -172q61 -43 213 -43q30 0 108 4q31 2 94 11v419h369v-1044h-369v362z" />
    <glyph glyph-name="uni0448.locl" horiz-adv-x="2213" 
d="M117 377v667h368v-638q0 -106 56 -144q51 -39 157 -39q98 0 160 41q60 42 60 146v634h368v-638q0 -107 55 -144q51 -39 158 -39q101 0 160 41t59 144v636h369v-1044h-361v170q-45 -97 -149 -147q-104 -52 -238 -52q-141 0 -239 49q-99 48 -146 160q-47 -103 -157 -155
q-117 -54 -260 -54q-205 0 -312 101q-108 99 -108 305z" />
    <glyph glyph-name="uni0449.locl" horiz-adv-x="2299" 
d="M117 377v667h368v-638q0 -106 56 -144q51 -39 157 -39q98 0 160 41q60 42 60 146v634h368v-638q0 -107 55 -144q51 -39 158 -39q101 0 160 41t59 144v636h369v-776h172v-555h-344v287h-189v170q-45 -97 -149 -147q-104 -52 -238 -52q-141 0 -239 49q-99 48 -146 160
q-47 -103 -157 -155q-117 -54 -260 -54q-205 0 -312 101q-108 99 -108 305z" />
    <glyph glyph-name="uni044A.locl" horiz-adv-x="1572" 
d="M317 397v379h-292v268h661v-282h338q250 0 381 -96q129 -95 129 -287q0 -200 -154 -303q-153 -105 -450 -105q-301 0 -455 101q-158 100 -158 325zM1157 356v39q0 72 -51 101q-54 28 -170 28h-250v-137q0 -85 53 -123q51 -39 193 -39q122 0 172 33q53 30 53 98z" />
    <glyph glyph-name="uni044C.locl" horiz-adv-x="1370" 
d="M115 397v647h368v-282h338q248 0 379 -96q129 -95 129 -287q0 -201 -153 -303q-153 -105 -449 -105q-303 0 -457 101q-155 98 -155 325zM952 354v45q0 73 -51 99t-170 26h-248v-143q0 -80 54 -119q52 -37 188 -37q126 0 176 33q51 29 51 96z" />
    <glyph glyph-name="uni044E.locl" horiz-adv-x="2043" 
d="M127 1495h369v-831h159q38 234 205 321q169 88 449 88q163 0 284 -26q126 -28 207 -91q84 -66 129 -170q43 -107 43 -264q0 -159 -43 -266q-46 -106 -129 -168q-79 -62 -207 -90q-126 -27 -284 -27q-285 0 -455 92q-168 91 -203 340h-155v-403h-369v1495zM1597 444v156
q0 131 -71 178q-71 45 -217 45q-149 0 -217 -45q-74 -47 -74 -178v-156q0 -131 74 -178q68 -45 217 -45q146 0 217 45q71 47 71 178z" />
    <glyph glyph-name="zacute.locl" horiz-adv-x="1265" 
d="M78 266l641 510h-631v268h1079v-268l-641 -508h676v-268h-1124v266zM506 1204l86 367h336l-156 -367h-266z" />
    </font>
</defs>
</svg>
