<?xml version="1.0" standalone="no"?>
<!DOCTYPE svg PUBLIC "-//W3C//DTD SVG 1.1//EN" "http://www.w3.org/Graphics/SVG/1.1/DTD/svg11.dtd" >
<svg xmlns="http://www.w3.org/2000/svg" xmlns:xlink="http://www.w3.org/1999/xlink" version="1.1">
<metadata>
Created by FontForge 20170731 at Thu Jan 27 10:25:35 2022
 By Aleksey,,,
</metadata>
<defs>
<font id="NormalidadWide-WideRegular" horiz-adv-x="1398" >
  <font-face 
    font-family="Normalidad Wide Regular"
    font-weight="400"
    font-stretch="normal"
    units-per-em="2048"
    panose-1="2 11 6 5 2 1 2 2 3 3"
    ascent="1638"
    descent="-410"
    x-height="1022"
    cap-height="1413"
    bbox="-178 -528 2396 2187"
    underline-thickness="81"
    underline-position="-255"
    unicode-range="U+000D-2013"
  />
<missing-glyph horiz-adv-x="1024" 
 />
    <glyph glyph-name=".notdef" horiz-adv-x="1024" 
 />
    <glyph glyph-name=".null" horiz-adv-x="0" 
 />
    <glyph glyph-name="nonmarkingreturn" horiz-adv-x="682" 
 />
    <glyph glyph-name="NULL" horiz-adv-x="0" 
 />
    <glyph glyph-name="NULL" horiz-adv-x="0" 
 />
    <glyph glyph-name="CR" unicode="&#xd;" horiz-adv-x="512" 
 />
    <glyph glyph-name="space" unicode=" " horiz-adv-x="489" 
 />
    <glyph glyph-name="exclam" unicode="!" horiz-adv-x="561" 
d="M152 1413h260l-37 -1005h-189zM135 104q0 65 37 99q37 30 109 30q71 0 108 -30q37 -34 37 -99q0 -66 -37 -96q-36 -33 -108 -33q-73 0 -109 33q-37 30 -37 96z" />
    <glyph glyph-name="comma" unicode="," horiz-adv-x="477" 
d="M121 -168q63 0 90 27t27 88v28h-11q-69 0 -102 33q-37 34 -37 98q0 63 37 97q35 30 106 30q76 0 111 -32q35 -35 35 -103v-133q0 -134 -62 -196q-63 -60 -194 -60v123z" />
    <glyph glyph-name="hyphen" unicode="-" horiz-adv-x="927" 
d="M111 629h708v-199h-708v199z" />
    <glyph glyph-name="period" unicode="." horiz-adv-x="487" 
d="M98 104q0 65 37 99q37 30 109 30q70 0 108 -30q37 -34 37 -99q0 -66 -37 -96q-36 -33 -108 -33q-73 0 -109 33q-37 30 -37 96z" />
    <glyph glyph-name="zero" unicode="0" horiz-adv-x="1642" 
d="M109 713q0 388 190 557q186 168 522 168t525 -168q188 -170 188 -559q0 -385 -188 -561q-190 -175 -525 -175t-522 175q-190 175 -190 563zM1296 645v139q0 245 -118 357t-357 112q-238 0 -356 -112q-119 -113 -119 -359v-137q0 -243 119 -362q120 -120 356 -123
q236 0 357 121q118 118 118 364z" />
    <glyph glyph-name="one" unicode="1" horiz-adv-x="794" 
d="M55 1194l328 219h235v-1413h-235v1202l-328 -221v213z" />
    <glyph glyph-name="two" unicode="2" horiz-adv-x="1419" 
d="M98 86q0 285 154 403q149 116 332 175q226 73 334 112q151 56 151 219v49q0 120 -94 166q-91 45 -246 45q-182 0 -270 -55q-93 -56 -111 -201h-235q18 244 180 342q168 97 436 97q267 0 424 -95q154 -95 154 -321q0 -233 -148 -322q-143 -89 -323 -143
q-164 -48 -332 -119q-154 -65 -166 -250h971v-188h-1211v86z" />
    <glyph glyph-name="three" unicode="3" horiz-adv-x="1456" 
d="M78 393h239q21 -117 123 -176q103 -59 293 -59q203 0 295 59q90 59 90 164v55q0 111 -100 162q-101 49 -275 49h-155v176h151q164 0 244 45q82 46 82 146v53q0 103 -86 147q-87 41 -246 41q-163 0 -254 -45q-93 -46 -114 -159h-240q21 211 184 299q158 88 422 88
q265 0 418 -84q149 -85 149 -287q0 -131 -69 -209t-201 -113q147 -30 236 -110q86 -83 86 -227q0 -225 -160 -328q-161 -103 -457 -103q-308 0 -473 103q-161 100 -182 313z" />
    <glyph glyph-name="four" unicode="4" horiz-adv-x="1517" 
d="M43 504l834 909h331v-876h254v-179h-254v-358h-235v358h-930v146zM315 537h658v723z" />
    <glyph glyph-name="five" unicode="5" horiz-adv-x="1429" 
d="M88 348h244q26 -99 129 -143q99 -45 268 -45q176 0 279 65q98 64 98 207v62q0 136 -98 200t-277 64q-123 0 -221 -33q-101 -34 -168 -107l-209 37l76 758h2h1049v-186h-871l-45 -449q57 60 172 101q107 39 258 39q286 0 428 -115q139 -115 139 -342q0 -237 -151 -361
q-149 -125 -461 -125q-286 0 -453 95t-188 278z" />
    <glyph glyph-name="six" unicode="6" horiz-adv-x="1544" 
d="M113 584q0 248 49 413q47 164 135 263q92 98 219 137q131 41 291 41q287 0 432 -92q143 -94 170 -256h-233q-23 79 -111 124q-90 41 -262 41q-105 0 -191 -22q-79 -23 -137 -84q-56 -59 -86 -162q-30 -102 -39 -258q67 88 195 135q122 45 305 45q289 0 444 -104
q156 -108 156 -346q0 -246 -168 -365t-487 -119q-345 0 -516 142q-169 138 -166 467zM1214 424v57q0 141 -102 205q-103 62 -315 62q-217 0 -326 -68q-111 -70 -111 -215q0 -156 101 -232q103 -77 334 -77q216 0 319 65q100 63 100 203z" />
    <glyph glyph-name="seven" unicode="7" horiz-adv-x="1245" 
d="M41 1221v192h1165v-158l-719 -1255h-241l704 1221h-909z" />
    <glyph glyph-name="eight" unicode="8" horiz-adv-x="1548" 
d="M102 397q0 147 91 238q92 92 253 121q-149 27 -217 110q-67 79 -67 201q0 106 45 174q49 74 127 115q75 41 194 63q120 19 246 19q128 0 248 -19q116 -21 195 -63q75 -41 124 -115q45 -68 45 -174q0 -121 -65 -201q-65 -83 -213 -110q158 -29 250 -121q88 -88 88 -238
q0 -225 -174 -323q-176 -99 -498 -99t-498 99q-174 98 -174 323zM1153 1016v43q0 104 -88 153q-89 50 -291 50t-291 -50q-88 -49 -88 -153v-43q0 -94 88 -146q86 -51 291 -51q207 3 291 53q88 49 88 144zM1210 379v51q0 123 -110 178q-117 54 -326 54t-323 -54
q-113 -55 -113 -176v-51q0 -122 113 -174q113 -55 323 -55q209 0 324 53q112 52 112 174z" />
    <glyph glyph-name="nine" unicode="9" horiz-adv-x="1542" 
d="M1430 831q0 -242 -48 -411q-50 -170 -137 -262q-89 -100 -217 -140q-134 -41 -293 -41q-285 0 -430 95q-145 92 -172 254h234q24 -83 112 -123q85 -43 260 -43q108 0 191 24q78 20 137 82q56 59 86 162q30 102 39 258q-65 -85 -195 -133q-127 -47 -305 -47
q-289 0 -442 106q-158 106 -158 344q0 246 168 365t488 119q344 0 516 -140q169 -141 166 -469zM328 991v-57q0 -142 102 -203q100 -63 315 -63q219 0 328 69q109 68 109 213q0 156 -101 232q-104 78 -333 78q-217 0 -318 -64q-102 -64 -102 -205z" />
    <glyph glyph-name="colon" unicode=":" horiz-adv-x="544" 
d="M127 104q0 65 37 99q38 30 108 30q72 0 109 -30q37 -34 37 -99q0 -66 -37 -96q-36 -33 -109 -33q-72 0 -108 33q-37 30 -37 96zM127 825q0 65 37 99q38 30 108 30q72 0 109 -30q37 -34 37 -99q0 -66 -37 -96q-36 -33 -109 -33q-72 0 -108 33q-37 30 -37 96z" />
    <glyph glyph-name="semicolon" unicode=";" horiz-adv-x="548" 
d="M129 825q0 65 37 99q38 30 108 30q72 0 109 -30q37 -34 37 -99q0 -66 -37 -96q-36 -33 -109 -33q-72 0 -108 33q-37 30 -37 96zM162 -168q63 0 90 27t27 88v28h-11q-69 0 -102 33q-37 34 -37 98q0 63 37 97q35 30 106 30q76 0 111 -32q35 -35 35 -103v-133
q0 -134 -62 -196q-63 -60 -194 -60v123z" />
    <glyph glyph-name="question" unicode="?" horiz-adv-x="1380" 
d="M1069 1034v43q0 93 -92 137q-93 43 -283 43q-181 0 -284 -53q-102 -53 -117 -190h-238q15 221 181 323q165 101 460 101q298 0 453 -88q158 -90 158 -283q0 -164 -86 -229q-91 -69 -191 -109q-108 -42 -190 -92q-88 -52 -88 -186v-45h-209v47q0 171 84 249q86 80 180 121
q134 58 180 80q82 37 82 131zM508 104q0 65 37 99q37 30 108 30t109 -30q37 -34 37 -99q0 -66 -37 -96q-36 -33 -109 -33q-72 0 -108 33q-37 30 -37 96z" />
    <glyph glyph-name="A" unicode="A" horiz-adv-x="1601" 
d="M639 1413h324l628 -1413h-243l-172 387h-775l-172 -387h-221zM479 563h619l-310 699z" />
    <glyph glyph-name="B" unicode="B" horiz-adv-x="1570" 
d="M168 1413h844q200 0 309 -86q109 -89 109 -260q0 -114 -54 -205q-55 -87 -176 -125q133 -27 203 -112q67 -85 67 -224q0 -197 -106 -297q-107 -104 -322 -104h-874v1413zM1194 1010v53q0 88 -55 137t-172 49h-568v-448h568q114 0 172 55q55 55 55 154zM1237 373v67
q0 97 -63 148q-65 53 -191 53h-584v-477h584q123 0 188 53q66 54 66 156z" />
    <glyph glyph-name="C" unicode="C" horiz-adv-x="1652" 
d="M98 705q0 394 201 565q198 168 563 168q325 0 508 -109q178 -106 213 -358h-237q-27 166 -148 225q-117 57 -336 57q-245 0 -383 -106q-143 -107 -143 -371v-135q0 -258 141 -369q139 -112 387 -112q207 0 326 55q117 54 158 211h237q-40 -236 -219 -344
q-180 -107 -504 -107q-365 0 -563 168q-201 168 -201 562z" />
    <glyph glyph-name="D" unicode="D" horiz-adv-x="1738" 
d="M168 1413h762q346 0 528 -164q180 -165 180 -542q0 -371 -180 -539t-528 -168h-762v1413zM918 193q233 0 358 110q127 109 127 348v123q0 236 -127 342q-126 105 -358 105h-517v-1028h517z" />
    <glyph glyph-name="E" unicode="E" horiz-adv-x="1431" 
d="M168 1413h1171v-184h-938v-418h752v-180h-752v-447h947v-184h-1180v1413z" />
    <glyph glyph-name="F" unicode="F" horiz-adv-x="1368" 
d="M168 1413h1155v-192h-922v-430h779v-189h-779v-602h-233v1413z" />
    <glyph glyph-name="G" unicode="G" horiz-adv-x="1714" 
d="M98 705q0 395 203 565q198 168 569 168q334 0 514 -107q179 -107 220 -350h-236q-35 155 -154 213q-124 59 -344 59q-263 0 -397 -110q-137 -110 -137 -369v-133q0 -255 135 -369q133 -112 397 -112q269 0 394 94q124 90 133 285h-494v166h721v-105q0 -312 -192 -467
q-196 -158 -560 -158q-370 0 -569 166q-203 167 -203 564z" />
    <glyph glyph-name="H" unicode="H" horiz-adv-x="1689" 
d="M168 1413h233v-588h885v588h236v-1413h-236v633h-885v-633h-233v1413z" />
    <glyph glyph-name="I" unicode="I" horiz-adv-x="569" 
d="M168 1413h233v-1413h-233v1413z" />
    <glyph glyph-name="J" unicode="J" horiz-adv-x="827" 
d="M29 188h252q83 0 116 45q35 44 35 125v1055h236v-1098q0 -154 -72 -235q-71 -80 -250 -80h-317v188z" />
    <glyph glyph-name="K" unicode="K" horiz-adv-x="1529" 
d="M168 1413h233v-600h236l594 600h280l-673 -682l708 -731h-305l-604 621h-236v-621h-233v1413z" />
    <glyph glyph-name="L" unicode="L" horiz-adv-x="1337" 
d="M168 1413h233v-1220h906v-193h-1139v1413z" />
    <glyph glyph-name="M" unicode="M" horiz-adv-x="2009" 
d="M870 205l-491 1032v-1237h-211v1413h352l484 -1016l485 1016h354v-1413h-235v1233l-492 -1028h-246z" />
    <glyph glyph-name="N" unicode="N" horiz-adv-x="1714" 
d="M1229 0l-844 1188v-1188h-217v1413h319l840 -1182v1182h219v-1413h-317z" />
    <glyph glyph-name="O" unicode="O" horiz-adv-x="1826" 
d="M98 711q0 396 209 563q206 164 606 164t609 -164q207 -168 207 -563t-207 -566q-209 -170 -609 -170t-606 170q-209 170 -209 566zM1491 639v143q0 246 -145 361q-143 110 -433 110q-289 0 -432 -110q-145 -115 -145 -361v-143q0 -250 145 -365q144 -114 432 -114
q289 0 433 114q145 115 145 365z" />
    <glyph glyph-name="P" unicode="P" horiz-adv-x="1546" 
d="M168 1413h846q243 0 356 -119t113 -329q0 -211 -113 -330q-115 -121 -356 -121h-613v-514h-233v1413zM1247 930v63q0 106 -61 170q-66 66 -201 66h-584v-531h584q133 0 199 66q63 63 63 166z" />
    <glyph glyph-name="Q" unicode="Q" horiz-adv-x="1826" 
d="M98 711q0 396 209 563q206 164 606 164t609 -164q207 -168 207 -563q0 -195 -50 -334q-55 -143 -151 -227l203 -211l-164 -136l-228 236q-75 -29 -194 -49q-108 -15 -232 -15q-400 0 -606 170q-209 170 -209 566zM1491 639v143q0 246 -145 361q-143 110 -433 110
q-289 0 -432 -110q-145 -115 -145 -361v-143q0 -250 145 -365q144 -114 432 -114q289 0 433 114q145 115 145 365z" />
    <glyph glyph-name="R" unicode="R" horiz-adv-x="1599" 
d="M168 1413h848q231 0 350 -113t119 -317q0 -166 -76 -270q-75 -106 -223 -144l356 -569h-264l-344 551h-533v-551h-233v1413zM1247 954v56q0 99 -59 164q-61 61 -203 61h-584v-504h584q142 0 203 64q59 62 59 159z" />
    <glyph glyph-name="S" unicode="S" horiz-adv-x="1552" 
d="M82 393h240q35 -142 145 -190q110 -49 330 -49q229 0 331 57q105 59 105 178q0 160 -176 195q-175 30 -387 51q-210 18 -387 86t-177 303q0 210 177 313q174 101 489 101q311 0 481 -95q168 -93 189 -311h-240q-18 131 -131 180q-118 48 -299 48q-211 0 -321 -52
q-111 -52 -111 -182q0 -155 176 -182q205 -31 387 -47q216 -21 387 -90q176 -71 176 -308q0 -221 -161 -321q-165 -103 -508 -103q-342 0 -516 97q-172 96 -199 321z" />
    <glyph glyph-name="T" unicode="T" horiz-adv-x="1445" 
d="M606 1221h-577v192h1388v-192h-577v-1221h-234v1221z" />
    <glyph glyph-name="U" unicode="U" horiz-adv-x="1671" 
d="M152 561v852h233v-846q0 -228 121 -317q122 -90 342 -90t342 90q119 88 119 317v846h213v-852q0 -294 -164 -438q-168 -148 -510 -148q-350 0 -524 148q-172 144 -172 438z" />
    <glyph glyph-name="V" unicode="V" horiz-adv-x="1581" 
d="M8 1413h250l547 -1241l549 1241h221l-627 -1413h-315z" />
    <glyph glyph-name="W" unicode="W" horiz-adv-x="2111" 
d="M37 1413h235l306 -1206l352 1206h289l342 -1202l311 1202h207l-371 -1413h-305l-342 1202l-354 -1202h-312z" />
    <glyph glyph-name="X" unicode="X" horiz-adv-x="1556" 
d="M1278 0l-510 575l-510 -575h-260l635 713l-621 700h285l489 -551l492 551h260l-616 -686l641 -727h-285z" />
    <glyph glyph-name="Y" unicode="Y" horiz-adv-x="1554" 
d="M670 600l-672 813h270l531 -645l499 645h240l-635 -815v-598h-233v600z" />
    <glyph glyph-name="Z" unicode="Z" horiz-adv-x="1449" 
d="M76 193l1001 1030h-987v190h1274v-192l-999 -1031h1013v-190h-1302v193z" />
    <glyph glyph-name="a" unicode="a" horiz-adv-x="1333" 
d="M84 279q0 140 96 221q98 79 334 88l461 16v33q0 136 -78 199q-80 59 -242 59q-133 0 -211 -37q-84 -41 -104 -133h-221q24 157 157 240q131 79 379 79q271 0 408 -96q133 -100 133 -311v-637h-211v184q-58 -101 -180 -153q-127 -56 -299 -56q-226 0 -324 82t-98 222z
M307 281q0 -74 62 -115q59 -39 192 -39q78 0 160 16q70 14 133 54q53 33 88 92q33 56 33 141v45l-416 -16q-127 -6 -190 -41q-62 -35 -62 -115v-22z" />
    <glyph glyph-name="b" unicode="b" horiz-adv-x="1447" 
d="M152 1495h221v-643q64 101 176 147q110 45 268 45q259 0 402 -122q143 -125 143 -412q0 -288 -143 -410q-143 -125 -402 -125q-161 0 -276 50q-117 51 -176 155v-180h-213v1495zM1137 453v114q0 171 -99 248q-103 74 -278 74q-189 0 -289 -74q-98 -76 -98 -248v-114
q0 -167 100 -242q101 -78 287 -78q177 0 278 78q99 76 99 242z" />
    <glyph glyph-name="c" unicode="c" horiz-adv-x="1286" 
d="M86 508q0 280 145 410q144 126 437 126q241 0 383 -77q139 -80 166 -252h-224q-27 95 -102 135q-74 39 -223 39q-185 0 -271 -74q-86 -77 -86 -244v-122q0 -173 92 -244q93 -72 265 -72q153 0 227 45q75 43 102 125h224q-30 -161 -168 -244q-141 -84 -385 -84
q-283 0 -432 119q-150 117 -150 414z" />
    <glyph glyph-name="d" unicode="d" horiz-adv-x="1447" 
d="M86 506q0 288 147 414q142 124 406 124q154 0 264 -43q113 -47 172 -145v639h223v-1495h-215v182q-60 -102 -172 -155q-113 -52 -272 -52q-256 0 -403 123q-150 123 -150 408zM1075 453v114q0 170 -98 246q-103 74 -285 74q-179 0 -282 -74q-101 -76 -101 -250v-114
q0 -166 103 -240q101 -76 280 -76q181 0 285 78q98 76 98 242z" />
    <glyph glyph-name="e" unicode="e" horiz-adv-x="1316" 
d="M86 510q0 282 152 410q148 124 421 124q277 0 426 -116q150 -120 150 -381v-53h-930v-43q0 -167 92 -244q90 -78 262 -78q147 0 232 43q85 42 115 129h219q-46 -169 -191 -246q-145 -80 -375 -80q-272 0 -421 125q-152 125 -152 410zM659 895q-155 0 -249 -61
q-96 -66 -105 -213h711q-9 150 -96 213q-88 61 -261 61z" />
    <glyph glyph-name="f" unicode="f" horiz-adv-x="831" 
d="M53 1022h144v176q0 144 69 219q72 78 260 78h285v-166h-252q-79 0 -108 -33q-33 -33 -33 -102v-172h393v-166h-393v-856h-221v856h-144v166z" />
    <glyph glyph-name="g" unicode="g" horiz-adv-x="1449" 
d="M129 -111h227q40 -94 127 -131q84 -37 234 -37q197 0 280 80q82 79 82 287v94q-63 -92 -172 -139q-105 -45 -262 -45q-259 0 -407 121t-148 395q0 279 148 406q142 124 407 124q158 0 268 -45q112 -46 174 -149v172h216v-922q0 -277 -142 -407q-142 -127 -446 -127
q-266 0 -410 84q-141 83 -176 239zM1079 469v100q0 171 -98 244q-100 74 -285 74q-182 0 -282 -74q-101 -76 -101 -248v-102q0 -159 101 -232q100 -75 284 -75q187 0 285 73q96 75 96 240z" />
    <glyph glyph-name="h" unicode="h" 
d="M1038 0v618q0 157 -80 213q-83 56 -237 56q-159 0 -254 -62q-94 -64 -94 -213v-612h-221v1495h221v-645q53 102 170 149q110 45 256 45q218 0 342 -92q121 -92 121 -305v-647h-224z" />
    <glyph glyph-name="i" unicode="i" horiz-adv-x="522" 
d="M152 1022h221v-1022h-221v1022zM123 1348q0 58 37 88q38 30 100 30q70 0 107 -30q34 -30 34 -88q0 -61 -34 -91q-35 -32 -107 -32q-65 0 -100 32q-37 30 -37 91z" />
    <glyph glyph-name="j" unicode="j" horiz-adv-x="522" 
d="M-88 -244h98q76 0 111 35q31 39 31 105v1126h221v-1143q0 -140 -66 -215q-65 -74 -237 -74h-158v166zM123 1348q0 58 37 88q38 30 100 30q70 0 107 -30q34 -30 34 -88q0 -61 -34 -91q-35 -32 -107 -32q-65 0 -100 32q-37 30 -37 91z" />
    <glyph glyph-name="k" unicode="k" horiz-adv-x="1253" 
d="M963 1022h256l-490 -487l543 -535h-283l-442 434h-174v-434h-221v1495h221v-895h166z" />
    <glyph glyph-name="l" unicode="l" horiz-adv-x="522" 
d="M152 1495h221v-1495h-221v1495z" />
    <glyph glyph-name="m" unicode="m" horiz-adv-x="2078" 
d="M936 0v627q0 155 -72 209q-68 51 -196 51q-126 0 -211 -60q-84 -60 -84 -206v-621h-221v1022h213v-182q49 103 155 155q104 49 230 49q147 0 241 -49q98 -55 137 -161q46 106 158 159q105 51 248 51q201 0 305 -94q103 -95 103 -307v-643h-222v627q0 156 -71 209
q-71 51 -199 51q-125 0 -207 -58q-86 -59 -86 -208v-621h-221z" />
    <glyph glyph-name="n" unicode="n" 
d="M1038 0v618q0 157 -80 213q-83 56 -237 56q-159 0 -254 -62q-94 -64 -94 -213v-612h-221v1022h213v-188q52 109 170 161q116 49 264 49q218 0 342 -92q121 -92 121 -305v-647h-224z" />
    <glyph glyph-name="o" unicode="o" horiz-adv-x="1384" 
d="M86 510q0 294 158 416q153 118 448 118q298 0 451 -118q155 -119 155 -416q0 -300 -155 -416q-155 -119 -451 -119q-293 0 -448 119q-158 118 -158 416zM1075 457v108q0 172 -98 248t-285 76q-186 0 -284 -76q-99 -77 -99 -248v-110q0 -173 99 -246q98 -76 284 -76
q187 0 285 76t98 248z" />
    <glyph glyph-name="p" unicode="p" horiz-adv-x="1447" 
d="M152 1022h213v-184q59 103 176 157q113 49 276 49q259 0 402 -122q143 -125 143 -412q0 -288 -143 -410q-143 -125 -402 -125q-161 0 -268 45q-113 46 -176 146v-576h-221v1432zM1137 453v114q0 171 -99 248q-100 74 -282 74q-192 0 -287 -74q-96 -78 -96 -248v-114
q0 -166 98 -242q101 -78 283 -78q183 0 284 76q99 77 99 244z" />
    <glyph glyph-name="q" unicode="q" horiz-adv-x="1443" 
d="M86 506q0 288 147 414q145 124 412 124q154 0 266 -47q112 -50 172 -153v178h213v-1432h-221v580q-63 -100 -172 -147q-111 -48 -258 -48q-262 0 -409 123q-150 123 -150 408zM1075 453v114q0 170 -98 246q-101 76 -285 76q-179 0 -280 -76q-103 -77 -103 -250v-114
q0 -163 103 -240q101 -76 282 -76q179 0 283 78q98 76 98 242z" />
    <glyph glyph-name="r" unicode="r" horiz-adv-x="913" 
d="M152 1022h213v-205q40 101 133 154q86 51 219 51h166v-188h-193q-159 0 -237 -66q-80 -65 -80 -217v-551h-221v1022z" />
    <glyph glyph-name="s" unicode="s" horiz-adv-x="1249" 
d="M72 315h223q15 -109 100 -149q87 -41 238 -41q169 0 246 39q79 37 79 123q0 111 -135 129q-138 18 -297 33q-160 12 -297 65q-135 52 -135 227q0 155 139 232q137 76 385 76q245 0 381 -74q133 -77 148 -238h-223q-9 95 -95 131q-79 33 -211 33q-142 0 -223 -35
q-80 -38 -80 -118q0 -106 136 -121q135 -18 294 -33t295 -68q136 -56 136 -231q0 -168 -142 -242q-140 -73 -401 -73q-265 0 -404 77t-157 258z" />
    <glyph glyph-name="t" unicode="t" horiz-adv-x="827" 
d="M188 289v567h-139v166h139v319h222v-319h372v-166h-372v-547q0 -72 34 -106q34 -37 119 -37h219v-166h-295q-158 0 -229 68q-70 67 -70 221z" />
    <glyph glyph-name="u" unicode="u" 
d="M137 387v635h223v-623q0 -158 80 -211t238 -53q145 0 248 62q100 57 100 213v612h221v-1022h-215v182q-51 -105 -166 -155q-116 -52 -270 -52q-216 0 -338 93q-121 92 -121 319z" />
    <glyph glyph-name="v" unicode="v" horiz-adv-x="1259" 
d="M500 0l-488 1022h230l401 -846l395 846h207l-483 -1022h-262z" />
    <glyph glyph-name="w" unicode="w" horiz-adv-x="1828" 
d="M375 0l-355 1022h216l288 -846l275 846h254l278 -844l287 844h188l-350 -1022h-264l-281 850l-276 -850h-260z" />
    <glyph glyph-name="x" unicode="x" horiz-adv-x="1224" 
d="M961 0l-357 395l-366 -395h-234l475 516l-459 506h263l338 -371l346 371h233l-455 -490l478 -532h-262z" />
    <glyph glyph-name="y" unicode="y" horiz-adv-x="1255" 
d="M143 -246h119q91 0 144 29q47 29 92 123l37 76l-527 1040h234l403 -813l393 813h207l-565 -1157q-74 -154 -156 -215q-85 -60 -235 -60h-146v164z" />
    <glyph glyph-name="z" unicode="z" horiz-adv-x="1179" 
d="M76 164l741 692h-731v166h999v-164l-743 -692h778v-166h-1044v164z" />
    <glyph glyph-name="uni00A0" unicode="&#xa0;" horiz-adv-x="489" 
 />
    <glyph glyph-name="Agrave" unicode="&#xc0;" horiz-adv-x="1601" 
d="M639 1413h324l628 -1413h-243l-172 387h-775l-172 -387h-221zM479 563h619l-310 699zM688 1552l-332 306h275l276 -306h-219z" />
    <glyph glyph-name="Aacute" unicode="&#xc1;" horiz-adv-x="1601" 
d="M639 1413h324l628 -1413h-243l-172 387h-775l-172 -387h-221zM479 563h619l-310 699zM690 1552l289 306h268l-344 -306h-213z" />
    <glyph glyph-name="Acircumflex" unicode="&#xc2;" horiz-adv-x="1601" 
d="M639 1413h324l628 -1413h-243l-172 387h-775l-172 -387h-221zM479 563h619l-310 699zM338 1552l354 306h213l357 -306h-244l-223 179l-222 -179h-235z" />
    <glyph glyph-name="Atilde" unicode="&#xc3;" horiz-adv-x="1601" 
d="M639 1413h324l628 -1413h-243l-172 387h-775l-172 -387h-221zM479 563h619l-310 699zM623 1851q68 0 112 -20q37 -17 82 -49q39 -28 70 -47q33 -23 67 -23q44 0 64 39q18 37 18 94h152q0 -131 -49 -207q-53 -77 -160 -77q-64 0 -113 22q-50 21 -86 47q-63 45 -69 49
q-35 21 -68 21q-45 0 -63 -37q-21 -41 -21 -96h-151q0 133 51 207q50 77 164 77z" />
    <glyph glyph-name="Adieresis" unicode="&#xc4;" horiz-adv-x="1601" 
d="M639 1413h324l628 -1413h-243l-172 387h-775l-172 -387h-221zM479 563h619l-310 699zM403 1696q0 61 33 90q36 31 96 31q65 0 101 -31q33 -29 33 -90q0 -63 -33 -92q-36 -31 -101 -31q-60 0 -96 31q-33 29 -33 92zM930 1696q0 60 35 90q36 31 96 31q62 0 98 -31
q33 -29 33 -90q0 -63 -33 -92q-36 -31 -98 -31q-60 0 -96 31q-35 30 -35 92z" />
    <glyph glyph-name="Aring" unicode="&#xc5;" horiz-adv-x="1601" 
d="M639 1413h324l628 -1413h-243l-172 387h-775l-172 -387h-221zM479 563h619l-310 699zM477 1710q0 92 74 139q71 45 246 45q173 0 247 -45q76 -46 76 -139q0 -89 -76 -135q-77 -47 -247 -47q-172 0 -246 47t-74 135zM799 1640q103 0 139 19q35 18 35 51q0 35 -35 53
q-36 19 -139 19q-104 0 -140 -19q-34 -18 -34 -53q0 -33 34 -51q36 -19 140 -19z" />
    <glyph glyph-name="AE" unicode="&#xc6;" horiz-adv-x="2480" 
d="M1122 1413h1266v-184h-938v-418h752v-180h-752v-447h946v-184h-1182v416h-669l-344 -416h-250zM692 596h522v631z" />
    <glyph glyph-name="Ccedilla" unicode="&#xc7;" horiz-adv-x="1652" 
d="M98 705q0 394 201 565q198 168 563 168q325 0 508 -109q178 -106 213 -358h-237q-27 166 -148 225q-117 57 -336 57q-245 0 -383 -106q-143 -107 -143 -371v-135q0 -258 141 -369q139 -112 387 -112q207 0 326 55q117 54 158 211h237q-40 -236 -219 -344
q-180 -107 -504 -107q-365 0 -563 168q-201 168 -201 562zM702 -430v121q105 0 140 2q44 3 78 10q23 8 32 21q6 15 6 34q0 40 -45 49q-47 12 -188 15v180h147v-88q127 -6 203 -37q74 -27 74 -129q0 -86 -74 -133q-71 -45 -229 -45h-144z" />
    <glyph glyph-name="Egrave" unicode="&#xc8;" horiz-adv-x="1431" 
d="M168 1413h1171v-184h-938v-418h752v-180h-752v-447h947v-184h-1180v1413zM678 1552l-332 306h275l276 -306h-219z" />
    <glyph glyph-name="Eacute" unicode="&#xc9;" horiz-adv-x="1431" 
d="M168 1413h1171v-184h-938v-418h752v-180h-752v-447h947v-184h-1180v1413zM637 1552l289 306h268l-344 -306h-213z" />
    <glyph glyph-name="Ecircumflex" unicode="&#xca;" horiz-adv-x="1431" 
d="M168 1413h1171v-184h-938v-418h752v-180h-752v-447h947v-184h-1180v1413zM297 1552l354 306h213l357 -306h-244l-223 179l-222 -179h-235z" />
    <glyph glyph-name="Edieresis" unicode="&#xcb;" horiz-adv-x="1431" 
d="M168 1413h1171v-184h-938v-418h752v-180h-752v-447h947v-184h-1180v1413zM362 1696q0 61 33 90q36 31 97 31q64 0 100 -31q33 -29 33 -90q0 -63 -33 -92q-36 -31 -100 -31q-61 0 -97 31q-33 29 -33 92zM889 1696q0 60 35 90q36 31 96 31q62 0 98 -31q33 -29 33 -90
q0 -63 -33 -92q-36 -31 -98 -31q-60 0 -96 31q-35 30 -35 92z" />
    <glyph glyph-name="Igrave" unicode="&#xcc;" horiz-adv-x="569" 
d="M168 1413h233v-1413h-233v1413zM172 1552l-332 306h275l276 -306h-219z" />
    <glyph glyph-name="Iacute" unicode="&#xcd;" horiz-adv-x="569" 
d="M168 1413h233v-1413h-233v1413zM176 1552l289 306h268l-344 -306h-213z" />
    <glyph glyph-name="Icircumflex" unicode="&#xce;" horiz-adv-x="569" 
d="M168 1413h233v-1413h-233v1413zM-178 1552l354 306h213l356 -306h-243l-223 179l-222 -179h-235z" />
    <glyph glyph-name="Idieresis" unicode="&#xcf;" horiz-adv-x="569" 
d="M168 1413h233v-1413h-233v1413zM-111 1696q0 61 33 90q36 31 96 31q65 0 101 -31q33 -29 33 -90q0 -63 -33 -92q-36 -31 -101 -31q-60 0 -96 31q-33 29 -33 92zM416 1696q0 60 35 90q36 31 96 31q62 0 98 -31q33 -29 33 -90q0 -63 -33 -92q-36 -31 -98 -31q-60 0 -96 31
q-35 30 -35 92z" />
    <glyph glyph-name="Ntilde" unicode="&#xd1;" horiz-adv-x="1714" 
d="M1229 0l-844 1188v-1188h-217v1413h319l840 -1182v1182h219v-1413h-317zM690 1851q69 0 113 -20q37 -17 82 -49t69 -47q33 -23 68 -23q43 0 63 39q19 40 19 94h151q0 -131 -49 -207q-53 -77 -159 -77q-64 0 -113 22q-50 21 -86 47q-57 41 -70 49q-34 21 -67 21
q-46 0 -64 -37q-20 -39 -20 -96h-152q0 133 51 207q50 77 164 77z" />
    <glyph glyph-name="Ograve" unicode="&#xd2;" horiz-adv-x="1826" 
d="M98 711q0 396 209 563q206 164 606 164t609 -164q207 -168 207 -563t-207 -566q-209 -170 -609 -170t-606 170q-209 170 -209 566zM1491 639v143q0 246 -145 361q-143 110 -433 110q-289 0 -432 -110q-145 -115 -145 -361v-143q0 -250 145 -365q144 -114 432 -114
q289 0 433 114q145 115 145 365zM825 1552l-331 306h274l276 -306h-219z" />
    <glyph glyph-name="Oacute" unicode="&#xd3;" horiz-adv-x="1826" 
d="M98 711q0 396 209 563q206 164 606 164t609 -164q207 -168 207 -563t-207 -566q-209 -170 -609 -170t-606 170q-209 170 -209 566zM1491 639v143q0 246 -145 361q-143 110 -433 110q-289 0 -432 -110q-145 -115 -145 -361v-143q0 -250 145 -365q144 -114 432 -114
q289 0 433 114q145 115 145 365zM795 1552l288 306h269l-344 -306h-213z" />
    <glyph glyph-name="Ocircumflex" unicode="&#xd4;" horiz-adv-x="1826" 
d="M98 711q0 396 209 563q206 164 606 164t609 -164q207 -168 207 -563t-207 -566q-209 -170 -609 -170t-606 170q-209 170 -209 566zM1491 639v143q0 246 -145 361q-143 110 -433 110q-289 0 -432 -110q-145 -115 -145 -361v-143q0 -250 145 -365q144 -114 432 -114
q289 0 433 114q145 115 145 365zM453 1552l354 306h213l356 -306h-243l-224 179l-221 -179h-235z" />
    <glyph glyph-name="Otilde" unicode="&#xd5;" horiz-adv-x="1826" 
d="M98 711q0 396 209 563q206 164 606 164t609 -164q207 -168 207 -563t-207 -566q-209 -170 -609 -170t-606 170q-209 170 -209 566zM1491 639v143q0 246 -145 361q-143 110 -433 110q-289 0 -432 -110q-145 -115 -145 -361v-143q0 -250 145 -365q144 -114 432 -114
q289 0 433 114q145 115 145 365zM737 1853q69 0 113 -20q37 -17 82 -49t69 -47q33 -23 68 -23q44 0 64 39q18 37 18 94h152q0 -130 -50 -207q-53 -77 -159 -77q-64 0 -113 22q-50 21 -86 47q-57 41 -70 49q-34 21 -67 21q-46 0 -64 -37q-20 -39 -20 -96h-152q0 133 51 207
q50 77 164 77z" />
    <glyph glyph-name="Odieresis" unicode="&#xd6;" horiz-adv-x="1826" 
d="M98 711q0 396 209 563q206 164 606 164t609 -164q207 -168 207 -563t-207 -566q-209 -170 -609 -170t-606 170q-209 170 -209 566zM1491 639v143q0 246 -145 361q-143 110 -433 110q-289 0 -432 -110q-145 -115 -145 -361v-143q0 -250 145 -365q144 -114 432 -114
q289 0 433 114q145 115 145 365zM520 1696q0 61 33 90q36 31 96 31q65 0 101 -31q32 -28 32 -90q0 -64 -32 -92q-36 -31 -101 -31q-60 0 -96 31q-33 29 -33 92zM1047 1696q0 60 34 90q36 31 97 31q62 0 98 -31q33 -29 33 -90q0 -63 -33 -92q-36 -31 -98 -31q-61 0 -97 31
q-34 30 -34 92z" />
    <glyph glyph-name="Ugrave" unicode="&#xd9;" horiz-adv-x="1671" 
d="M152 561v852h233v-846q0 -228 121 -317q122 -90 342 -90t342 90q119 88 119 317v846h213v-852q0 -294 -164 -438q-168 -148 -510 -148q-350 0 -524 148q-172 144 -172 438zM770 1552l-332 306h275l276 -306h-219z" />
    <glyph glyph-name="Uacute" unicode="&#xda;" horiz-adv-x="1671" 
d="M152 561v852h233v-846q0 -228 121 -317q122 -90 342 -90t342 90q119 88 119 317v846h213v-852q0 -294 -164 -438q-168 -148 -510 -148q-350 0 -524 148q-172 144 -172 438zM735 1552l289 306h268l-344 -306h-213z" />
    <glyph glyph-name="Ucircumflex" unicode="&#xdb;" horiz-adv-x="1671" 
d="M152 561v852h233v-846q0 -228 121 -317q122 -90 342 -90t342 90q119 88 119 317v846h213v-852q0 -294 -164 -438q-168 -148 -510 -148q-350 0 -524 148q-172 144 -172 438zM375 1552l354 306h213l356 -306h-243l-224 179l-221 -179h-235z" />
    <glyph glyph-name="Udieresis" unicode="&#xdc;" horiz-adv-x="1671" 
d="M152 561v852h233v-846q0 -228 121 -317q122 -90 342 -90t342 90q119 88 119 317v846h213v-852q0 -294 -164 -438q-168 -148 -510 -148q-350 0 -524 148q-172 144 -172 438zM449 1696q0 62 32 90q36 31 97 31q64 0 100 -31q33 -29 33 -90q0 -63 -33 -92q-36 -31 -100 -31
q-61 0 -97 31q-32 28 -32 92zM975 1696q0 60 35 90q36 31 96 31q62 0 98 -31q33 -29 33 -90q0 -63 -33 -92q-36 -31 -98 -31q-60 0 -96 31q-35 30 -35 92z" />
    <glyph glyph-name="Yacute" unicode="&#xdd;" horiz-adv-x="1554" 
d="M670 600l-672 813h270l531 -645l499 645h240l-635 -815v-598h-233v600zM678 1552l289 306h268l-344 -306h-213z" />
    <glyph glyph-name="germandbls" unicode="&#xdf;" horiz-adv-x="1460" 
d="M569 166h254q186 0 260 59t74 191v45q0 114 -70 178q-69 63 -239 63h-283v164h209q176 0 240 52q65 50 65 163v37q0 112 -73 170q-76 55 -267 55q-200 0 -282 -73q-84 -78 -84 -269v-1001h-221v1042q0 142 47 234q48 91 127 143q76 50 188 72q108 18 227 18
q284 3 422 -96q140 -100 140 -297q0 -101 -46 -186q-46 -87 -182 -125q143 -21 223 -113t80 -268q0 -213 -129 -318q-130 -106 -387 -106h-293v166z" />
    <glyph glyph-name="agrave" unicode="&#xe0;" horiz-adv-x="1333" 
d="M84 279q0 140 96 221q98 79 334 88l461 16v33q0 136 -78 199q-80 59 -242 59q-133 0 -211 -37q-84 -41 -104 -133h-221q24 157 157 240q131 79 379 79q271 0 408 -96q133 -100 133 -311v-637h-211v184q-58 -101 -180 -153q-127 -56 -299 -56q-226 0 -324 82t-98 222z
M307 281q0 -74 62 -115q59 -39 192 -39q78 0 160 16q70 14 133 54q53 33 88 92q33 56 33 141v45l-416 -16q-127 -6 -190 -41q-62 -35 -62 -115v-22zM264 1524h260l262 -348h-202z" />
    <glyph glyph-name="aacute" unicode="&#xe1;" horiz-adv-x="1333" 
d="M84 279q0 140 96 221q98 79 334 88l461 16v33q0 136 -78 199q-80 59 -242 59q-133 0 -211 -37q-84 -41 -104 -133h-221q24 157 157 240q131 79 379 79q271 0 408 -96q133 -100 133 -311v-637h-211v184q-58 -101 -180 -153q-127 -56 -299 -56q-226 0 -324 82t-98 222z
M307 281q0 -74 62 -115q59 -39 192 -39q78 0 160 16q70 14 133 54q53 33 88 92q33 56 33 141v45l-416 -16q-127 -6 -190 -41q-62 -35 -62 -115v-22zM547 1176l262 348h254l-322 -348h-194z" />
    <glyph glyph-name="acircumflex" unicode="&#xe2;" horiz-adv-x="1333" 
d="M84 279q0 140 96 221q98 79 334 88l461 16v33q0 136 -78 199q-80 59 -242 59q-133 0 -211 -37q-84 -41 -104 -133h-221q24 157 157 240q131 79 379 79q271 0 408 -96q133 -100 133 -311v-637h-211v184q-58 -101 -180 -153q-127 -56 -299 -56q-226 0 -324 82t-98 222z
M307 281q0 -74 62 -115q59 -39 192 -39q78 0 160 16q70 14 133 54q53 33 88 92q33 56 33 141v45l-416 -16q-127 -6 -190 -41q-62 -35 -62 -115v-22zM238 1169l313 349h205l313 -349h-221l-199 213l-198 -213h-213z" />
    <glyph glyph-name="atilde" unicode="&#xe3;" horiz-adv-x="1333" 
d="M84 279q0 140 96 221q98 79 334 88l461 16v33q0 136 -78 199q-80 59 -242 59q-133 0 -211 -37q-84 -41 -104 -133h-221q24 157 157 240q131 79 379 79q271 0 408 -96q133 -100 133 -311v-637h-211v184q-58 -101 -180 -153q-127 -56 -299 -56q-226 0 -324 82t-98 222z
M307 281q0 -74 62 -115q59 -39 192 -39q78 0 160 16q70 14 133 54q53 33 88 92q33 56 33 141v45l-416 -16q-127 -6 -190 -41q-62 -35 -62 -115v-22zM489 1522q58 0 105 -29q48 -33 78 -63l63 -64q28 -31 66 -31q45 0 65 51q21 52 21 130h149q0 -157 -53 -246
q-53 -92 -164 -92q-61 0 -108 30q-33 19 -78 64q-55 55 -64 65q-29 29 -61 29q-47 0 -64 -51q-20 -50 -20 -131h-150q0 152 54 246q53 92 161 92z" />
    <glyph glyph-name="adieresis" unicode="&#xe4;" horiz-adv-x="1333" 
d="M84 279q0 140 96 221q98 79 334 88l461 16v33q0 136 -78 199q-80 59 -242 59q-133 0 -211 -37q-84 -41 -104 -133h-221q24 157 157 240q131 79 379 79q271 0 408 -96q133 -100 133 -311v-637h-211v184q-58 -101 -180 -153q-127 -56 -299 -56q-226 0 -324 82t-98 222z
M307 281q0 -74 62 -115q59 -39 192 -39q78 0 160 16q70 14 133 54q53 33 88 92q33 56 33 141v45l-416 -16q-127 -6 -190 -41q-62 -35 -62 -115v-22zM283 1352q0 60 32 92q36 31 97 31q62 0 98 -31q33 -33 33 -92q0 -61 -33 -90q-33 -33 -98 -33q-64 0 -97 33q-32 28 -32 90z
M764 1352q0 59 33 92q36 31 98 31q60 0 96 -31q33 -33 33 -92q0 -61 -33 -90q-33 -33 -96 -33q-65 0 -98 33q-33 29 -33 90z" />
    <glyph glyph-name="aring" unicode="&#xe5;" horiz-adv-x="1333" 
d="M84 279q0 140 96 221q98 79 334 88l461 16v33q0 136 -78 199q-80 59 -242 59q-133 0 -211 -37q-84 -41 -104 -133h-221q24 157 157 240q131 79 379 79q271 0 408 -96q133 -100 133 -311v-637h-211v184q-58 -101 -180 -153q-127 -56 -299 -56q-226 0 -324 82t-98 222z
M307 281q0 -74 62 -115q59 -39 192 -39q78 0 160 16q70 14 133 54q53 33 88 92q33 56 33 141v45l-416 -16q-127 -6 -190 -41q-62 -35 -62 -115v-22zM367 1350q0 94 69 145q68 51 219 51q156 0 224 -51q69 -51 69 -145q0 -97 -69 -148q-68 -51 -224 -51q-151 0 -219 51
q-69 51 -69 148zM805 1350q0 40 -31 65q-38 23 -117 23q-85 0 -118 -23q-31 -25 -31 -65q0 -44 31 -66q30 -24 118 -24q83 0 117 24q31 22 31 66z" />
    <glyph glyph-name="ae" unicode="&#xe6;" horiz-adv-x="2213" 
d="M84 289q0 145 96 235q94 88 338 88h465v27q0 135 -80 197q-80 59 -241 59q-138 0 -216 -37q-84 -41 -104 -133h-221q24 156 158 240q131 79 380 79q177 0 287 -45q114 -46 168 -139q65 91 182 139q110 45 269 45q269 0 417 -118q150 -120 150 -387v-52h-930v-36
q0 -167 92 -244q90 -78 262 -78q145 0 230 43q87 41 117 129h219q-46 -169 -191 -246q-145 -80 -375 -80q-173 0 -299 60q-123 59 -182 188q-60 -117 -192 -180q-139 -68 -346 -68q-243 0 -349 86q-104 82 -104 228zM1556 895q-155 0 -249 -64q-96 -66 -105 -217h711
q-9 154 -96 217q-88 64 -261 64zM580 127q77 0 155 16q68 14 129 52q50 33 86 94q33 56 33 139v57h-420q-133 0 -194 -43q-62 -47 -62 -135v-20q0 -80 66 -121q62 -39 207 -39z" />
    <glyph glyph-name="ccedilla" unicode="&#xe7;" horiz-adv-x="1286" 
d="M86 508q0 280 145 410q144 126 437 126q241 0 383 -77q139 -80 166 -252h-224q-27 95 -102 135q-74 39 -223 39q-185 0 -271 -74q-86 -77 -86 -244v-122q0 -173 92 -244q93 -72 265 -72q153 0 227 45q75 43 102 125h224q-30 -161 -168 -244q-141 -84 -385 -84
q-283 0 -432 119q-150 117 -150 414zM502 -432v121q104 0 139 2q44 3 78 10q25 9 33 20q6 15 6 35q0 40 -45 49q-47 12 -189 15v180h148v-88q126 -6 202 -37q74 -27 74 -129q0 -86 -74 -133q-71 -45 -229 -45h-143z" />
    <glyph glyph-name="egrave" unicode="&#xe8;" horiz-adv-x="1316" 
d="M86 510q0 282 152 410q148 124 421 124q277 0 426 -116q150 -120 150 -381v-53h-930v-43q0 -167 92 -244q90 -78 262 -78q147 0 232 43q85 42 115 129h219q-46 -169 -191 -246q-145 -80 -375 -80q-272 0 -421 125q-152 125 -152 410zM659 895q-155 0 -249 -61
q-96 -66 -105 -213h711q-9 150 -96 213q-88 61 -261 61zM254 1524h260l262 -348h-203z" />
    <glyph glyph-name="eacute" unicode="&#xe9;" horiz-adv-x="1316" 
d="M86 510q0 282 152 410q148 124 421 124q277 0 426 -116q150 -120 150 -381v-53h-930v-43q0 -167 92 -244q90 -78 262 -78q147 0 232 43q85 42 115 129h219q-46 -169 -191 -246q-145 -80 -375 -80q-272 0 -421 125q-152 125 -152 410zM659 895q-155 0 -249 -61
q-96 -66 -105 -213h711q-9 150 -96 213q-88 61 -261 61zM545 1176l262 348h254l-322 -348h-194z" />
    <glyph glyph-name="ecircumflex" unicode="&#xea;" horiz-adv-x="1316" 
d="M86 510q0 282 152 410q148 124 421 124q277 0 426 -116q150 -120 150 -381v-53h-930v-43q0 -167 92 -244q90 -78 262 -78q147 0 232 43q85 42 115 129h219q-46 -169 -191 -246q-145 -80 -375 -80q-272 0 -421 125q-152 125 -152 410zM659 895q-155 0 -249 -61
q-96 -66 -105 -213h711q-9 150 -96 213q-88 61 -261 61zM244 1176l313 348h205l313 -348h-221l-199 213l-198 -213h-213z" />
    <glyph glyph-name="edieresis" unicode="&#xeb;" horiz-adv-x="1316" 
d="M86 510q0 282 152 410q148 124 421 124q277 0 426 -116q150 -120 150 -381v-53h-930v-43q0 -167 92 -244q90 -78 262 -78q147 0 232 43q85 42 115 129h219q-46 -169 -191 -246q-145 -80 -375 -80q-272 0 -421 125q-152 125 -152 410zM659 895q-155 0 -249 -61
q-96 -66 -105 -213h711q-9 150 -96 213q-88 61 -261 61zM291 1352q0 59 33 92q36 31 96 31q62 0 98 -31q33 -33 33 -92q0 -61 -33 -90q-33 -33 -98 -33q-63 0 -96 33q-33 29 -33 90zM772 1352q0 59 33 92q36 31 98 31q60 0 96 -31q33 -33 33 -92q0 -61 -33 -90
q-33 -33 -96 -33q-65 0 -98 33q-33 29 -33 90z" />
    <glyph glyph-name="igrave" unicode="&#xec;" horiz-adv-x="522" 
d="M152 1022h221v-1022h-221v1022zM-160 1524h260l262 -348h-202z" />
    <glyph glyph-name="iacute" unicode="&#xed;" horiz-adv-x="522" 
d="M152 1022h221v-1022h-221v1022zM164 1176l262 348h254l-322 -348h-194z" />
    <glyph glyph-name="icircumflex" unicode="&#xee;" horiz-adv-x="522" 
d="M152 1022h221v-1022h-221v1022zM-154 1176l314 348h205l313 -348h-221l-199 213l-199 -213h-213z" />
    <glyph glyph-name="idieresis" unicode="&#xef;" horiz-adv-x="522" 
d="M152 1022h221v-1022h-221v1022zM-109 1352q0 59 33 92q36 31 96 31q63 0 99 -31q33 -33 33 -92q0 -61 -33 -90q-33 -33 -99 -33q-63 0 -96 33q-33 29 -33 90zM373 1352q0 59 33 92q36 31 98 31q60 0 96 -31q33 -33 33 -92q0 -61 -33 -90q-33 -33 -96 -33q-65 0 -98 33
q-33 29 -33 90z" />
    <glyph glyph-name="ntilde" unicode="&#xf1;" 
d="M1038 0v618q0 157 -80 213q-83 56 -237 56q-159 0 -254 -62q-94 -64 -94 -213v-612h-221v1022h213v-188q52 109 170 161q116 49 264 49q218 0 342 -92q121 -92 121 -305v-647h-224zM547 1522q57 0 104 -29q48 -33 78 -63l64 -64q28 -31 65 -31q46 0 66 51q20 50 20 130
h150q0 -155 -54 -246q-53 -92 -163 -92q-63 0 -109 30q-33 19 -78 64t-63 65q-29 29 -62 29q-46 0 -63 -51q-21 -53 -21 -131h-149q0 154 53 246t162 92z" />
    <glyph glyph-name="ograve" unicode="&#xf2;" horiz-adv-x="1384" 
d="M86 510q0 294 158 416q153 118 448 118q298 0 451 -118q155 -119 155 -416q0 -300 -155 -416q-155 -119 -451 -119q-293 0 -448 119q-158 118 -158 416zM1075 457v108q0 172 -98 248t-285 76q-186 0 -284 -76q-99 -77 -99 -248v-110q0 -173 99 -246q98 -76 284 -76
q187 0 285 76t98 248zM274 1524h261l262 -348h-203z" />
    <glyph glyph-name="oacute" unicode="&#xf3;" horiz-adv-x="1384" 
d="M86 510q0 294 158 416q153 118 448 118q298 0 451 -118q155 -119 155 -416q0 -300 -155 -416q-155 -119 -451 -119q-293 0 -448 119q-158 118 -158 416zM1075 457v108q0 172 -98 248t-285 76q-186 0 -284 -76q-99 -77 -99 -248v-110q0 -173 99 -246q98 -76 284 -76
q187 0 285 76t98 248zM575 1176l263 348h254l-322 -348h-195z" />
    <glyph glyph-name="ocircumflex" unicode="&#xf4;" horiz-adv-x="1384" 
d="M86 510q0 294 158 416q153 118 448 118q298 0 451 -118q155 -119 155 -416q0 -300 -155 -416q-155 -119 -451 -119q-293 0 -448 119q-158 118 -158 416zM1075 457v108q0 172 -98 248t-285 76q-186 0 -284 -76q-99 -77 -99 -248v-110q0 -173 99 -246q98 -76 284 -76
q187 0 285 76t98 248zM276 1176l314 348h205l313 -348h-221l-199 213l-199 -213h-213z" />
    <glyph glyph-name="otilde" unicode="&#xf5;" horiz-adv-x="1384" 
d="M86 510q0 294 158 416q153 118 448 118q298 0 451 -118q155 -119 155 -416q0 -300 -155 -416q-155 -119 -451 -119q-293 0 -448 119q-158 118 -158 416zM1075 457v108q0 172 -98 248t-285 76q-186 0 -284 -76q-99 -77 -99 -248v-110q0 -173 99 -246q98 -76 284 -76
q187 0 285 76t98 248zM526 1522q58 0 105 -29q48 -33 78 -63l63 -64q28 -31 66 -31q45 0 65 51q21 52 21 130h149q0 -157 -53 -246q-53 -92 -164 -92q-62 0 -108 30q-33 19 -78 64q-55 55 -64 65q-29 29 -61 29q-47 0 -64 -51q-20 -50 -20 -131h-150q0 152 54 246
q53 92 161 92z" />
    <glyph glyph-name="odieresis" unicode="&#xf6;" horiz-adv-x="1384" 
d="M86 510q0 294 158 416q153 118 448 118q298 0 451 -118q155 -119 155 -416q0 -300 -155 -416q-155 -119 -451 -119q-293 0 -448 119q-158 118 -158 416zM1075 457v108q0 172 -98 248t-285 76q-186 0 -284 -76q-99 -77 -99 -248v-110q0 -173 99 -246q98 -76 284 -76
q187 0 285 76t98 248zM322 1352q0 60 32 92q36 31 97 31q62 0 98 -31q33 -33 33 -92q0 -61 -33 -90q-33 -33 -98 -33q-64 0 -97 33q-32 28 -32 90zM803 1352q0 59 33 92q36 31 98 31q60 0 96 -31q33 -33 33 -92q0 -61 -33 -90q-33 -33 -96 -33q-65 0 -98 33q-33 29 -33 90z
" />
    <glyph glyph-name="ugrave" unicode="&#xf9;" 
d="M137 387v635h223v-623q0 -158 80 -211t238 -53q145 0 248 62q100 57 100 213v612h221v-1022h-215v182q-51 -105 -166 -155q-116 -52 -270 -52q-216 0 -338 93q-121 92 -121 319zM289 1524h260l262 -348h-203z" />
    <glyph glyph-name="uacute" unicode="&#xfa;" 
d="M137 387v635h223v-623q0 -158 80 -211t238 -53q145 0 248 62q100 57 100 213v612h221v-1022h-215v182q-51 -105 -166 -155q-116 -52 -270 -52q-216 0 -338 93q-121 92 -121 319zM582 1176l262 348h254l-322 -348h-194z" />
    <glyph glyph-name="ucircumflex" unicode="&#xfb;" 
d="M137 387v635h223v-623q0 -158 80 -211t238 -53q145 0 248 62q100 57 100 213v612h221v-1022h-215v182q-51 -105 -166 -155q-116 -52 -270 -52q-216 0 -338 93q-121 92 -121 319zM279 1176l313 348h205l313 -348h-221l-199 213l-198 -213h-213z" />
    <glyph glyph-name="udieresis" unicode="&#xfc;" 
d="M137 387v635h223v-623q0 -158 80 -211t238 -53q145 0 248 62q100 57 100 213v612h221v-1022h-215v182q-51 -105 -166 -155q-116 -52 -270 -52q-216 0 -338 93q-121 92 -121 319zM324 1352q0 60 32 92q36 31 97 31q62 0 98 -31q33 -33 33 -92q0 -61 -33 -90
q-33 -33 -98 -33q-64 0 -97 33q-32 28 -32 90zM805 1352q0 59 33 92q36 31 98 31q60 0 96 -31q33 -33 33 -92q0 -61 -33 -90q-33 -33 -96 -33q-65 0 -98 33q-33 29 -33 90z" />
    <glyph glyph-name="yacute" unicode="&#xfd;" horiz-adv-x="1255" 
d="M143 -246h119q91 0 144 29q47 29 92 123l37 76l-527 1040h234l403 -813l393 813h207l-565 -1157q-74 -154 -156 -215q-85 -60 -235 -60h-146v164zM530 1176l263 348h254l-322 -348h-195z" />
    <glyph glyph-name="ydieresis" unicode="&#xff;" horiz-adv-x="1255" 
d="M143 -246h119q91 0 144 29q47 29 92 123l37 76l-527 1040h234l403 -813l393 813h207l-565 -1157q-74 -154 -156 -215q-85 -60 -235 -60h-146v164zM264 1352q0 59 33 92q36 31 96 31q63 0 99 -31q32 -32 32 -92q0 -62 -32 -90q-33 -33 -99 -33q-63 0 -96 33q-33 29 -33 90
zM745 1352q0 59 33 92q36 31 99 31q60 0 96 -31q33 -33 33 -92q0 -61 -33 -90q-33 -33 -96 -33q-66 0 -99 33q-33 29 -33 90z" />
    <glyph glyph-name="Amacron" unicode="&#x100;" horiz-adv-x="1601" 
d="M639 1413h324l628 -1413h-243l-172 387h-775l-172 -387h-221zM479 563h619l-310 699zM453 1638v150h694v-150h-694z" />
    <glyph glyph-name="amacron" unicode="&#x101;" horiz-adv-x="1333" 
d="M84 279q0 140 96 221q98 79 334 88l461 16v33q0 136 -78 199q-80 59 -242 59q-133 0 -211 -37q-84 -41 -104 -133h-221q24 157 157 240q131 79 379 79q271 0 408 -96q133 -100 133 -311v-637h-211v184q-58 -101 -180 -153q-127 -56 -299 -56q-226 0 -324 82t-98 222z
M307 281q0 -74 62 -115q59 -39 192 -39q78 0 160 16q70 14 133 54q53 33 88 92q33 56 33 141v45l-416 -16q-127 -6 -190 -41q-62 -35 -62 -115v-22zM311 1276v145h693v-145h-693z" />
    <glyph glyph-name="Abreve" unicode="&#x102;" horiz-adv-x="1601" 
d="M639 1413h324l628 -1413h-243l-172 387h-775l-172 -387h-221zM479 563h619l-310 699zM412 1858h178q3 -84 53 -123q50 -41 156 -41q104 0 157 41q51 39 54 123h176q-3 -151 -99 -232q-94 -82 -288 -82q-195 0 -289 82q-95 80 -98 232z" />
    <glyph glyph-name="abreve" unicode="&#x103;" horiz-adv-x="1333" 
d="M84 279q0 140 96 221q98 79 334 88l461 16v33q0 136 -78 199q-80 59 -242 59q-133 0 -211 -37q-84 -41 -104 -133h-221q24 157 157 240q131 79 379 79q271 0 408 -96q133 -100 133 -311v-637h-211v184q-58 -101 -180 -153q-127 -56 -299 -56q-226 0 -324 82t-98 222z
M307 281q0 -74 62 -115q59 -39 192 -39q78 0 160 16q70 14 133 54q53 33 88 92q33 56 33 141v45l-416 -16q-127 -6 -190 -41q-62 -35 -62 -115v-22zM283 1520h174q3 -100 49 -152q45 -51 149 -51q105 0 150 51q46 52 49 152h176q0 -170 -96 -260q-97 -91 -279 -91
q-184 0 -278 88t-94 263z" />
    <glyph glyph-name="Aogonek" unicode="&#x104;" horiz-adv-x="1601" 
d="M1481 -397q-160 0 -240 51q-84 53 -84 153q0 79 45 130q42 51 135 86l-161 364h-775l-172 -387h-221l631 1413h324l628 -1413h-63q-105 -18 -144 -57q-41 -41 -41 -86q0 -51 50 -78q49 -27 182 -27v-149h-94zM479 563h619l-310 699z" />
    <glyph glyph-name="aogonek" unicode="&#x105;" horiz-adv-x="1333" 
d="M84 279q0 140 96 221q98 79 334 88l461 16v33q0 136 -78 199q-80 59 -242 59q-133 0 -211 -37q-84 -41 -104 -133h-221q24 157 157 240q131 79 379 79q271 0 408 -96q133 -100 133 -311v-637h-53q-100 -18 -139 -57q-41 -38 -41 -88q0 -52 51 -78q52 -25 168 -25v-149
h-82q-151 0 -234 51q-88 52 -88 153q0 85 53 138q52 55 154 82v157q-58 -101 -180 -153q-127 -56 -299 -56q-226 0 -324 82t-98 222zM307 281q0 -74 62 -115q59 -39 192 -39q78 0 160 16q70 14 133 54q53 33 88 92q33 56 33 141v45l-416 -16q-127 -6 -190 -41
q-62 -35 -62 -115v-22z" />
    <glyph glyph-name="Cacute" unicode="&#x106;" horiz-adv-x="1652" 
d="M98 705q0 394 201 565q198 168 563 168q325 0 508 -109q178 -106 213 -358h-237q-27 166 -148 225q-117 57 -336 57q-245 0 -383 -106q-143 -107 -143 -371v-135q0 -258 141 -369q139 -112 387 -112q207 0 326 55q117 54 158 211h237q-40 -236 -219 -344
q-180 -107 -504 -107q-365 0 -563 168q-201 168 -201 562zM739 1552l289 306h268l-344 -306h-213z" />
    <glyph glyph-name="cacute" unicode="&#x107;" horiz-adv-x="1286" 
d="M86 508q0 280 145 410q144 126 437 126q241 0 383 -77q139 -80 166 -252h-224q-27 95 -102 135q-74 39 -223 39q-185 0 -271 -74q-86 -77 -86 -244v-122q0 -173 92 -244q93 -72 265 -72q153 0 227 45q75 43 102 125h224q-30 -161 -168 -244q-141 -84 -385 -84
q-283 0 -432 119q-150 117 -150 414zM539 1176l262 348h254l-322 -348h-194z" />
    <glyph glyph-name="Ccircumflex" unicode="&#x108;" horiz-adv-x="1652" 
d="M98 705q0 394 201 565q198 168 563 168q325 0 508 -109q178 -106 213 -358h-237q-27 166 -148 225q-117 57 -336 57q-245 0 -383 -106q-143 -107 -143 -371v-135q0 -258 141 -369q139 -112 387 -112q207 0 326 55q117 54 158 211h237q-40 -236 -219 -344
q-180 -107 -504 -107q-365 0 -563 168q-201 168 -201 562zM408 1552l354 306h213l356 -306h-244l-223 179l-221 -179h-235z" />
    <glyph glyph-name="ccircumflex" unicode="&#x109;" horiz-adv-x="1286" 
d="M86 508q0 280 145 410q144 126 437 126q241 0 383 -77q139 -80 166 -252h-224q-27 95 -102 135q-74 39 -223 39q-185 0 -271 -74q-86 -77 -86 -244v-122q0 -173 92 -244q93 -72 265 -72q153 0 227 45q75 43 102 125h224q-30 -161 -168 -244q-141 -84 -385 -84
q-283 0 -432 119q-150 117 -150 414zM238 1169l313 349h205l313 -349h-221l-199 213l-198 -213h-213z" />
    <glyph glyph-name="Cdotaccent" unicode="&#x10a;" horiz-adv-x="1652" 
d="M98 705q0 394 201 565q198 168 563 168q325 0 508 -109q178 -106 213 -358h-237q-27 166 -148 225q-117 57 -336 57q-245 0 -383 -106q-143 -107 -143 -371v-135q0 -258 141 -369q139 -112 387 -112q207 0 326 55q117 54 158 211h237q-40 -236 -219 -344
q-180 -107 -504 -107q-365 0 -563 168q-201 168 -201 562zM725 1704q0 60 37 90q36 31 106 31q72 0 111 -31q35 -30 35 -90q0 -63 -35 -90q-39 -31 -111 -31q-70 0 -106 31q-37 27 -37 90z" />
    <glyph glyph-name="cdotaccent" unicode="&#x10b;" horiz-adv-x="1286" 
d="M86 508q0 280 145 410q144 126 437 126q241 0 383 -77q139 -80 166 -252h-224q-27 95 -102 135q-74 39 -223 39q-185 0 -271 -74q-86 -77 -86 -244v-122q0 -173 92 -244q93 -72 265 -72q153 0 227 45q75 43 102 125h224q-30 -161 -168 -244q-141 -84 -385 -84
q-283 0 -432 119q-150 117 -150 414zM518 1352q0 58 37 88t100 30q69 0 107 -30q35 -30 35 -88q0 -60 -35 -90q-36 -33 -107 -33q-64 0 -100 33q-37 30 -37 90z" />
    <glyph glyph-name="Ccaron" unicode="&#x10c;" horiz-adv-x="1652" 
d="M98 705q0 394 201 565q198 168 563 168q325 0 508 -109q178 -106 213 -358h-237q-27 166 -148 225q-117 57 -336 57q-245 0 -383 -106q-143 -107 -143 -371v-135q0 -258 141 -369q139 -112 387 -112q207 0 326 55q117 54 158 211h237q-40 -236 -219 -344
q-180 -107 -504 -107q-365 0 -563 168q-201 168 -201 562zM403 1860h244l221 -179l224 179h235l-354 -306h-215z" />
    <glyph glyph-name="ccaron" unicode="&#x10d;" horiz-adv-x="1286" 
d="M86 508q0 280 145 410q144 126 437 126q241 0 383 -77q139 -80 166 -252h-224q-27 95 -102 135q-74 39 -223 39q-185 0 -271 -74q-86 -77 -86 -244v-122q0 -173 92 -244q93 -72 265 -72q153 0 227 45q75 43 102 125h224q-30 -161 -168 -244q-141 -84 -385 -84
q-283 0 -432 119q-150 117 -150 414zM240 1524h221l198 -213l201 213h211l-313 -348h-205z" />
    <glyph glyph-name="Emacron" unicode="&#x112;" horiz-adv-x="1431" 
d="M168 1413h1171v-184h-938v-418h752v-180h-752v-447h947v-184h-1180v1413zM414 1638v150h694v-150h-694z" />
    <glyph glyph-name="emacron" unicode="&#x113;" horiz-adv-x="1316" 
d="M86 510q0 282 152 410q148 124 421 124q277 0 426 -116q150 -120 150 -381v-53h-930v-43q0 -167 92 -244q90 -78 262 -78q147 0 232 43q85 42 115 129h219q-46 -169 -191 -246q-145 -80 -375 -80q-272 0 -421 125q-152 125 -152 410zM659 895q-155 0 -249 -61
q-96 -66 -105 -213h711q-9 150 -96 213q-88 61 -261 61zM315 1276v145h693v-145h-693z" />
    <glyph glyph-name="Ebreve" unicode="&#x114;" horiz-adv-x="1431" 
d="M168 1413h1171v-184h-938v-418h752v-180h-752v-447h947v-184h-1180v1413zM373 1858h178q3 -84 53 -123q50 -41 156 -41q105 0 158 41q50 39 53 123h176q-3 -152 -98 -232q-94 -82 -289 -82t-289 82q-95 80 -98 232z" />
    <glyph glyph-name="ebreve" unicode="&#x115;" horiz-adv-x="1316" 
d="M86 510q0 282 152 410q148 124 421 124q277 0 426 -116q150 -120 150 -381v-53h-930v-43q0 -167 92 -244q90 -78 262 -78q147 0 232 43q85 42 115 129h219q-46 -169 -191 -246q-145 -80 -375 -80q-272 0 -421 125q-152 125 -152 410zM659 895q-155 0 -249 -61
q-96 -66 -105 -213h711q-9 150 -96 213q-88 61 -261 61zM287 1520h174q3 -100 49 -152q45 -51 149 -51q105 0 150 51q46 52 49 152h176q0 -170 -96 -260q-97 -91 -279 -91q-184 0 -278 88t-94 263z" />
    <glyph glyph-name="Edotaccent" unicode="&#x116;" horiz-adv-x="1431" 
d="M168 1413h1171v-184h-938v-418h752v-180h-752v-447h947v-184h-1180v1413zM618 1704q0 60 37 90q36 31 107 31t110 -31q35 -30 35 -90q0 -63 -35 -90q-39 -31 -110 -31t-107 31q-37 27 -37 90z" />
    <glyph glyph-name="edotaccent" unicode="&#x117;" horiz-adv-x="1316" 
d="M86 510q0 282 152 410q148 124 421 124q277 0 426 -116q150 -120 150 -381v-53h-930v-43q0 -167 92 -244q90 -78 262 -78q147 0 232 43q85 42 115 129h219q-46 -169 -191 -246q-145 -80 -375 -80q-272 0 -421 125q-152 125 -152 410zM659 895q-155 0 -249 -61
q-96 -66 -105 -213h711q-9 150 -96 213q-88 61 -261 61zM522 1352q0 58 37 88t100 30q69 0 107 -30q35 -30 35 -88q0 -60 -35 -90q-36 -33 -107 -33q-64 0 -100 33q-37 30 -37 90z" />
    <glyph glyph-name="Eogonek" unicode="&#x118;" horiz-adv-x="1431" 
d="M1272 -397q-150 0 -236 51q-90 53 -90 151q0 69 47 119q45 51 137 76h-962v1413h1171v-184h-938v-418h752v-180h-752v-447h947v-184q-113 -15 -162 -53q-53 -38 -53 -88q0 -53 49 -80q50 -27 166 -27v-149h-76z" />
    <glyph glyph-name="eogonek" unicode="&#x119;" horiz-adv-x="1316" 
d="M86 510q0 282 152 410q148 124 421 124q277 0 426 -116q150 -120 150 -381v-53h-930v-43q0 -167 92 -244q90 -78 262 -78q147 0 232 43q85 42 115 129h219q-28 -98 -86 -162q-54 -63 -152 -106q-3 -1 -8 -3t-8 -3q-10 -7 -17 -9q-100 -43 -145 -75q-53 -38 -53 -90
q0 -49 53 -76q55 -25 180 -25v-149h-90q-156 0 -242 51q-88 52 -88 153q0 54 31 99q25 41 86 69h-14h-13q-272 0 -421 125q-152 125 -152 410zM659 895q-155 0 -249 -61q-96 -66 -105 -213h711q-9 147 -96 210q-88 64 -261 64z" />
    <glyph glyph-name="Ecaron" unicode="&#x11a;" horiz-adv-x="1431" 
d="M168 1413h1171v-184h-938v-418h752v-180h-752v-447h947v-184h-1180v1413zM297 1858h244l221 -179l223 179h236l-355 -306h-215z" />
    <glyph glyph-name="ecaron" unicode="&#x11b;" horiz-adv-x="1316" 
d="M86 510q0 282 152 410q148 124 421 124q277 0 426 -116q150 -120 150 -381v-53h-930v-43q0 -167 92 -244q90 -78 262 -78q147 0 232 43q85 42 115 129h219q-46 -169 -191 -246q-145 -80 -375 -80q-272 0 -421 125q-152 125 -152 410zM659 895q-155 0 -249 -61
q-96 -66 -105 -213h711q-9 150 -96 213q-88 61 -261 61zM244 1524h221l199 -213l200 213h211l-313 -348h-205z" />
    <glyph glyph-name="Gcircumflex" unicode="&#x11c;" horiz-adv-x="1714" 
d="M98 705q0 395 203 565q198 168 569 168q334 0 514 -107q179 -107 220 -350h-236q-35 155 -154 213q-124 59 -344 59q-263 0 -397 -110q-137 -110 -137 -369v-133q0 -255 135 -369q133 -112 397 -112q269 0 394 94q124 90 133 285h-494v166h721v-105q0 -312 -192 -467
q-196 -158 -560 -158q-370 0 -569 166q-203 167 -203 564zM408 1552l354 306h213l356 -306h-244l-223 179l-221 -179h-235z" />
    <glyph glyph-name="gcircumflex" unicode="&#x11d;" horiz-adv-x="1449" 
d="M129 -111h227q40 -94 127 -131q84 -37 234 -37q197 0 280 80q82 79 82 287v94q-63 -92 -172 -139q-105 -45 -262 -45q-259 0 -407 121t-148 395q0 279 148 406q142 124 407 124q158 0 268 -45q112 -46 174 -149v172h216v-922q0 -277 -142 -407q-142 -127 -446 -127
q-266 0 -410 84q-141 83 -176 239zM1079 469v100q0 171 -98 244q-100 74 -285 74q-182 0 -282 -74q-101 -76 -101 -248v-102q0 -159 101 -232q100 -75 284 -75q187 0 285 73q96 75 96 240zM285 1176l313 348h205l313 -348h-221l-199 213l-198 -213h-213z" />
    <glyph glyph-name="Gbreve" unicode="&#x11e;" horiz-adv-x="1714" 
d="M98 705q0 395 203 565q198 168 569 168q334 0 514 -107q179 -107 220 -350h-236q-35 155 -154 213q-124 59 -344 59q-263 0 -397 -110q-137 -110 -137 -369v-133q0 -255 135 -369q133 -112 397 -112q269 0 394 94q124 90 133 285h-494v166h721v-105q0 -312 -192 -467
q-196 -158 -560 -158q-370 0 -569 166q-203 167 -203 564zM481 1858h178q3 -84 54 -123q50 -41 155 -41t158 41q50 39 53 123h176q-3 -152 -98 -232q-94 -82 -289 -82q-194 0 -288 82q-96 81 -99 232z" />
    <glyph glyph-name="gbreve" unicode="&#x11f;" horiz-adv-x="1449" 
d="M129 -111h227q40 -94 127 -131q84 -37 234 -37q197 0 280 80q82 79 82 287v94q-63 -92 -172 -139q-105 -45 -262 -45q-259 0 -407 121t-148 395q0 279 148 406q142 124 407 124q158 0 268 -45q112 -46 174 -149v172h216v-922q0 -277 -142 -407q-142 -127 -446 -127
q-266 0 -410 84q-141 83 -176 239zM1079 469v100q0 171 -98 244q-100 74 -285 74q-182 0 -282 -74q-101 -76 -101 -248v-102q0 -159 101 -232q100 -75 284 -75q187 0 285 73q96 75 96 240zM328 1520h174q3 -100 49 -152q45 -51 149 -51q105 0 150 51q46 52 49 152h176
q0 -170 -96 -260q-97 -91 -279 -91q-184 0 -278 88t-94 263z" />
    <glyph glyph-name="Gdotaccent" unicode="&#x120;" horiz-adv-x="1714" 
d="M98 705q0 395 203 565q198 168 569 168q334 0 514 -107q179 -107 220 -350h-236q-35 155 -154 213q-124 59 -344 59q-263 0 -397 -110q-137 -110 -137 -369v-133q0 -255 135 -369q133 -112 397 -112q269 0 394 94q124 90 133 285h-494v166h721v-105q0 -312 -192 -467
q-196 -158 -560 -158q-370 0 -569 166q-203 167 -203 564zM729 1704q0 60 37 90q36 31 106 31q72 0 111 -31q35 -30 35 -90q0 -63 -35 -90q-39 -31 -111 -31q-70 0 -106 31q-37 27 -37 90z" />
    <glyph glyph-name="gdotaccent" unicode="&#x121;" horiz-adv-x="1449" 
d="M129 -111h227q40 -94 127 -131q84 -37 234 -37q197 0 280 80q82 79 82 287v94q-63 -92 -172 -139q-105 -45 -262 -45q-259 0 -407 121t-148 395q0 279 148 406q142 124 407 124q158 0 268 -45q112 -46 174 -149v172h216v-922q0 -277 -142 -407q-142 -127 -446 -127
q-266 0 -410 84q-141 83 -176 239zM1079 469v100q0 171 -98 244q-100 74 -285 74q-182 0 -282 -74q-101 -76 -101 -248v-102q0 -159 101 -232q100 -75 284 -75q187 0 285 73q96 75 96 240zM563 1352q0 58 37 88q38 30 100 30q70 0 107 -30q35 -30 35 -88q0 -60 -35 -90
q-36 -33 -107 -33q-64 0 -100 33q-37 30 -37 90z" />
    <glyph glyph-name="uni0122" unicode="&#x122;" horiz-adv-x="1714" 
d="M98 705q0 395 203 565q198 168 569 168q334 0 514 -107q179 -107 220 -350h-236q-35 155 -154 213q-124 59 -344 59q-263 0 -397 -110q-137 -110 -137 -369v-133q0 -255 135 -369q133 -112 397 -112q269 0 394 94q124 90 133 285h-494v166h721v-105q0 -312 -192 -467
q-196 -158 -560 -158q-370 0 -569 166q-203 167 -203 564zM762 -420q62 0 90 25q27 24 27 76v10h-11q-68 0 -102 24q-37 27 -37 82t37 82q37 29 106 29q72 0 111 -31q35 -27 35 -94v-76q0 -124 -62 -180q-61 -55 -194 -55v108z" />
    <glyph glyph-name="uni0123" unicode="&#x123;" horiz-adv-x="1449" 
d="M129 -111h227q40 -94 127 -131q84 -37 234 -37q197 0 280 80q82 79 82 287v94q-63 -92 -172 -139q-105 -45 -262 -45q-259 0 -407 121t-148 395q0 279 148 406q142 124 407 124q158 0 268 -45q112 -46 174 -149v172h216v-922q0 -277 -142 -407q-142 -127 -446 -127
q-266 0 -410 84q-141 83 -176 239zM1079 469v100q0 171 -98 244q-100 74 -285 74q-182 0 -282 -74q-101 -76 -101 -248v-102q0 -159 101 -232q100 -75 284 -75q187 0 285 73q96 75 96 240zM811 1511q-61 0 -88 -24q-29 -26 -29 -76v-10h11q65 0 104 -25q35 -27 35 -82
t-35 -82q-39 -28 -109 -28q-74 0 -108 30q-37 27 -37 95v75q0 126 61 181t195 55v-109z" />
    <glyph glyph-name="Hcircumflex" unicode="&#x124;" horiz-adv-x="1689" 
d="M168 1413h233v-588h885v588h236v-1413h-236v633h-885v-633h-233v1413zM383 1552l354 306h213l357 -306h-244l-223 179l-222 -179h-235z" />
    <glyph glyph-name="hcircumflex" unicode="&#x125;" 
d="M1038 0v618q0 157 -80 213q-83 56 -237 56q-159 0 -254 -62q-94 -64 -94 -213v-612h-221v1495h221v-645q53 102 170 149q110 45 256 45q218 0 342 -92q121 -92 121 -305v-647h-224zM240 1573l354 305h213l356 -305h-243l-224 178l-221 -178h-235z" />
    <glyph glyph-name="Itilde" unicode="&#x128;" horiz-adv-x="569" 
d="M168 1413h233v-1413h-233v1413zM111 1851q68 0 112 -20q37 -17 82 -49q39 -28 70 -47q33 -23 67 -23q44 0 64 39q18 37 18 94h152q0 -131 -49 -207q-53 -77 -160 -77q-64 0 -113 22q-50 21 -86 47q-63 45 -69 49q-34 21 -68 21q-45 0 -63 -37q-21 -41 -21 -96h-151
q0 131 49 207q53 77 166 77z" />
    <glyph glyph-name="itilde" unicode="&#x129;" horiz-adv-x="522" 
d="M152 1022h221v-1022h-221v1022zM98 1522q58 0 105 -29q48 -33 78 -63l63 -64q28 -31 66 -31q45 0 65 51q21 52 21 130h149q0 -157 -53 -246q-53 -92 -164 -92q-62 0 -109 30q-31 18 -77 64q-55 55 -64 65q-29 29 -61 29q-47 0 -64 -51q-20 -50 -20 -131h-150
q0 157 51 246q53 92 164 92z" />
    <glyph glyph-name="Imacron" unicode="&#x12a;" horiz-adv-x="569" 
d="M168 1413h233v-1413h-233v1413zM-61 1638v150h694v-150h-694z" />
    <glyph glyph-name="imacron" unicode="&#x12b;" horiz-adv-x="522" 
d="M152 1022h221v-1022h-221v1022zM-84 1276v145h692v-145h-692z" />
    <glyph glyph-name="Ibreve" unicode="&#x12c;" horiz-adv-x="569" 
d="M168 1413h233v-1413h-233v1413zM-102 1858h178q3 -84 53 -123q50 -41 156 -41q104 0 157 41q51 39 54 123h176q-3 -151 -99 -232q-94 -82 -288 -82q-195 0 -289 82q-95 80 -98 232z" />
    <glyph glyph-name="ibreve" unicode="&#x12d;" horiz-adv-x="522" 
d="M152 1022h221v-1022h-221v1022zM-111 1520h174q3 -99 50 -152q45 -51 149 -51q105 0 150 51q46 52 49 152h176q0 -170 -96 -260q-97 -91 -279 -91q-184 0 -278 88q-95 89 -95 263z" />
    <glyph glyph-name="Iogonek" unicode="&#x12e;" horiz-adv-x="569" 
d="M381 -397q-160 0 -246 51q-90 53 -90 162q0 65 33 112t92 82v1403h233v-1413q-94 -21 -133 -57q-39 -33 -39 -84q0 -53 56 -80q55 -27 188 -27v-149h-94z" />
    <glyph glyph-name="iogonek" unicode="&#x12f;" horiz-adv-x="526" 
d="M125 1348q0 58 37 88t100 30q69 0 107 -30q34 -30 34 -88q0 -61 -34 -91q-35 -32 -107 -32q-65 0 -100 32q-37 30 -37 91zM362 -395q-153 0 -239 51q-90 53 -90 154q0 65 33 112q28 47 88 82v1018h221v-1022q-89 -21 -121 -59q-35 -38 -35 -82q0 -54 51 -80
q52 -27 174 -27v-147h-82z" />
    <glyph glyph-name="Idotaccent" unicode="&#x130;" horiz-adv-x="569" 
d="M168 1413h233v-1413h-233v1413zM141 1704q0 60 37 90q36 31 107 31t110 -31q35 -30 35 -90q0 -63 -35 -90q-39 -31 -110 -31t-107 31q-37 27 -37 90z" />
    <glyph glyph-name="dotlessi" unicode="&#x131;" horiz-adv-x="522" 
d="M152 1022h221v-1022h-221v1022z" />
    <glyph glyph-name="uni0136" unicode="&#x136;" horiz-adv-x="1529" 
d="M168 1413h233v-600h236l594 600h280l-673 -682l708 -731h-305l-604 621h-236v-621h-233v1413zM670 -420q62 0 90 25q26 23 26 76v10h-10q-68 0 -102 24q-37 27 -37 82t37 82q37 29 106 29q72 0 111 -31q35 -27 35 -94v-76q0 -124 -62 -180q-61 -55 -194 -55v108z" />
    <glyph glyph-name="uni0137" unicode="&#x137;" horiz-adv-x="1253" 
d="M963 1022h256l-490 -487l543 -535h-283l-442 434h-174v-434h-221v1495h221v-895h166zM543 -420q62 0 90 25q26 23 26 76v10h-10q-67 0 -102 24q-37 27 -37 82t37 82q37 29 106 29q72 0 111 -31q35 -27 35 -94v-76q0 -124 -62 -180q-61 -55 -194 -55v108z" />
    <glyph glyph-name="Lacute" unicode="&#x139;" horiz-adv-x="1337" 
d="M168 1413h233v-1220h906v-193h-1139v1413zM176 1552l289 306h268l-344 -306h-213z" />
    <glyph glyph-name="lacute" unicode="&#x13a;" horiz-adv-x="522" 
d="M152 1495h221v-1495h-221v1495zM158 1606l288 305h269l-344 -305h-213z" />
    <glyph glyph-name="uni013B" unicode="&#x13b;" horiz-adv-x="1337" 
d="M168 1413h233v-1220h906v-193h-1139v1413zM629 -420q62 0 90 25q26 23 26 76v10h-10q-67 0 -102 24q-37 27 -37 82t37 82q37 29 106 29q72 0 111 -31q35 -27 35 -94v-76q0 -124 -62 -180q-61 -55 -194 -55v108z" />
    <glyph glyph-name="uni013C" unicode="&#x13c;" horiz-adv-x="522" 
d="M152 1495h221v-1495h-221v1495zM147 -420q63 0 91 25q26 23 26 76v10h-10q-68 0 -102 24q-37 27 -37 82t37 82q37 29 106 29q72 0 111 -31q34 -27 34 -94v-76q0 -125 -61 -180t-195 -55v108z" />
    <glyph glyph-name="Nacute" unicode="&#x143;" horiz-adv-x="1714" 
d="M1229 0l-844 1188v-1188h-217v1413h319l840 -1182v1182h219v-1413h-317zM750 1552l288 306h269l-344 -306h-213z" />
    <glyph glyph-name="nacute" unicode="&#x144;" 
d="M1038 0v618q0 157 -80 213q-83 56 -237 56q-159 0 -254 -62q-94 -64 -94 -213v-612h-221v1022h213v-188q52 109 170 161q116 49 264 49q218 0 342 -92q121 -92 121 -305v-647h-224zM594 1176l262 348h254l-322 -348h-194z" />
    <glyph glyph-name="uni0145" unicode="&#x145;" horiz-adv-x="1714" 
d="M1229 0l-844 1188v-1188h-217v1413h319l840 -1182v1182h219v-1413h-317zM741 -420q62 0 90 25q27 24 27 76v10h-10q-68 0 -103 24q-36 26 -36 82t36 82q37 29 107 29q72 0 111 -31q34 -27 34 -94v-76q0 -125 -61 -180t-195 -55v108z" />
    <glyph glyph-name="uni0146" unicode="&#x146;" 
d="M1038 0v618q0 157 -80 213q-83 56 -237 56q-159 0 -254 -62q-94 -64 -94 -213v-612h-221v1022h213v-188q52 109 170 161q116 49 264 49q218 0 342 -92q121 -92 121 -305v-647h-224zM598 -420q62 0 90 25q27 24 27 76v10h-10q-69 0 -103 24q-37 27 -37 82t37 82
q37 29 107 29q71 0 110 -31q35 -27 35 -94v-76q0 -125 -61 -180t-195 -55v108z" />
    <glyph glyph-name="Ncaron" unicode="&#x147;" horiz-adv-x="1714" 
d="M1229 0l-844 1188v-1188h-217v1413h319l840 -1182v1182h219v-1413h-317zM414 1858h243l222 -179l223 179h235l-354 -306h-215z" />
    <glyph glyph-name="ncaron" unicode="&#x148;" 
d="M1038 0v618q0 157 -80 213q-83 56 -237 56q-159 0 -254 -62q-94 -64 -94 -213v-612h-221v1022h213v-188q52 109 170 161q116 49 264 49q218 0 342 -92q121 -92 121 -305v-647h-224zM297 1524h221l199 -213l201 213h210l-313 -348h-205z" />
    <glyph glyph-name="Omacron" unicode="&#x14c;" horiz-adv-x="1826" 
d="M98 711q0 396 209 563q206 164 606 164t609 -164q207 -168 207 -563t-207 -566q-209 -170 -609 -170t-606 170q-209 170 -209 566zM1491 639v143q0 246 -145 361q-143 110 -433 110q-289 0 -432 -110q-145 -115 -145 -361v-143q0 -250 145 -365q144 -114 432 -114
q289 0 433 114q145 115 145 365zM565 1638v150h695v-150h-695z" />
    <glyph glyph-name="omacron" unicode="&#x14d;" horiz-adv-x="1384" 
d="M86 510q0 294 158 416q153 118 448 118q298 0 451 -118q155 -119 155 -416q0 -300 -155 -416q-155 -119 -451 -119q-293 0 -448 119q-158 118 -158 416zM1075 457v108q0 172 -98 248t-285 76q-186 0 -284 -76q-99 -77 -99 -248v-110q0 -173 99 -246q98 -76 284 -76
q187 0 285 76t98 248zM346 1276v145h692v-145h-692z" />
    <glyph glyph-name="Obreve" unicode="&#x14e;" horiz-adv-x="1826" 
d="M98 711q0 396 209 563q206 164 606 164t609 -164q207 -168 207 -563t-207 -566q-209 -170 -609 -170t-606 170q-209 170 -209 566zM1491 639v143q0 246 -145 361q-143 110 -433 110q-289 0 -432 -110q-145 -115 -145 -361v-143q0 -250 145 -365q144 -114 432 -114
q289 0 433 114q145 115 145 365zM526 1858h179q3 -84 53 -123q50 -41 155 -41t158 41q50 39 53 123h176q-3 -152 -98 -232q-94 -82 -289 -82q-194 0 -288 82q-96 81 -99 232z" />
    <glyph glyph-name="obreve" unicode="&#x14f;" horiz-adv-x="1384" 
d="M86 510q0 294 158 416q153 118 448 118q298 0 451 -118q155 -119 155 -416q0 -300 -155 -416q-155 -119 -451 -119q-293 0 -448 119q-158 118 -158 416zM1075 457v108q0 172 -98 248t-285 76q-186 0 -284 -76q-99 -77 -99 -248v-110q0 -173 99 -246q98 -76 284 -76
q187 0 285 76t98 248zM319 1520h175q3 -100 49 -152q45 -51 149 -51q105 0 150 51q46 52 49 152h176q0 -170 -96 -260q-97 -91 -279 -91q-184 0 -278 88q-95 89 -95 263z" />
    <glyph glyph-name="Ohungarumlaut" unicode="&#x150;" horiz-adv-x="1826" 
d="M98 711q0 396 209 563q206 164 606 164t609 -164q207 -168 207 -563t-207 -566q-209 -170 -609 -170t-606 170q-209 170 -209 566zM1491 639v143q0 246 -145 361q-143 110 -433 110q-289 0 -432 -110q-145 -115 -145 -361v-143q0 -250 145 -365q144 -114 432 -114
q289 0 433 114q145 115 145 365zM614 1552l185 306h241l-239 -306h-187zM991 1552l244 306h254l-301 -306h-197z" />
    <glyph glyph-name="ohungarumlaut" unicode="&#x151;" horiz-adv-x="1384" 
d="M86 510q0 294 158 416q153 118 448 118q298 0 451 -118q155 -119 155 -416q0 -300 -155 -416q-155 -119 -451 -119q-293 0 -448 119q-158 118 -158 416zM1075 457v108q0 172 -98 248t-285 76q-186 0 -284 -76q-99 -77 -99 -248v-110q0 -173 99 -246q98 -76 284 -76
q187 0 285 76t98 248zM422 1176l176 348h227l-231 -348h-172zM752 1176l241 348h238l-297 -348h-182z" />
    <glyph glyph-name="Racute" unicode="&#x154;" horiz-adv-x="1599" 
d="M168 1413h848q231 0 350 -113t119 -317q0 -166 -76 -270q-75 -106 -223 -144l356 -569h-264l-344 551h-533v-551h-233v1413zM1247 954v56q0 99 -59 164q-61 61 -203 61h-584v-504h584q142 0 203 64q59 62 59 159zM641 1552l289 306h268l-344 -306h-213z" />
    <glyph glyph-name="racute" unicode="&#x155;" horiz-adv-x="913" 
d="M152 1022h213v-205q40 101 133 154q86 51 219 51h166v-188h-193q-159 0 -237 -66q-80 -65 -80 -217v-551h-221v1022zM424 1176l262 348h254l-322 -348h-194z" />
    <glyph glyph-name="uni0156" unicode="&#x156;" horiz-adv-x="1599" 
d="M168 1413h848q231 0 350 -113t119 -317q0 -166 -76 -270q-75 -106 -223 -144l356 -569h-264l-344 551h-533v-551h-233v1413zM1247 954v56q0 99 -59 164q-61 61 -203 61h-584v-504h584q142 0 203 64q59 62 59 159zM690 -420q62 0 90 25q27 24 27 76v10h-10q-69 0 -103 24
q-37 27 -37 82t37 82q37 29 107 29q71 0 110 -31q35 -27 35 -94v-76q0 -125 -61 -180t-195 -55v108z" />
    <glyph glyph-name="uni0157" unicode="&#x157;" horiz-adv-x="913" 
d="M152 1022h213v-205q40 101 133 154q86 51 219 51h166v-188h-193q-159 0 -237 -66q-80 -65 -80 -217v-551h-221v1022zM143 -420q62 0 90 25q27 24 27 76v10h-10q-68 0 -103 24q-36 26 -36 82t36 82q37 29 107 29q72 0 111 -31q34 -27 34 -94v-76q0 -125 -61 -180t-195 -55
v108z" />
    <glyph glyph-name="Rcaron" unicode="&#x158;" horiz-adv-x="1599" 
d="M168 1413h848q231 0 350 -113t119 -317q0 -166 -76 -270q-75 -106 -223 -144l356 -569h-264l-344 551h-533v-551h-233v1413zM1247 954v56q0 99 -59 164q-61 61 -203 61h-584v-504h584q142 0 203 64q59 62 59 159zM297 1858h244l221 -179l223 179h236l-355 -306h-215z" />
    <glyph glyph-name="rcaron" unicode="&#x159;" horiz-adv-x="913" 
d="M152 1022h213v-205q40 101 133 154q86 51 219 51h166v-188h-193q-159 0 -237 -66q-80 -65 -80 -217v-551h-221v1022zM111 1524h221l198 -213l201 213h211l-313 -348h-205z" />
    <glyph glyph-name="Sacute" unicode="&#x15a;" horiz-adv-x="1552" 
d="M82 393h240q35 -142 145 -190q110 -49 330 -49q229 0 331 57q105 59 105 178q0 160 -176 195q-175 30 -387 51q-210 18 -387 86t-177 303q0 210 177 313q174 101 489 101q311 0 481 -95q168 -93 189 -311h-240q-18 131 -131 180q-118 48 -299 48q-211 0 -321 -52
q-111 -52 -111 -182q0 -155 176 -182q205 -31 387 -47q216 -21 387 -90q176 -71 176 -308q0 -221 -161 -321q-165 -103 -508 -103q-342 0 -516 97q-172 96 -199 321zM662 1552l288 306h269l-345 -306h-212z" />
    <glyph glyph-name="sacute" unicode="&#x15b;" horiz-adv-x="1249" 
d="M72 315h223q15 -109 100 -149q87 -41 238 -41q169 0 246 39q79 37 79 123q0 111 -135 129q-138 18 -297 33q-160 12 -297 65q-135 52 -135 227q0 155 139 232q137 76 385 76q245 0 381 -74q133 -77 148 -238h-223q-9 95 -95 131q-79 33 -211 33q-142 0 -223 -35
q-80 -38 -80 -118q0 -106 136 -121q135 -18 294 -33t295 -68q136 -56 136 -231q0 -168 -142 -242q-140 -73 -401 -73q-265 0 -404 77t-157 258zM498 1176l262 348h254l-322 -348h-194z" />
    <glyph glyph-name="Scircumflex" unicode="&#x15c;" horiz-adv-x="1552" 
d="M82 393h240q35 -142 145 -190q110 -49 330 -49q229 0 331 57q105 59 105 178q0 160 -176 195q-175 30 -387 51q-210 18 -387 86t-177 303q0 210 177 313q174 101 489 101q311 0 481 -95q168 -93 189 -311h-240q-18 131 -131 180q-118 48 -299 48q-211 0 -321 -52
q-111 -52 -111 -182q0 -155 176 -182q205 -31 387 -47q216 -21 387 -90q176 -71 176 -308q0 -221 -161 -321q-165 -103 -508 -103q-342 0 -516 97q-172 96 -199 321zM313 1552l355 306h213l356 -306h-244l-223 179l-221 -179h-236z" />
    <glyph glyph-name="scircumflex" unicode="&#x15d;" horiz-adv-x="1249" 
d="M72 315h223q15 -109 100 -149q87 -41 238 -41q169 0 246 39q79 37 79 123q0 111 -135 129q-138 18 -297 33q-160 12 -297 65q-135 52 -135 227q0 155 139 232q137 76 385 76q245 0 381 -74q133 -77 148 -238h-223q-9 95 -95 131q-79 33 -211 33q-142 0 -223 -35
q-80 -38 -80 -118q0 -106 136 -121q135 -18 294 -33t295 -68q136 -56 136 -231q0 -168 -142 -242q-140 -73 -401 -73q-265 0 -404 77t-157 258zM209 1176l313 348h205l313 -348h-221l-198 213l-199 -213h-213z" />
    <glyph glyph-name="Scedilla" unicode="&#x15e;" horiz-adv-x="1552" 
d="M82 393h240q35 -142 145 -190q110 -49 330 -49q229 0 331 57q105 59 105 178q0 160 -176 195q-175 30 -387 51q-210 18 -387 86t-177 303q0 210 177 313q174 101 489 101q311 0 481 -95q168 -93 189 -311h-240q-18 131 -131 180q-118 48 -299 48q-211 0 -321 -52
q-111 -52 -111 -182q0 -155 176 -182q205 -31 387 -47q216 -21 387 -90q176 -71 176 -308q0 -221 -161 -321q-165 -103 -508 -103q-342 0 -516 97q-172 96 -199 321zM631 -428v121q104 0 139 2q44 3 78 10q24 9 33 21q6 15 6 34q0 41 -45 50q-42 11 -189 14v180h148v-88
q127 -6 203 -37q73 -27 73 -129q0 -87 -73 -133q-71 -45 -230 -45h-143z" />
    <glyph glyph-name="scedilla" unicode="&#x15f;" horiz-adv-x="1249" 
d="M72 315h223q15 -109 100 -149q87 -41 238 -41q169 0 246 39q79 37 79 123q0 111 -135 129q-138 18 -297 33q-160 12 -297 65q-135 52 -135 227q0 155 139 232q137 76 385 76q245 0 381 -74q133 -77 148 -238h-223q-9 95 -95 131q-79 33 -211 33q-142 0 -223 -35
q-80 -38 -80 -118q0 -106 136 -121q135 -18 294 -33t295 -68q136 -56 136 -231q0 -168 -142 -242q-140 -73 -401 -73q-265 0 -404 77t-157 258zM481 -430v121q105 0 140 2q43 2 77 10q24 9 33 21q6 15 6 34q0 40 -45 49q-47 12 -188 15v180h147v-88q127 -6 203 -37
q74 -27 74 -129q0 -86 -74 -133q-71 -45 -229 -45h-144z" />
    <glyph glyph-name="Scaron" unicode="&#x160;" horiz-adv-x="1552" 
d="M82 393h240q35 -142 145 -190q110 -49 330 -49q229 0 331 57q105 59 105 178q0 160 -176 195q-175 30 -387 51q-210 18 -387 86t-177 303q0 210 177 313q174 101 489 101q311 0 481 -95q168 -93 189 -311h-240q-18 131 -131 180q-118 48 -299 48q-211 0 -321 -52
q-111 -52 -111 -182q0 -155 176 -182q205 -31 387 -47q216 -21 387 -90q176 -71 176 -308q0 -221 -161 -321q-165 -103 -508 -103q-342 0 -516 97q-172 96 -199 321zM311 1858h244l221 -179l223 179h236l-354 -306h-215z" />
    <glyph glyph-name="scaron" unicode="&#x161;" horiz-adv-x="1249" 
d="M72 315h223q15 -109 100 -149q87 -41 238 -41q169 0 246 39q79 37 79 123q0 111 -135 129q-138 18 -297 33q-160 12 -297 65q-135 52 -135 227q0 155 139 232q137 76 385 76q245 0 381 -74q133 -77 148 -238h-223q-9 95 -95 131q-79 33 -211 33q-142 0 -223 -35
q-80 -38 -80 -118q0 -106 136 -121q135 -18 294 -33t295 -68q136 -56 136 -231q0 -168 -142 -242q-140 -73 -401 -73q-265 0 -404 77t-157 258zM209 1524h221l199 -213l200 213h211l-313 -348h-205z" />
    <glyph glyph-name="uni0162" unicode="&#x162;" horiz-adv-x="1445" 
d="M606 1221h-577v192h1388v-192h-577v-1221h-234v1221zM610 -420q62 0 90 25q27 24 27 76v10h-10q-69 0 -103 24q-36 26 -36 82t36 82q37 29 107 29q71 0 110 -31q35 -27 35 -94v-76q0 -125 -61 -180t-195 -55v108z" />
    <glyph glyph-name="uni0163" unicode="&#x163;" horiz-adv-x="827" 
d="M188 289v567h-139v166h139v319h222v-319h372v-166h-372v-547q0 -72 34 -106q34 -37 119 -37h219v-166h-295q-158 0 -229 68q-70 67 -70 221zM383 -420q62 0 90 25q27 24 27 76v10h-11q-67 0 -102 24q-37 27 -37 82t37 82q37 29 107 29q71 0 110 -31q35 -27 35 -94v-76
q0 -125 -61 -180t-195 -55v108z" />
    <glyph glyph-name="Utilde" unicode="&#x168;" horiz-adv-x="1671" 
d="M152 561v852h233v-846q0 -228 121 -317q122 -90 342 -90t342 90q119 88 119 317v846h213v-852q0 -294 -164 -438q-168 -148 -510 -148q-350 0 -524 148q-172 144 -172 438zM672 1851q68 0 112 -20q37 -17 82 -49q39 -28 70 -47q33 -23 68 -23q43 0 63 39q18 37 18 94h152
q0 -131 -49 -207q-53 -77 -160 -77q-64 0 -113 22q-50 21 -86 47q-63 45 -69 49q-34 21 -68 21q-45 0 -63 -37q-21 -41 -21 -96h-151q0 133 51 207q50 77 164 77z" />
    <glyph glyph-name="utilde" unicode="&#x169;" 
d="M137 387v635h223v-623q0 -158 80 -211t238 -53q145 0 248 62q100 57 100 213v612h221v-1022h-215v182q-51 -105 -166 -155q-116 -52 -270 -52q-216 0 -338 93q-121 92 -121 319zM530 1522q58 0 105 -29q48 -33 78 -63l63 -64q28 -31 66 -31q45 0 65 51q21 52 21 130h149
q0 -157 -53 -246q-53 -92 -164 -92q-62 0 -108 30q-33 19 -78 64q-55 55 -64 65q-29 29 -61 29q-47 0 -64 -51q-20 -50 -20 -131h-150q0 152 54 246q53 92 161 92z" />
    <glyph glyph-name="Umacron" unicode="&#x16a;" horiz-adv-x="1671" 
d="M152 561v852h233v-846q0 -228 121 -317q122 -90 342 -90t342 90q119 88 119 317v846h213v-852q0 -294 -164 -438q-168 -148 -510 -148q-350 0 -524 148q-172 144 -172 438zM504 1638v150h694v-150h-694z" />
    <glyph glyph-name="umacron" unicode="&#x16b;" 
d="M137 387v635h223v-623q0 -158 80 -211t238 -53q145 0 248 62q100 57 100 213v612h221v-1022h-215v182q-51 -105 -166 -155q-116 -52 -270 -52q-216 0 -338 93q-121 92 -121 319zM350 1276v145h692v-145h-692z" />
    <glyph glyph-name="Ubreve" unicode="&#x16c;" horiz-adv-x="1671" 
d="M152 561v852h233v-846q0 -228 121 -317q122 -90 342 -90t342 90q119 88 119 317v846h213v-852q0 -294 -164 -438q-168 -148 -510 -148q-350 0 -524 148q-172 144 -172 438zM465 1858h178q3 -84 53 -123q50 -41 156 -41q105 0 158 41q50 39 53 123h176q-3 -152 -98 -232
q-94 -82 -289 -82t-289 82q-95 80 -98 232z" />
    <glyph glyph-name="ubreve" unicode="&#x16d;" 
d="M137 387v635h223v-623q0 -158 80 -211t238 -53q145 0 248 62q100 57 100 213v612h221v-1022h-215v182q-51 -105 -166 -155q-116 -52 -270 -52q-216 0 -338 93q-121 92 -121 319zM322 1520h174q3 -100 49 -152q45 -51 149 -51q105 0 150 51q46 52 49 152h176
q0 -170 -96 -260q-97 -91 -279 -91q-184 0 -278 88t-94 263z" />
    <glyph glyph-name="Uring" unicode="&#x16e;" horiz-adv-x="1671" 
d="M152 561v852h233v-846q0 -228 121 -317q122 -90 342 -90t342 90q119 88 119 317v846h213v-852q0 -294 -164 -438q-168 -148 -510 -148q-350 0 -524 148q-172 144 -172 438zM532 1710q0 92 74 139q71 45 246 45q174 0 248 -45q76 -46 76 -139q0 -89 -76 -135
q-77 -47 -248 -47q-172 0 -246 47t-74 135zM854 1640q103 0 139 19q35 18 35 51q0 35 -35 53q-36 19 -139 19t-139 -19q-35 -18 -35 -53q0 -33 35 -51q36 -19 139 -19z" />
    <glyph glyph-name="uring" unicode="&#x16f;" 
d="M137 387v635h223v-623q0 -158 80 -211t238 -53q145 0 248 62q100 57 100 213v612h221v-1022h-215v182q-51 -105 -166 -155q-116 -52 -270 -52q-216 0 -338 93q-121 92 -121 319zM403 1350q0 93 70 145q68 51 219 51q155 0 223 -51q70 -52 70 -145q0 -96 -70 -148
q-68 -51 -223 -51q-151 0 -219 51q-70 52 -70 148zM842 1350q0 40 -31 65q-38 23 -117 23q-86 0 -119 -23q-30 -24 -30 -65q0 -45 30 -66q30 -24 119 -24q82 0 117 24q31 22 31 66z" />
    <glyph glyph-name="Uhungarumlaut" unicode="&#x170;" horiz-adv-x="1671" 
d="M152 561v852h233v-846q0 -228 121 -317q122 -90 342 -90t342 90q119 88 119 317v846h213v-852q0 -294 -164 -438q-168 -148 -510 -148q-350 0 -524 148q-172 144 -172 438zM543 1552l184 306h242l-240 -306h-186zM920 1552l243 306h254l-301 -306h-196z" />
    <glyph glyph-name="uhungarumlaut" unicode="&#x171;" 
d="M137 387v635h223v-623q0 -158 80 -211t238 -53q145 0 248 62q100 57 100 213v612h221v-1022h-215v182q-51 -105 -166 -155q-116 -52 -270 -52q-216 0 -338 93q-121 92 -121 319zM420 1176l176 348h227l-231 -348h-172zM750 1176l241 348h238l-297 -348h-182z" />
    <glyph glyph-name="Uogonek" unicode="&#x172;" horiz-adv-x="1671" 
d="M152 561v852h233v-846q0 -228 121 -317q122 -90 342 -90t342 90q119 88 119 317v846h213v-852q0 -232 -105 -373q-106 -142 -319 -188q-106 -36 -144 -68q-43 -34 -43 -84q0 -48 54 -73q57 -23 178 -23v-149h-94q-150 0 -236 51q-88 52 -88 151q0 54 29 101q26 42 84 69
q-346 3 -516 150q-170 144 -170 436z" />
    <glyph glyph-name="uogonek" unicode="&#x173;" 
d="M137 387v635h223v-623q0 -158 80 -211t238 -53q145 0 248 62q100 57 100 213v612h221v-1022h-51q-98 -21 -137 -57q-41 -38 -41 -88q0 -51 49 -78q52 -25 168 -25v-149h-82q-150 0 -233 51q-89 53 -89 153q0 82 54 136q53 56 147 77v162q-51 -105 -166 -155
q-116 -52 -270 -52q-216 0 -338 93q-121 92 -121 319z" />
    <glyph glyph-name="Wcircumflex" unicode="&#x174;" horiz-adv-x="2111" 
d="M37 1413h235l306 -1206l352 1206h289l342 -1202l311 1202h207l-371 -1413h-305l-342 1202l-354 -1202h-312zM600 1552l354 306h213l357 -306h-244l-223 179l-221 -179h-236z" />
    <glyph glyph-name="wcircumflex" unicode="&#x175;" horiz-adv-x="1828" 
d="M375 0l-355 1022h216l288 -846l275 846h254l278 -844l287 844h188l-350 -1022h-264l-281 850l-276 -850h-260zM498 1176l313 348h205l313 -348h-221l-199 213l-198 -213h-213z" />
    <glyph glyph-name="Ycircumflex" unicode="&#x176;" horiz-adv-x="1554" 
d="M670 600l-672 813h270l531 -645l499 645h240l-635 -815v-598h-233v600zM322 1552l354 306h213l356 -306h-244l-223 179l-221 -179h-235z" />
    <glyph glyph-name="ycircumflex" unicode="&#x177;" horiz-adv-x="1255" 
d="M143 -246h119q91 0 144 29q47 29 92 123l37 76l-527 1040h234l403 -813l393 813h207l-565 -1157q-74 -154 -156 -215q-85 -60 -235 -60h-146v164zM219 1176l313 348h205l314 -348h-222l-198 213l-199 -213h-213z" />
    <glyph glyph-name="Ydieresis" unicode="&#x178;" horiz-adv-x="1554" 
d="M670 600l-672 813h270l531 -645l499 645h240l-635 -815v-598h-233v600zM385 1696q0 61 33 90q36 31 96 31q64 0 100 -31q33 -29 33 -90q0 -63 -33 -92q-36 -31 -100 -31q-60 0 -96 31q-33 29 -33 92zM911 1696q0 60 35 90q36 31 96 31q63 0 99 -31q33 -29 33 -90
q0 -63 -33 -92q-36 -31 -99 -31q-60 0 -96 31q-35 30 -35 92z" />
    <glyph glyph-name="Zacute" unicode="&#x179;" horiz-adv-x="1449" 
d="M76 193l1001 1030h-987v190h1274v-192l-999 -1031h1013v-190h-1302v193zM608 1552l289 306h268l-344 -306h-213z" />
    <glyph glyph-name="zacute" unicode="&#x17a;" horiz-adv-x="1179" 
d="M76 166l741 692h-731v166h999v-164l-743 -692h778v-166h-1044v164zM473 1176l262 348h254l-321 -348h-195z" />
    <glyph glyph-name="Zdotaccent" unicode="&#x17b;" horiz-adv-x="1449" 
d="M76 193l1001 1030h-987v190h1274v-192l-999 -1031h1013v-190h-1302v193zM598 1704q0 60 37 90q36 31 106 31q72 0 111 -31q35 -30 35 -90q0 -63 -35 -90q-39 -31 -111 -31q-70 0 -106 31q-37 27 -37 90z" />
    <glyph glyph-name="zdotaccent" unicode="&#x17c;" horiz-adv-x="1179" 
d="M76 164l741 692h-731v166h999v-164l-743 -692h778v-166h-1044v164zM461 1352q0 58 37 88q38 30 100 30q70 0 107 -30q34 -30 34 -88q0 -60 -34 -90q-36 -33 -107 -33q-64 0 -100 33q-37 30 -37 90z" />
    <glyph glyph-name="Zcaron" unicode="&#x17d;" horiz-adv-x="1449" 
d="M76 193l1001 1030h-987v190h1274v-192l-999 -1031h1013v-190h-1302v193zM279 1858h243l221 -179l224 179h235l-354 -306h-215z" />
    <glyph glyph-name="zcaron" unicode="&#x17e;" horiz-adv-x="1179" 
d="M76 164l741 692h-731v166h999v-164l-743 -692h778v-166h-1044v164zM184 1524h222l198 -213l201 213h211l-314 -348h-204z" />
    <glyph glyph-name="Aringacute" unicode="&#x1fa;" horiz-adv-x="1601" 
d="M639 1413h324l628 -1413h-243l-172 387h-775l-172 -387h-221zM479 563h619l-310 699zM479 1655q0 92 74 139q71 45 246 45q174 0 248 -45q75 -46 75 -139q0 -89 -75 -135q-77 -47 -248 -47q-172 0 -246 47t-74 135zM801 1585q103 0 139 19q35 18 35 51q0 35 -35 53
t-139 18q-105 0 -139 -18q-35 -18 -35 -53q0 -33 35 -51q36 -19 139 -19zM688 1882l289 305h268l-344 -305h-213z" />
    <glyph glyph-name="aringacute" unicode="&#x1fb;" horiz-adv-x="1333" 
d="M84 279q0 140 96 221q98 79 334 88l461 16v33q0 136 -78 199q-80 59 -242 59q-133 0 -211 -37q-84 -41 -104 -133h-221q24 157 157 240q131 79 379 79q271 0 408 -96q133 -100 133 -311v-637h-211v184q-58 -101 -180 -153q-127 -56 -299 -56q-226 0 -324 82t-98 222z
M307 281q0 -74 62 -115q59 -39 192 -39q78 0 160 16q70 14 133 54q53 33 88 92q33 56 33 141v45l-416 -16q-127 -6 -190 -41q-62 -35 -62 -115v-22zM543 1626l288 305h269l-344 -305h-213zM369 1341q0 95 69 146q68 51 219 51q156 0 224 -51q69 -51 69 -146q0 -96 -69 -147
q-68 -51 -224 -51q-151 0 -219 51q-69 51 -69 147zM807 1341q0 41 -31 66q-38 23 -117 23q-85 0 -118 -23q-31 -25 -31 -66q0 -43 31 -65q31 -25 118 -25q81 0 117 25q31 22 31 65z" />
    <glyph glyph-name="uni0218" unicode="&#x218;" horiz-adv-x="1552" 
d="M82 393h240q35 -142 145 -190q110 -49 330 -49q229 0 331 57q105 59 105 178q0 160 -176 195q-175 30 -387 51q-210 18 -387 86t-177 303q0 210 177 313q174 101 489 101q311 0 481 -95q168 -93 189 -311h-240q-18 131 -131 180q-118 48 -299 48q-211 0 -321 -52
q-111 -52 -111 -182q0 -155 176 -182q205 -31 387 -47q216 -21 387 -90q176 -71 176 -308q0 -221 -161 -321q-165 -103 -508 -103q-342 0 -516 97q-172 96 -199 321zM664 -420q62 0 90 25q26 23 26 76v10h-10q-68 0 -102 24q-37 27 -37 82t37 82q37 29 106 29q72 0 111 -31
q35 -27 35 -94v-76q0 -124 -62 -180q-61 -55 -194 -55v108z" />
    <glyph glyph-name="uni0219" unicode="&#x219;" horiz-adv-x="1249" 
d="M72 315h223q15 -109 100 -149q87 -41 238 -41q169 0 246 39q79 37 79 123q0 111 -135 129q-138 18 -297 33q-160 12 -297 65q-135 52 -135 227q0 155 139 232q137 76 385 76q245 0 381 -74q133 -77 148 -238h-223q-9 95 -95 131q-79 33 -211 33q-142 0 -223 -35
q-80 -38 -80 -118q0 -106 136 -121q135 -18 294 -33t295 -68q136 -56 136 -231q0 -168 -142 -242q-140 -73 -401 -73q-265 0 -404 77t-157 258zM512 -420q62 0 90 25q27 24 27 76v10h-11q-68 0 -102 24q-37 27 -37 82t37 82q37 29 107 29q71 0 110 -31q35 -27 35 -94v-76
q0 -125 -61 -180t-195 -55v108z" />
    <glyph glyph-name="uni0401" unicode="&#x401;" horiz-adv-x="1431" 
d="M168 1413h1171v-184h-938v-418h752v-180h-752v-447h947v-184h-1180v1413zM362 1696q0 61 33 90q36 31 97 31q64 0 100 -31q33 -29 33 -90q0 -63 -33 -92q-36 -31 -100 -31q-61 0 -97 31q-33 29 -33 92zM889 1696q0 60 35 90q36 31 96 31q62 0 98 -31q33 -29 33 -90
q0 -63 -33 -92q-36 -31 -98 -31q-60 0 -96 31q-35 30 -35 92z" />
    <glyph glyph-name="uni0403" unicode="&#x403;" horiz-adv-x="1271" 
d="M547 1552l289 306h268l-344 -306h-213zM168 1413h1073v-192h-840v-1221h-233v1413z" />
    <glyph glyph-name="uni040E" unicode="&#x40e;" horiz-adv-x="1492" 
d="M438 0l221 383l-649 1030h258l516 -817l473 817h232l-819 -1413h-232zM389 1853h197q3 -97 49 -137q47 -41 145 -41q101 0 148 41q46 40 49 137h197q-3 -152 -101 -235q-94 -82 -293 -82t-293 82q-95 80 -98 235z" />
    <glyph glyph-name="uni0410" unicode="&#x410;" horiz-adv-x="1601" 
d="M639 1413h324l628 -1413h-243l-172 387h-775l-172 -387h-221zM479 563h619l-310 699z" />
    <glyph glyph-name="uni0411" unicode="&#x411;" horiz-adv-x="1546" 
d="M168 1413h1208v-182h-977v-393h613q233 0 348 -109q110 -107 110 -305t-110 -311q-113 -113 -348 -113h-844v1413zM1235 389v64q0 92 -64 153q-66 60 -204 60h-568v-490h568q138 0 204 60q64 58 64 153z" />
    <glyph glyph-name="uni0412" unicode="&#x412;" horiz-adv-x="1570" 
d="M168 1413h844q200 0 309 -86q109 -89 109 -260q0 -114 -54 -205q-55 -87 -176 -125q133 -27 203 -112q67 -85 67 -224q0 -197 -106 -297q-107 -104 -322 -104h-874v1413zM1194 1010v53q0 88 -55 137t-172 49h-568v-448h568q114 0 172 55q55 55 55 154zM1237 373v67
q0 97 -63 148q-65 53 -191 53h-584v-477h584q123 0 188 53q66 54 66 156z" />
    <glyph glyph-name="uni0413" unicode="&#x413;" horiz-adv-x="1271" 
d="M168 1413h1073v-192h-840v-1221h-233v1413z" />
    <glyph glyph-name="uni0414" unicode="&#x414;" horiz-adv-x="1787" 
d="M29 -307v500h159q52 81 95 247q41 169 41 465v508h1222v-1220h189v-500h-219v307h-1270v-307h-217zM1313 1221h-770v-316q0 -299 -35 -465q-38 -169 -82 -247h887v1028z" />
    <glyph glyph-name="uni0415" unicode="&#x415;" horiz-adv-x="1431" 
d="M168 1413h1171v-184h-938v-418h752v-180h-752v-447h947v-184h-1180v1413z" />
    <glyph glyph-name="uni0416" unicode="&#x416;" horiz-adv-x="2299" 
d="M1028 1413h236v-602h157l582 602h270l-657 -680l690 -733h-297l-586 618h-159v-618h-236v618h-160l-585 -618h-289l680 725l-666 688h281l581 -602h158v602z" />
    <glyph glyph-name="uni0417" unicode="&#x417;" horiz-adv-x="1550" 
d="M74 391h237q21 -130 144 -182q124 -53 329 -53q223 0 330 55q109 56 109 164v57q0 99 -84 152q-83 53 -246 53h-395v172h395q136 0 213 53q76 52 76 144v51q0 107 -101 153q-103 47 -305 47q-194 0 -307 -45q-118 -46 -139 -172h-238q24 214 203 306t481 92
q326 0 486 -95q157 -95 157 -286q0 -124 -71 -207q-75 -84 -199 -111q144 -27 227 -108q84 -84 84 -223q0 -216 -166 -324q-168 -109 -510 -109q-313 0 -499 97q-184 94 -211 319z" />
    <glyph glyph-name="uni0418" unicode="&#x418;" horiz-adv-x="1716" 
d="M1315 1124l-893 -1124h-254v1413h233v-1124l893 1124h254v-1413h-233v1124z" />
    <glyph glyph-name="uni0419" unicode="&#x419;" horiz-adv-x="1716" 
d="M1315 1124l-893 -1124h-254v1413h233v-1124l893 1124h254v-1413h-233v1124zM469 1853h197q3 -97 49 -137q47 -41 145 -41q101 0 148 41q46 40 49 137h196q-3 -153 -100 -235q-94 -82 -293 -82t-293 82q-95 80 -98 235z" />
    <glyph glyph-name="uni041A" unicode="&#x41a;" horiz-adv-x="1529" 
d="M168 1413h233v-600h236l594 600h280l-673 -682l708 -731h-305l-604 621h-236v-621h-233v1413z" />
    <glyph glyph-name="uni041B" unicode="&#x41b;" horiz-adv-x="1646" 
d="M31 207h32q149 0 193 139q43 136 43 471v596h1180v-1413h-236v1221h-727v-404q0 -215 -16 -381q-15 -159 -62 -254q-47 -96 -129 -139t-215 -43h-63v207z" />
    <glyph glyph-name="uni041C" unicode="&#x41c;" horiz-adv-x="2009" 
d="M870 205l-491 1032v-1237h-211v1413h352l484 -1016l485 1016h354v-1413h-235v1233l-492 -1028h-246z" />
    <glyph glyph-name="uni041D" unicode="&#x41d;" horiz-adv-x="1689" 
d="M168 1413h233v-588h885v588h236v-1413h-236v633h-885v-633h-233v1413z" />
    <glyph glyph-name="uni041E" unicode="&#x41e;" horiz-adv-x="1826" 
d="M98 711q0 396 209 563q206 164 606 164t609 -164q207 -168 207 -563t-207 -566q-209 -170 -609 -170t-606 170q-209 170 -209 566zM1491 639v143q0 246 -145 361q-143 110 -433 110q-289 0 -432 -110q-145 -115 -145 -361v-143q0 -250 145 -365q144 -114 432 -114
q289 0 433 114q145 115 145 365z" />
    <glyph glyph-name="uni041F" unicode="&#x41f;" horiz-adv-x="1660" 
d="M168 1413h1327v-1413h-235v1221h-859v-1221h-233v1413z" />
    <glyph glyph-name="uni0420" unicode="&#x420;" horiz-adv-x="1546" 
d="M168 1413h846q243 0 356 -119t113 -329q0 -211 -113 -330q-115 -121 -356 -121h-613v-514h-233v1413zM1247 930v63q0 106 -61 170q-66 66 -201 66h-584v-531h584q133 0 199 66q63 63 63 166z" />
    <glyph glyph-name="uni0421" unicode="&#x421;" horiz-adv-x="1652" 
d="M98 705q0 394 201 565q198 168 563 168q325 0 508 -109q178 -106 213 -358h-237q-27 166 -148 225q-117 57 -336 57q-245 0 -383 -106q-143 -107 -143 -371v-135q0 -258 141 -369q139 -112 387 -112q207 0 326 55q117 54 158 211h237q-40 -236 -219 -344
q-180 -107 -504 -107q-365 0 -563 168q-201 168 -201 562z" />
    <glyph glyph-name="uni0422" unicode="&#x422;" horiz-adv-x="1445" 
d="M606 1221h-577v192h1388v-192h-577v-1221h-234v1221z" />
    <glyph glyph-name="uni0423" unicode="&#x423;" horiz-adv-x="1492" 
d="M438 0l221 383l-649 1030h258l516 -817l473 817h232l-819 -1413h-232z" />
    <glyph glyph-name="uni0424" unicode="&#x424;" horiz-adv-x="2088" 
d="M926 201q-432 3 -637 123q-209 120 -209 415q0 305 209 422q205 114 637 117v160h235v-160q431 -3 639 -117q209 -117 209 -422q0 -295 -209 -415q-208 -120 -639 -123v-226h-235v226zM926 1098q-330 0 -471 -72q-140 -75 -140 -252v-76q0 -164 136 -241q134 -76 475 -76
v717zM1772 698v76q0 178 -136 252q-138 72 -475 72v-717q343 0 477 76q134 78 134 241z" />
    <glyph glyph-name="uni0425" unicode="&#x425;" horiz-adv-x="1556" 
d="M1278 0l-510 575l-510 -575h-260l635 713l-621 700h285l489 -551l492 551h260l-616 -686l641 -727h-285z" />
    <glyph glyph-name="uni0426" unicode="&#x426;" horiz-adv-x="1732" 
d="M1460 -307v307h-1294v1413h235v-1220h859v1220h233v-1220h186v-500h-219z" />
    <glyph glyph-name="uni0427" unicode="&#x427;" horiz-adv-x="1587" 
d="M1186 551q-104 -11 -197 -16q-111 -9 -211 -9q-378 3 -528 111q-154 109 -154 364v412h236v-383q0 -96 28 -160q25 -56 89 -94q60 -35 147 -47q89 -12 207 -12q86 0 188 6q80 5 195 16v674h235v-1413h-235v551z" />
    <glyph glyph-name="uni0428" unicode="&#x428;" horiz-adv-x="2254" 
d="M168 1413h233v-1220h609v1220h235v-1220h606v1220h236v-1413h-1919v1413z" />
    <glyph glyph-name="uni0429" unicode="&#x429;" horiz-adv-x="2326" 
d="M168 1413h233v-1220h609v1220h235v-1220h606v1220h236v-1220h184v-500h-217v307h-1886v1413z" />
    <glyph glyph-name="uni042A" unicode="&#x42a;" horiz-adv-x="1794" 
d="M33 1413h620v-510h602q245 0 361 -119q115 -121 115 -331q0 -209 -115 -330q-117 -123 -361 -123h-835v1221h-387v192zM1493 416v71q0 94 -59 162q-60 66 -211 66h-570v-529h570q151 0 211 66q59 65 59 164z" />
    <glyph glyph-name="uni042B" unicode="&#x42b;" horiz-adv-x="2062" 
d="M168 1413h233v-510h603q244 0 360 -119q115 -121 115 -331q0 -209 -115 -330q-117 -123 -360 -123h-836v1413zM1241 416v71q0 94 -59 162q-60 66 -211 66h-570v-529h570q151 0 211 66q59 65 59 164zM1661 1413h233v-1413h-233v1413z" />
    <glyph glyph-name="uni042C" unicode="&#x42c;" horiz-adv-x="1542" 
d="M168 1413h233v-510h603q244 0 360 -119q115 -121 115 -331q0 -209 -115 -330q-117 -123 -360 -123h-836v1413zM1241 416v71q0 94 -59 162q-60 66 -211 66h-570v-529h570q151 0 211 66q59 65 59 164z" />
    <glyph glyph-name="uni042D" unicode="&#x42d;" horiz-adv-x="1650" 
d="M63 426h236q40 -148 164 -207q121 -59 328 -59q242 0 383 108t141 361h-760v174h760q-6 248 -144 350q-135 100 -370 100q-207 0 -330 -57q-127 -58 -162 -225h-235q40 254 225 360q183 107 502 107q178 0 317 -37q145 -43 236 -125q94 -85 147 -227q51 -137 51 -344
q0 -403 -202 -566q-203 -164 -559 -164q-321 0 -504 109q-183 107 -224 342z" />
    <glyph glyph-name="uni042E" unicode="&#x42e;" horiz-adv-x="2306" 
d="M168 1413h233v-592h244q27 335 225 475q201 142 553 142q385 0 584 -166q201 -168 201 -565q0 -389 -201 -560q-199 -172 -584 -172q-363 0 -563 156q-199 153 -217 504h-242v-635h-233v1413zM1970 649v123q0 255 -135 369q-136 112 -412 112q-271 0 -407 -112
q-139 -115 -139 -369v-123q0 -255 139 -373q137 -116 407 -116q275 0 412 116q135 117 135 373z" />
    <glyph glyph-name="uni042F" unicode="&#x42f;" horiz-adv-x="1591" 
d="M1188 551h-512l-348 -551h-256l358 563q-160 30 -242 137q-84 107 -84 279q0 202 117 319q118 115 350 115h852v-1413h-235v551zM1188 1231h-580q-134 0 -200 -60q-68 -59 -68 -163v-58q0 -100 68 -159q64 -58 200 -58h580v498z" />
    <glyph glyph-name="uni0430" unicode="&#x430;" horiz-adv-x="1333" 
d="M84 279q0 140 96 221q98 79 334 88l461 16v33q0 136 -78 199q-80 59 -242 59q-133 0 -211 -37q-84 -41 -104 -133h-221q24 157 157 240q131 79 379 79q271 0 408 -96q133 -100 133 -311v-637h-211v184q-58 -101 -180 -153q-127 -56 -299 -56q-226 0 -324 82t-98 222z
M307 281q0 -74 62 -115q59 -39 192 -39q78 0 160 16q70 14 133 54q53 33 88 92q33 56 33 141v45l-416 -16q-127 -6 -190 -41q-62 -35 -62 -115v-22z" />
    <glyph glyph-name="uni0431" unicode="&#x431;" horiz-adv-x="1419" 
d="M121 555q0 269 35 453q35 182 114 282q79 102 217 148q133 43 338 49q211 3 283 10q104 6 149 14v-182q-39 -8 -145 -14q-73 -7 -278 -10q-141 -3 -240 -25q-97 -25 -154 -82q-60 -60 -86 -156q-28 -104 -37 -251q57 106 179 165q116 58 295 58q266 0 403 -119t137 -391
q0 -282 -151 -406q-153 -123 -453 -123t-453 129t-153 451zM1108 459v86q0 167 -96 239q-97 72 -287 72q-182 0 -283 -72q-100 -69 -100 -239v-86q0 -178 100 -250q98 -76 283 -76q193 0 287 76q96 75 96 250z" />
    <glyph glyph-name="uni0432" unicode="&#x432;" horiz-adv-x="1312" 
d="M152 1022h688q183 0 266 -68q80 -68 80 -176q0 -80 -39 -145q-40 -67 -152 -94q131 -27 183 -97q49 -70 49 -151q0 -148 -86 -219q-90 -72 -275 -72h-714v1022zM965 721v35q0 55 -33 88t-127 33h-434v-285h436q91 0 125 37q33 36 33 92zM1001 285v41q0 67 -45 100
q-47 35 -141 35h-444v-318h444q94 0 141 35q45 33 45 107z" />
    <glyph glyph-name="uni0433" unicode="&#x433;" horiz-adv-x="1028" 
d="M152 1022h847v-166h-626v-856h-221v1022z" />
    <glyph glyph-name="uni0434" unicode="&#x434;" horiz-adv-x="1443" 
d="M25 -287v451h122q52 87 76 215q25 131 25 305v338h985v-856h166v-453h-205v287h-965v-287h-204zM1010 856h-559v-172q0 -167 -23 -305q-23 -123 -66 -213h648v690z" />
    <glyph glyph-name="uni0435" unicode="&#x435;" horiz-adv-x="1316" 
d="M86 510q0 282 152 410q148 124 421 124q277 0 426 -116q150 -120 150 -381v-53h-930v-43q0 -167 92 -244q90 -78 262 -78q147 0 232 43q85 42 115 129h219q-46 -169 -191 -246q-145 -80 -375 -80q-272 0 -421 125q-152 125 -152 410zM659 895q-155 0 -249 -61
q-96 -66 -105 -213h711q-9 150 -96 213q-88 61 -261 61z" />
    <glyph glyph-name="uni0436" unicode="&#x436;" horiz-adv-x="1832" 
d="M803 1022h221v-422h143l375 422h244l-430 -485l475 -537h-266l-383 434h-158v-434h-221v434h-158l-385 -434h-258l467 528l-438 494h252l374 -422h146v422z" />
    <glyph glyph-name="uni0437" unicode="&#x437;" horiz-adv-x="1245" 
d="M59 301h224q9 -95 96 -135q87 -41 242 -41q166 0 241 37q78 35 78 121v30q0 74 -63 111q-64 37 -195 37h-242v141h236q132 0 182 33q53 35 53 100v31q0 70 -67 100q-73 31 -223 31q-157 0 -232 -37q-79 -37 -94 -119h-223q15 162 164 234q144 69 385 69q249 0 380 -67
q134 -69 134 -211q0 -76 -43 -137q-46 -61 -168 -88q120 -27 178 -88q59 -65 59 -158q0 -165 -133 -242q-138 -78 -407 -78q-252 0 -398 76q-149 73 -164 250z" />
    <glyph glyph-name="uni0438" unicode="&#x438;" horiz-adv-x="1404" 
d="M152 1022h219v-786l635 786h247v-1022h-219v784l-635 -784h-247v1022z" />
    <glyph glyph-name="uni0439" unicode="&#x439;" horiz-adv-x="1404" 
d="M326 1520h186q0 -110 43 -162q44 -53 143 -53q95 0 142 53q45 51 45 162h186q-3 -173 -96 -260q-97 -91 -277 -91q-182 0 -276 91q-93 87 -96 260zM152 1022h221v-805l626 805h254v-1022h-221v805l-626 -805h-254v1022z" />
    <glyph glyph-name="uni043A" unicode="&#x43a;" horiz-adv-x="1253" 
d="M152 1022h221v-422h166l424 422h256l-490 -487l543 -535h-283l-442 434h-174v-434h-221v1022z" />
    <glyph glyph-name="uni043B" unicode="&#x43b;" horiz-adv-x="1345" 
d="M35 0v186h24q47 0 86 17t58 57q25 52 33 123q10 85 10 201v438h948v-1022h-221v856h-524v-276q0 -167 -19 -287q-21 -116 -63 -178q-45 -67 -113 -90q-73 -25 -174 -25h-45z" />
    <glyph glyph-name="uni043C" unicode="&#x43c;" horiz-adv-x="1687" 
d="M727 139l-377 721v-860h-198v1022h319l373 -717l375 717h319v-1022h-219v862l-379 -723h-213z" />
    <glyph glyph-name="uni043D" unicode="&#x43d;" horiz-adv-x="1386" 
d="M152 1022h221v-422h641v422h221v-1022h-221v434h-641v-434h-221v1022z" />
    <glyph glyph-name="uni043E" unicode="&#x43e;" horiz-adv-x="1384" 
d="M86 510q0 294 158 416q153 118 448 118q298 0 451 -118q155 -119 155 -416q0 -300 -155 -416q-155 -119 -451 -119q-293 0 -448 119q-158 118 -158 416zM1075 457v108q0 172 -98 248t-285 76q-186 0 -284 -76q-99 -77 -99 -248v-110q0 -173 99 -246q98 -76 284 -76
q187 0 285 76t98 248z" />
    <glyph glyph-name="uni043F" unicode="&#x43f;" horiz-adv-x="1363" 
d="M152 1022h1060v-1022h-221v856h-618v-856h-221v1022z" />
    <glyph glyph-name="uni0440" unicode="&#x440;" horiz-adv-x="1447" 
d="M152 1022h213v-184q59 103 176 157q113 49 276 49q259 0 402 -122q143 -125 143 -412q0 -288 -143 -410q-143 -125 -402 -125q-161 0 -268 45q-113 46 -176 146v-576h-221v1432zM1137 453v114q0 171 -99 248q-100 74 -282 74q-192 0 -287 -74q-96 -78 -96 -248v-114
q0 -166 98 -242q101 -78 283 -78q183 0 284 76q99 77 99 244z" />
    <glyph glyph-name="uni0441" unicode="&#x441;" horiz-adv-x="1286" 
d="M86 508q0 280 145 410q144 126 437 126q241 0 383 -77q139 -80 166 -252h-224q-27 95 -102 135q-74 39 -223 39q-185 0 -271 -74q-86 -77 -86 -244v-122q0 -173 92 -244q93 -72 265 -72q153 0 227 45q75 43 102 125h224q-30 -161 -168 -244q-141 -84 -385 -84
q-283 0 -432 119q-150 117 -150 414z" />
    <glyph glyph-name="uni0442" unicode="&#x442;" horiz-adv-x="1144" 
d="M461 856h-430v166h1083v-166h-430v-856h-223v856z" />
    <glyph glyph-name="uni0443" unicode="&#x443;" horiz-adv-x="1255" 
d="M143 -246h119q91 0 144 29q47 29 92 123l37 76l-527 1040h234l403 -813l393 813h207l-565 -1157q-74 -154 -156 -215q-85 -60 -235 -60h-146v164z" />
    <glyph glyph-name="uni0444" unicode="&#x444;" horiz-adv-x="1769" 
d="M774 -25q-327 0 -510 121q-180 119 -180 414q0 287 180 412q180 122 510 122v451h221v-451q330 0 510 -122q181 -126 181 -412q0 -294 -181 -414q-183 -121 -510 -121v-385h-221v385zM774 887q-221 0 -344 -72q-123 -71 -123 -250v-102q0 -175 121 -252q122 -78 346 -78
v754zM1462 463v102q0 179 -121 250q-123 72 -346 72v-754q224 0 346 78q121 77 121 252z" />
    <glyph glyph-name="uni0445" unicode="&#x445;" horiz-adv-x="1224" 
d="M961 0l-357 395l-366 -395h-234l475 516l-459 506h263l338 -371l346 371h233l-455 -490l478 -532h-262z" />
    <glyph glyph-name="uni0446" unicode="&#x446;" horiz-adv-x="1425" 
d="M1176 -287v287h-1024v1022h221v-856h618v856h221v-856h168v-453h-204z" />
    <glyph glyph-name="uni0447" unicode="&#x447;" horiz-adv-x="1286" 
d="M913 397q-95 -12 -155 -16q-82 -6 -178 -6q-267 0 -385 92q-117 91 -117 317v238h221v-229q0 -145 78 -199q77 -53 260 -53q77 0 147 6q85 7 129 14v461h224v-1022h-224v397z" />
    <glyph glyph-name="uni0448" unicode="&#x448;" horiz-adv-x="1875" 
d="M152 1022h221v-856h454v856h222v-856h454v856h221v-1022h-1572v1022z" />
    <glyph glyph-name="uni0449" unicode="&#x449;" horiz-adv-x="1939" 
d="M152 1022h221v-856h454v856h222v-856h454v856h221v-856h179v-453h-205v287h-1546v1022z" />
    <glyph glyph-name="uni044A" unicode="&#x44a;" horiz-adv-x="1443" 
d="M326 0v856h-293v166h514v-346h467q185 0 278 -84q92 -86 92 -246q0 -167 -92 -256q-93 -90 -278 -90h-688zM1161 322v49q0 70 -43 110q-47 41 -145 41h-426v-368h426q100 0 145 45q43 46 43 123z" />
    <glyph glyph-name="uni044B" unicode="&#x44b;" horiz-adv-x="1714" 
d="M152 0v1022h221v-346h467q185 0 278 -84q92 -86 92 -246q0 -167 -92 -256q-93 -90 -278 -90h-688zM987 322v49q0 70 -43 110q-47 41 -145 41h-426v-368h426q100 0 145 45q43 46 43 123zM1343 1022h222v-1022h-222v1022z" />
    <glyph glyph-name="uni044C" unicode="&#x44c;" horiz-adv-x="1269" 
d="M152 0v1022h221v-346h467q185 0 278 -84q92 -86 92 -246q0 -167 -92 -256q-93 -90 -278 -90h-688zM987 322v49q0 70 -43 110q-47 41 -145 41h-426v-368h426q100 0 145 45q43 46 43 123z" />
    <glyph glyph-name="uni044D" unicode="&#x44d;" horiz-adv-x="1286" 
d="M59 307h224q21 -81 100 -129q77 -47 242 -47q178 0 268 78q88 76 88 231v6h-537v142h537q-3 149 -88 225t-266 76q-162 0 -236 -39q-77 -41 -104 -129h-224q35 160 175 242q138 81 391 81q284 0 428 -126q143 -128 143 -410q0 -281 -143 -406q-145 -127 -430 -127
q-245 0 -391 82q-151 85 -177 250z" />
    <glyph glyph-name="uni044E" unicode="&#x44e;" horiz-adv-x="1859" 
d="M152 1022h221v-414h215q27 238 178 338q148 98 412 98q289 0 442 -118q154 -121 154 -416t-154 -416q-155 -119 -442 -119q-270 0 -422 107q-155 106 -170 362h-213v-444h-221v1022zM1550 455v112q0 178 -96 250q-101 72 -276 72q-178 0 -275 -72q-96 -72 -96 -250v-112
q0 -178 96 -250q97 -72 275 -72q175 0 276 72q96 72 96 250z" />
    <glyph glyph-name="uni044F" unicode="&#x44f;" horiz-adv-x="1300" 
d="M928 373h-363l-258 -373h-239l274 397q-121 26 -188 105q-64 76 -64 192q0 154 94 242q92 86 277 86h688v-1022h-221v373zM928 868h-434q-86 0 -132 -37q-49 -40 -49 -112v-51q0 -69 47 -107q46 -37 134 -37h434v344z" />
    <glyph glyph-name="uni0451" unicode="&#x451;" horiz-adv-x="1316" 
d="M86 510q0 282 152 410q148 124 421 124q277 0 426 -116q150 -120 150 -381v-53h-930v-43q0 -167 92 -244q90 -78 262 -78q147 0 232 43q85 42 115 129h219q-46 -169 -191 -246q-145 -80 -375 -80q-272 0 -421 125q-152 125 -152 410zM659 895q-155 0 -249 -61
q-96 -66 -105 -213h711q-9 150 -96 213q-88 61 -261 61zM291 1352q0 59 33 92q36 31 96 31q62 0 98 -31q33 -33 33 -92q0 -61 -33 -90q-33 -33 -98 -33q-63 0 -96 33q-33 29 -33 90zM772 1352q0 59 33 92q36 31 98 31q60 0 96 -31q33 -33 33 -92q0 -61 -33 -90
q-33 -33 -96 -33q-65 0 -98 33q-33 29 -33 90z" />
    <glyph glyph-name="uni0453" unicode="&#x453;" horiz-adv-x="1028" 
d="M152 1022h847v-166h-626v-856h-221v1022zM446 1176l263 348h254l-322 -348h-195z" />
    <glyph glyph-name="uni045E" unicode="&#x45e;" horiz-adv-x="1255" 
d="M143 -246h119q91 0 144 29q47 29 92 123l37 76l-527 1040h234l403 -813l393 813h207l-565 -1157q-74 -154 -156 -215q-85 -60 -235 -60h-146v164zM264 1520h187q0 -109 45 -160q43 -55 141 -55q97 0 143 55q45 51 45 160h187q-3 -172 -97 -260q-97 -91 -278 -91
q-183 0 -277 91q-93 87 -96 260z" />
    <glyph glyph-name="uni0490" unicode="&#x490;" horiz-adv-x="1271" 
d="M168 1413h856v307h217v-499h-840v-1221h-233v1413z" />
    <glyph glyph-name="Wgrave" unicode="&#x1e80;" horiz-adv-x="2111" 
d="M37 1413h235l306 -1206l352 1206h289l342 -1202l311 1202h207l-371 -1413h-305l-342 1202l-354 -1202h-312zM967 1552l-332 306h274l277 -306h-219z" />
    <glyph glyph-name="wgrave" unicode="&#x1e81;" horiz-adv-x="1828" 
d="M375 0l-355 1022h216l288 -846l275 846h254l278 -844l287 844h188l-350 -1022h-264l-281 850l-276 -850h-260zM498 1524h260l262 -348h-203z" />
    <glyph glyph-name="Wacute" unicode="&#x1e82;" horiz-adv-x="2111" 
d="M37 1413h235l306 -1206l352 1206h289l342 -1202l311 1202h207l-371 -1413h-305l-342 1202l-354 -1202h-312zM965 1552l288 306h269l-344 -306h-213z" />
    <glyph glyph-name="wacute" unicode="&#x1e83;" horiz-adv-x="1828" 
d="M375 0l-355 1022h216l288 -846l275 846h254l278 -844l287 844h188l-350 -1022h-264l-281 850l-276 -850h-260zM834 1176l262 348h254l-322 -348h-194z" />
    <glyph glyph-name="Wdieresis" unicode="&#x1e84;" horiz-adv-x="2111" 
d="M37 1413h235l306 -1206l352 1206h289l342 -1202l311 1202h207l-371 -1413h-305l-342 1202l-354 -1202h-312zM666 1696q0 62 32 90q36 31 97 31q64 0 100 -31q33 -29 33 -90q0 -63 -33 -92q-36 -31 -100 -31q-61 0 -97 31q-32 28 -32 92zM1192 1696q0 60 35 90
q36 31 96 31q62 0 98 -31q33 -29 33 -90q0 -63 -33 -92q-36 -31 -98 -31q-60 0 -96 31q-35 30 -35 92z" />
    <glyph glyph-name="wdieresis" unicode="&#x1e85;" horiz-adv-x="1828" 
d="M375 0l-355 1022h216l288 -846l275 846h254l278 -844l287 844h188l-350 -1022h-264l-281 850l-276 -850h-260zM543 1352q0 60 32 92q36 31 97 31q62 0 98 -31q33 -33 33 -92q0 -61 -33 -90q-33 -33 -98 -33q-64 0 -97 33q-32 28 -32 90zM1024 1352q0 59 33 92
q36 31 98 31q60 0 96 -31q33 -33 33 -92q0 -61 -33 -90q-33 -33 -96 -33q-65 0 -98 33q-33 29 -33 90z" />
    <glyph glyph-name="Ygrave" unicode="&#x1ef2;" horiz-adv-x="1554" 
d="M670 600l-672 813h270l531 -645l499 645h240l-635 -815v-598h-233v600zM705 1552l-332 306h274l277 -306h-219z" />
    <glyph glyph-name="ygrave" unicode="&#x1ef3;" horiz-adv-x="1255" 
d="M143 -246h119q91 0 144 29q47 29 92 123l37 76l-527 1040h234l403 -813l393 813h207l-565 -1157q-74 -154 -156 -215q-85 -60 -235 -60h-146v164zM233 1524h261l262 -348h-203z" />
    <glyph glyph-name="endash" unicode="&#x2013;" horiz-adv-x="1497" 
d="M104 612h1289v-172h-1289v172z" />
    <glyph glyph-name="Cacute.locl" horiz-adv-x="1652" 
d="M760 1552l137 306h240l-193 -306h-184zM98 705q0 394 201 565q198 168 563 168q325 0 508 -109q178 -106 213 -358h-237q-27 166 -148 225q-117 57 -336 57q-245 0 -383 -106q-143 -107 -143 -371v-135q0 -258 141 -369q139 -112 387 -112q207 0 326 55q117 54 158 211
h237q-40 -236 -219 -344q-180 -107 -504 -107q-365 0 -563 168q-201 168 -201 562z" />
    <glyph glyph-name="Nacute.locl" horiz-adv-x="1714" 
d="M780 1552l138 306h239l-192 -306h-185zM1229 0l-844 1188v-1188h-217v1413h319l840 -1182v1182h219v-1413h-317z" />
    <glyph glyph-name="Oacute.locl" horiz-adv-x="1826" 
d="M98 711q0 396 209 563q206 164 606 164t609 -164q207 -168 207 -563t-207 -566q-209 -170 -609 -170t-606 170q-209 170 -209 566zM1491 639v143q0 246 -145 361q-143 110 -433 110q-289 0 -432 -110q-145 -115 -145 -361v-143q0 -250 145 -365q144 -114 432 -114
q289 0 433 114q145 115 145 365zM807 1552l137 306h240l-193 -306h-184z" />
    <glyph glyph-name="Sacute.locl" horiz-adv-x="1552" 
d="M82 393h240q35 -142 145 -190q110 -49 330 -49q229 0 331 57q105 59 105 178q0 160 -176 195q-175 30 -387 51q-210 18 -387 86t-177 303q0 210 177 313q174 101 489 101q311 0 481 -95q168 -93 189 -311h-240q-18 131 -131 180q-118 48 -299 48q-211 0 -321 -52
q-111 -52 -111 -182q0 -155 176 -182q205 -31 387 -47q216 -21 387 -90q176 -71 176 -308q0 -221 -161 -321q-165 -103 -508 -103q-342 0 -516 97q-172 96 -199 321zM678 1552l137 306h240l-193 -306h-184z" />
    <glyph glyph-name="Zacute.locl" horiz-adv-x="1449" 
d="M76 193l1001 1030h-987v190h1274v-192l-999 -1031h1013v-190h-1302v193zM629 1552l137 306h240l-193 -306h-184z" />
    <glyph glyph-name="cacute.locl" horiz-adv-x="1286" 
d="M86 508q0 280 145 410q144 126 437 126q241 0 383 -77q139 -80 166 -252h-224q-27 95 -102 135q-74 39 -223 39q-185 0 -271 -74q-86 -77 -86 -244v-122q0 -173 92 -244q93 -72 265 -72q153 0 227 45q75 43 102 125h224q-30 -161 -168 -244q-141 -84 -385 -84
q-283 0 -432 119q-150 117 -150 414zM571 1176l99 348h227l-156 -348h-170z" />
    <glyph glyph-name="glyph312" horiz-adv-x="536" 
d="M10 1176l262 348h254l-321 -348h-195z" />
    <glyph glyph-name="glyph313" horiz-adv-x="542" 
d="M10 1524h260l262 -348h-202z" />
    <glyph glyph-name="glyph314" horiz-adv-x="829" 
d="M10 1176l176 348h228l-232 -348h-172zM340 1176l242 348h237l-297 -348h-182z" />
    <glyph glyph-name="glyph315" horiz-adv-x="851" 
d="M10 1176l314 348h204l314 -348h-221l-199 213l-199 -213h-213z" />
    <glyph glyph-name="glyph316" horiz-adv-x="851" 
d="M10 1524h221l199 -213l201 213h211l-314 -348h-204z" />
    <glyph glyph-name="glyph317" horiz-adv-x="788" 
d="M20 1520h175q3 -100 49 -152q45 -51 149 -51q105 0 150 51q46 52 49 152h176q0 -170 -96 -260q-97 -91 -279 -91q-184 0 -278 88q-95 89 -95 263z" />
    <glyph glyph-name="glyph318" horiz-adv-x="796" 
d="M233 1522q58 0 105 -29q48 -33 78 -63l63 -64q28 -31 66 -31q45 0 65 51q21 52 21 130h149q0 -157 -53 -246q-53 -92 -164 -92q-61 0 -108 30q-33 19 -78 64q-55 55 -64 65q-29 29 -61 29q-47 0 -64 -51q-20 -50 -20 -131h-150q0 152 54 246q53 92 161 92z" />
    <glyph glyph-name="glyph319" horiz-adv-x="770" 
d="M37 1276v145h692v-145h-692z" />
    <glyph glyph-name="glyph320" horiz-adv-x="802" 
d="M31 1350q0 60 32 92q36 31 97 31q62 0 98 -31q33 -33 33 -92q0 -61 -33 -90q-33 -33 -98 -33q-64 0 -97 33q-32 28 -32 90zM512 1350q0 59 33 92q36 31 98 31q60 0 96 -31q33 -33 33 -92q0 -61 -33 -90q-33 -33 -96 -33q-65 0 -98 33q-33 29 -33 90z" />
    <glyph glyph-name="glyph321" horiz-adv-x="573" 
d="M147 1348q0 58 37 88q38 30 101 30q69 0 106 -30q35 -30 35 -88q0 -61 -35 -91q-35 -32 -106 -32q-66 0 -101 32q-37 30 -37 91z" />
    <glyph glyph-name="glyph322" horiz-adv-x="626" 
d="M23 1350q0 94 69 145q68 51 219 51q156 0 224 -51q69 -51 69 -145q0 -97 -69 -148q-68 -51 -224 -51q-151 0 -219 51q-69 51 -69 148zM461 1350q0 40 -31 65q-38 23 -117 23q-85 0 -118 -23q-31 -25 -31 -65q0 -44 31 -66q30 -24 118 -24q83 0 117 24q31 22 31 66z" />
    <glyph glyph-name="glyph323" horiz-adv-x="1024" 
d="M367 -432v121q104 0 139 2q44 3 78 10q24 9 32 20q7 17 7 35q0 40 -45 49q-47 12 -189 15v180h148v-88q126 -6 202 -37q74 -27 74 -129q0 -86 -74 -133q-71 -45 -229 -45h-143z" />
    <glyph glyph-name="glyph324" horiz-adv-x="647" 
d="M223 -420q62 0 90 25q27 24 27 76v10h-10q-68 0 -103 24q-37 27 -37 82t37 82q37 29 107 29q71 0 110 -31q35 -27 35 -94v-76q0 -125 -61 -180t-195 -55v108z" />
    <glyph glyph-name="glyph325" horiz-adv-x="788" 
d="M20 1520h187q0 -109 45 -160q43 -55 141 -55t144 55q45 51 45 160h186q-3 -173 -96 -260q-97 -91 -279 -91t-276 91q-94 88 -97 260z" />
    <glyph glyph-name="glyph326" horiz-adv-x="522" 
d="M-88 -244h98q76 0 111 35q31 39 31 105v1126h221v-1143q0 -140 -66 -215q-65 -74 -237 -74h-158v166z" />
    <glyph glyph-name="glyph328" horiz-adv-x="405" 
d="M14 1552l138 306h239l-192 -306h-185z" />
    <glyph glyph-name="glyph329" horiz-adv-x="585" 
d="M14 1552l289 306h268l-344 -306h-213z" />
    <glyph glyph-name="glyph330" horiz-adv-x="579" 
d="M346 1552l-332 306h275l276 -306h-219z" />
    <glyph glyph-name="glyph331" horiz-adv-x="903" 
d="M14 1552l185 306h241l-239 -306h-187zM391 1552l244 306h254l-301 -306h-197z" />
    <glyph glyph-name="glyph332" horiz-adv-x="944" 
d="M10 1552l355 306h213l356 -306h-244l-223 179l-221 -179h-236z" />
    <glyph glyph-name="glyph333" horiz-adv-x="944" 
d="M10 1858h244l221 -179l223 179h236l-354 -306h-215z" />
    <glyph glyph-name="glyph334" horiz-adv-x="839" 
d="M33 1858h178q3 -84 53 -123q50 -41 156 -41q105 0 158 41q50 39 53 123h176q-3 -152 -98 -232q-94 -82 -289 -82t-289 82q-95 80 -98 232z" />
    <glyph glyph-name="glyph335" horiz-adv-x="817" 
d="M233 1851q69 0 113 -20q37 -17 82 -49q39 -28 70 -47q33 -23 67 -23q44 0 64 39q18 37 18 94h152q0 -131 -49 -207q-53 -77 -160 -77q-64 0 -113 22q-50 21 -86 47q-63 45 -69 49q-34 21 -68 21q-46 0 -64 -37q-20 -39 -20 -96h-152q0 131 52 207q50 77 163 77z" />
    <glyph glyph-name="glyph336" horiz-adv-x="759" 
d="M33 1638v150h694v-150h-694z" />
    <glyph glyph-name="glyph337" horiz-adv-x="890" 
d="M51 1696q0 61 33 90q36 31 96 31q65 0 101 -31q32 -28 32 -90q0 -64 -32 -92q-36 -31 -101 -31q-60 0 -96 31q-33 29 -33 92zM578 1696q0 60 34 90q36 31 97 31q62 0 98 -31q33 -29 33 -90q0 -63 -33 -92q-36 -31 -98 -31q-61 0 -97 31q-34 30 -34 92z" />
    <glyph glyph-name="glyph338" horiz-adv-x="333" 
d="M23 1704q0 61 36 90q36 31 107 31t110 -31q35 -30 35 -90q0 -63 -35 -90q-39 -31 -110 -31t-107 31q-36 26 -36 90z" />
    <glyph glyph-name="glyph339" horiz-adv-x="686" 
d="M23 1710q0 93 73 139q71 45 246 45q174 0 248 -45q76 -46 76 -139q0 -89 -76 -135q-77 -47 -248 -47q-172 0 -246 47q-73 46 -73 135zM344 1640q103 0 139 19q35 18 35 51q0 35 -35 53q-36 19 -139 19t-139 -19q-35 -18 -35 -53q0 -33 35 -51q36 -19 139 -19z" />
    <glyph glyph-name="glyph340" horiz-adv-x="870" 
d="M41 1853h197q3 -97 49 -137q47 -41 145 -41q101 0 148 41q46 40 49 137h196q-3 -153 -100 -235q-94 -82 -293 -82t-293 82q-95 80 -98 235z" />
    <glyph glyph-name="glyph376" horiz-adv-x="346" 
d="M10 1176l99 348h227l-156 -348h-170z" />
    <glyph glyph-name="glyph377" horiz-adv-x="933" 
d="M510 1507q-61 0 -88 -24q-29 -26 -29 -76v-10h10q66 0 105 -25q35 -27 35 -82t-35 -82q-39 -28 -109 -28q-73 0 -108 30q-37 27 -37 95v75q0 126 61 181t195 55v-109z" />
    <glyph glyph-name="i.locl" horiz-adv-x="522" 
d="M152 1022h221v-1022h-221v1022zM123 1348q0 58 37 88q38 30 100 30q70 0 107 -30q34 -30 34 -88q0 -61 -34 -91q-35 -32 -107 -32q-65 0 -100 32q-37 30 -37 91z" />
    <glyph glyph-name="nacute.locl" 
d="M1038 0v618q0 157 -80 213q-83 56 -237 56q-159 0 -254 -62q-94 -64 -94 -213v-612h-221v1022h213v-188q52 109 170 161q116 49 264 49q218 0 342 -92q121 -92 121 -305v-647h-224zM633 1176l98 348h227l-155 -348h-170z" />
    <glyph glyph-name="oacute.locl" horiz-adv-x="1384" 
d="M86 510q0 294 158 416q153 118 448 118q298 0 451 -118q155 -119 155 -416q0 -300 -155 -416q-155 -119 -451 -119q-293 0 -448 119q-158 118 -158 416zM1075 457v108q0 172 -98 248t-285 76q-186 0 -284 -76q-99 -77 -99 -248v-110q0 -173 99 -246q98 -76 284 -76
q187 0 285 76t98 248zM606 1176l99 348h227l-156 -348h-170z" />
    <glyph glyph-name="sacute.locl" horiz-adv-x="1249" 
d="M72 317h223q15 -109 100 -149q87 -41 238 -41q169 0 246 39q79 37 79 123q0 111 -135 129q-138 18 -297 33q-160 12 -297 65q-135 52 -135 227q0 155 139 232q137 76 385 76q245 0 381 -74q133 -77 148 -238h-223q-9 95 -95 131q-79 33 -211 33q-142 0 -223 -35
q-80 -38 -80 -118q0 -106 136 -121q135 -18 294 -33t295 -68q136 -56 136 -231q0 -168 -142 -242q-140 -73 -401 -73q-265 0 -404 77t-157 258zM537 1176l98 348h227l-155 -348h-170z" />
    <glyph glyph-name="uni0414.locl" horiz-adv-x="1855" 
d="M39 -307v500h168l565 1220h320l550 -1220h173v-500h-218v307h-1341v-307h-217zM434 193h965l-477 1060z" />
    <glyph glyph-name="uni0416.locl" horiz-adv-x="2299" 
d="M1028 1413h236v-602h157l582 602h270l-657 -680l690 -733h-297l-586 618h-159v-618h-236v618h-160l-585 -618h-289l680 725l-666 688h281l581 -602h158v602z" />
    <glyph glyph-name="uni041A.locl" horiz-adv-x="1529" 
d="M168 1413h233v-600h236l594 600h280l-673 -682l708 -731h-305l-604 621h-236v-621h-233v1413z" />
    <glyph glyph-name="uni041B.locl" horiz-adv-x="1593" 
d="M639 1413h319l625 -1413h-252l-540 1233l-547 -1233h-236z" />
    <glyph glyph-name="uni0431.locl" horiz-adv-x="1384" 
d="M82 498q0 194 104 301q101 104 260 145q-127 24 -221 90q-94 64 -94 180q0 136 100 211q103 74 328 74q220 0 416 4q127 3 233 17v-172q-89 -16 -237 -19q-208 -4 -398 -4q-115 0 -172 -31q-55 -30 -55 -94v-18q0 -115 150 -133q47 -6 327 -48q173 -27 326 -120
q149 -94 149 -357v-22q0 -281 -153 -404t-453 -123q-299 0 -454 119q-156 117 -156 404zM1075 444v107q0 165 -94 235q-97 72 -289 72q-179 0 -280 -70q-105 -70 -105 -235v-109q0 -155 90 -233t295 -78q203 0 293 78t90 233z" />
    <glyph glyph-name="uni0432.locl" horiz-adv-x="1361" 
d="M133 451v565q0 227 131 364q129 138 441 138q281 0 413 -105q129 -108 129 -305q0 -132 -63 -221q-64 -94 -199 -125q142 -27 219 -119q76 -94 76 -237q0 -205 -143 -318q-145 -115 -432 -115q-295 0 -433 111q-139 112 -139 367zM1030 1073v41q0 123 -80 182
q-80 56 -248 56q-191 0 -268 -80q-78 -84 -78 -258v-189h336q172 0 254 58q84 60 84 190zM1057 373v53q0 126 -84 186q-85 60 -283 60h-334v-242q0 -158 78 -227q76 -70 271 -70q173 0 262 62q90 63 90 178z" />
    <glyph glyph-name="uni0433.locl" horiz-adv-x="1259" 
d="M74 289q0 174 137 229q147 56 299 70q108 10 299 39q137 21 137 131q0 75 -80 110q-79 33 -229 33q-133 0 -215 -33q-87 -35 -96 -131h-226q15 160 150 236q134 76 387 76q250 0 389 -74q139 -77 139 -221q0 -176 -137 -228q-144 -55 -299 -69q-113 -10 -301 -39
q-137 -21 -137 -135q0 -82 82 -119q79 -39 250 -39q154 0 239 43q84 41 99 151h225q-18 -184 -158 -262q-139 -77 -401 -77q-263 0 -408 71t-145 238z" />
    <glyph glyph-name="uni0434.locl" horiz-adv-x="1449" 
d="M129 -111h227q40 -94 127 -131q84 -37 234 -37q197 0 280 80q82 79 82 287v94q-63 -92 -172 -139q-105 -45 -262 -45q-259 0 -407 121t-148 395q0 279 148 406q142 124 407 124q158 0 268 -45q112 -46 174 -149v172h216v-922q0 -277 -142 -407q-142 -127 -446 -127
q-266 0 -410 84q-141 83 -176 239zM1079 469v100q0 171 -98 244q-100 74 -285 74q-182 0 -282 -74q-101 -76 -101 -248v-102q0 -159 101 -232q100 -75 284 -75q187 0 285 73q96 75 96 240z" />
    <glyph glyph-name="uni0436.locl" horiz-adv-x="1832" 
d="M803 1495h221v-895h143l375 422h244l-430 -483l475 -539h-268l-381 434h-158v-434h-221v434h-158l-383 -434h-260l465 526l-440 496h256l374 -422h146v895z" />
    <glyph glyph-name="uni0437.locl" horiz-adv-x="1206" 
d="M37 -72h221q15 -103 92 -153q76 -49 230 -49q162 0 245 59q80 62 80 203v39q0 109 -71 174q-70 61 -218 61h-247v160h239q144 0 207 57q64 55 64 156v47q0 111 -74 158q-71 45 -217 45q-145 0 -215 -43q-71 -47 -92 -140h-222q21 184 162 265q139 77 365 77
q232 0 375 -88q141 -88 141 -280q0 -118 -53 -201q-56 -86 -195 -121q149 -34 211 -129q61 -94 61 -215q0 -236 -145 -342q-144 -102 -401 -102q-235 0 -377 86q-145 86 -166 276z" />
    <glyph glyph-name="uni0438.locl" 
d="M137 387v635h223v-623q0 -158 80 -211t238 -53q145 0 248 62q100 57 100 213v612h221v-1022h-215v182q-51 -105 -166 -155q-116 -52 -270 -52q-216 0 -338 93q-121 92 -121 319z" />
    <glyph glyph-name="uni0439.locl" 
d="M137 387v635h223v-623q0 -158 80 -211t238 -53q145 0 248 62q100 57 100 213v612h221v-1022h-215v182q-51 -105 -166 -155q-116 -52 -270 -52q-216 0 -338 93q-121 92 -121 319zM322 1520h186q0 -109 45 -160q43 -55 141 -55t144 55q45 51 45 160h186q-3 -173 -96 -260
q-97 -91 -279 -91t-276 91q-93 87 -96 260z" />
    <glyph glyph-name="uni043A.locl" horiz-adv-x="1253" 
d="M963 1022h256l-490 -487l543 -535h-283l-442 434h-174v-434h-221v1495h221v-895h166z" />
    <glyph glyph-name="uni043B.locl" horiz-adv-x="1263" 
d="M14 0l484 1022h262l489 -1022h-233l-398 836l-389 -836h-215z" />
    <glyph glyph-name="uni043D.locl" horiz-adv-x="1386" 
d="M152 1022h221v-422h641v422h221v-1022h-221v434h-641v-434h-221v1022z" />
    <glyph glyph-name="uni043F.locl" 
d="M1038 0v618q0 157 -80 213q-83 56 -237 56q-159 0 -254 -62q-94 -64 -94 -213v-612h-221v1022h213v-188q52 109 170 161q116 49 264 49q218 0 342 -92q121 -92 121 -305v-647h-224z" />
    <glyph glyph-name="uni0442.locl" horiz-adv-x="2078" 
d="M936 0v627q0 155 -72 209q-68 51 -196 51q-126 0 -211 -60q-84 -60 -84 -206v-621h-221v1022h213v-182q49 103 155 155q104 49 230 49q147 0 241 -49q98 -55 137 -161q46 106 158 159q105 51 248 51q201 0 305 -94q103 -95 103 -307v-643h-222v627q0 156 -71 209
q-71 51 -199 51q-125 0 -207 -58q-86 -59 -86 -208v-621h-221z" />
    <glyph glyph-name="uni0446.locl" horiz-adv-x="1460" 
d="M137 387v635h223v-623q0 -158 80 -211t238 -53q145 0 248 62q100 57 100 213v612h221v-856h168v-453h-205v287h-178v182q-51 -105 -166 -155q-116 -52 -270 -52q-216 0 -338 93q-121 92 -121 319z" />
    <glyph glyph-name="uni0447.locl" horiz-adv-x="1286" 
d="M913 397q-95 -12 -155 -16q-82 -6 -178 -6q-267 0 -385 92q-117 91 -117 317v238h221v-229q0 -145 78 -199q77 -53 260 -53q77 0 147 6q85 7 129 14v461h224v-1022h-224v397z" />
    <glyph glyph-name="uni0448.locl" horiz-adv-x="2078" 
d="M137 379v643h223v-625q0 -158 74 -211q71 -51 197 -51q120 0 205 58q86 59 86 210v619h223v-625q0 -158 74 -211q71 -51 198 -51q122 0 207 60q82 58 82 206v621h223v-1022h-217v176q-50 -103 -149 -151q-103 -50 -226 -50q-147 0 -245 52q-101 54 -140 163
q-47 -108 -155 -161q-111 -54 -244 -54q-199 0 -307 99q-109 95 -109 305z" />
    <glyph glyph-name="uni0449.locl" horiz-adv-x="2142" 
d="M137 379v643h223v-625q0 -158 74 -211q68 -51 197 -51q122 0 207 58q84 60 84 210v619h223v-625q0 -158 74 -211q71 -51 198 -51q122 0 207 60q82 58 82 206v621h223v-856h166v-453h-205v287h-178v176q-50 -103 -149 -151q-103 -50 -226 -50q-147 0 -245 52
q-101 54 -140 163q-51 -110 -155 -161q-111 -54 -244 -54q-199 0 -307 99q-109 95 -109 305z" />
    <glyph glyph-name="uni044A.locl" horiz-adv-x="1452" 
d="M315 367v489h-292v166h516v-334h374q245 0 367 -84q121 -83 121 -264q0 -185 -139 -274q-142 -91 -404 -91q-268 0 -405 88q-138 88 -138 304zM1176 324v36q0 96 -70 136q-71 41 -234 41h-333v-179q0 -119 69 -170q68 -53 252 -53q173 0 244 47q72 47 72 142z" />
    <glyph glyph-name="uni044C.locl" horiz-adv-x="1271" 
d="M137 367v655h221v-334h375q245 0 367 -84q121 -83 121 -264q0 -186 -138 -274q-142 -91 -403 -91q-269 0 -406 88t-137 304zM997 324v36q0 96 -69 136q-71 41 -234 41h-336v-181q0 -116 70 -168q68 -53 250 -53q177 0 248 47t71 142z" />
    <glyph glyph-name="uni044E.locl" horiz-adv-x="1859" 
d="M152 1495h221v-887h215q27 238 178 338q148 98 412 98q289 0 442 -118q154 -121 154 -416t-154 -416q-155 -119 -442 -119q-270 0 -422 107q-155 106 -170 362h-213v-444h-221v1495zM1550 455v112q0 178 -96 250q-101 72 -276 72q-178 0 -275 -72q-96 -72 -96 -250v-112
q0 -178 96 -250q97 -72 275 -72q175 0 276 72q96 72 96 250z" />
    <glyph glyph-name="zacute.locl" horiz-adv-x="1179" 
d="M76 164l741 692h-731v166h999v-164l-743 -692h778v-166h-1044v164zM512 1176l98 348h228l-156 -348h-170z" />
    </font>
</defs>
</svg>
